<svg width="20" height="20" viewBox="0 0 20 20" fill="none" xmlns="http://www.w3.org/2000/svg">
<path fill-rule="evenodd" clip-rule="evenodd" d="M15.3122 11.4236C14.526 14.3576 11.5102 16.0988 8.57612 15.3127C7.6071 15.053 6.77006 14.5514 6.11034 13.8904L5.7988 13.5789L8.23203 13.5785C8.64624 13.5784 8.98197 13.2425 8.98189 12.8283C8.98182 12.4141 8.64597 12.0784 8.23176 12.0785L3.98833 12.0792C3.78941 12.0792 3.59866 12.1583 3.45803 12.299C3.3174 12.4397 3.23842 12.6305 3.23846 12.8294L3.23935 17.0712C3.23944 17.4854 3.5753 17.8211 3.98951 17.821C4.40372 17.821 4.73944 17.4851 4.73935 17.0709L4.73884 14.6403L5.04869 14.9501C5.88973 15.7926 6.95741 16.4318 8.18789 16.7615C11.9222 17.7621 15.7605 15.5461 16.7611 11.8118C16.8683 11.4117 16.6309 11.0005 16.2308 10.8932C15.8307 10.786 15.4194 11.0235 15.3122 11.4236ZM16.5411 7.70119C16.6818 7.56051 16.7608 7.36971 16.7608 7.17078L16.7601 2.92883C16.76 2.51462 16.4242 2.17889 16.0099 2.17896C15.5957 2.17902 15.26 2.51487 15.2601 2.92908L15.2605 5.35995L14.9507 5.05013C14.1097 4.20771 13.0417 3.56827 11.8114 3.23859C8.0771 2.238 4.23874 4.45407 3.23814 8.18834C3.13094 8.58844 3.36837 8.99969 3.76847 9.1069C4.16857 9.2141 4.57983 8.97667 4.68703 8.57657C5.47321 5.6425 8.48907 3.9013 11.4231 4.68748C12.3922 4.94714 13.2293 5.44881 13.889 6.10979L14.2001 6.4209L11.7681 6.4209C11.3539 6.4209 11.0181 6.75669 11.0181 7.1709C11.0181 7.58512 11.3539 7.9209 11.7681 7.9209H16.0108C16.2097 7.9209 16.4005 7.84187 16.5411 7.70119Z" fill="#9497A3"/>
</svg>
