<svg width="120" height="40" viewBox="0 0 120 40" fill="none" xmlns="http://www.w3.org/2000/svg">
<g clip-path="url(#clip0_967_7042)">
<g clip-path="url(#clip1_967_7042)">
<path d="M50.6406 20.7203C50.6406 26.2724 46.27 30.3637 40.9062 30.3637C35.5425 30.3637 31.1719 26.2724 31.1719 20.7203C31.1719 15.129 35.5425 11.0768 40.9062 11.0768C46.27 11.0768 50.6406 15.129 50.6406 20.7203ZM46.3794 20.7203C46.3794 17.2507 43.8462 14.8768 40.9062 14.8768C37.9662 14.8768 35.4331 17.2507 35.4331 20.7203C35.4331 24.155 37.9662 26.5637 40.9062 26.5637C43.8462 26.5637 46.3794 24.1507 46.3794 20.7203Z" fill="#EA4335"/>
<path d="M71.6406 20.7203C71.6406 26.2724 67.27 30.3637 61.9062 30.3637C56.5425 30.3637 52.1719 26.2724 52.1719 20.7203C52.1719 15.1333 56.5425 11.0768 61.9062 11.0768C67.27 11.0768 71.6406 15.129 71.6406 20.7203ZM67.3794 20.7203C67.3794 17.2507 64.8462 14.8768 61.9062 14.8768C58.9662 14.8768 56.4331 17.2507 56.4331 20.7203C56.4331 24.155 58.9662 26.5637 61.9062 26.5637C64.8462 26.5637 67.3794 24.1507 67.3794 20.7203Z" fill="#FBBC05"/>
<path d="M91.7656 11.6594V28.9724C91.7656 36.0942 87.5393 39.0029 82.5431 39.0029C77.84 39.0029 75.0093 35.8768 73.9418 33.3203L77.6518 31.7855C78.3125 33.355 79.9312 35.2072 82.5387 35.2072C85.7368 35.2072 87.7187 33.2463 87.7187 29.555V28.1681H87.57C86.6162 29.3377 84.7787 30.3594 82.46 30.3594C77.6081 30.3594 73.1631 26.1594 73.1631 20.755C73.1631 15.3116 77.6081 11.0768 82.46 11.0768C84.7743 11.0768 86.6118 12.0985 87.57 13.2333H87.7187V11.6637H91.7656V11.6594ZM88.0206 20.755C88.0206 17.3594 85.7412 14.8768 82.8406 14.8768C79.9006 14.8768 77.4375 17.3594 77.4375 20.755C77.4375 24.1159 79.9006 26.5637 82.8406 26.5637C85.7412 26.5637 88.0206 24.1159 88.0206 20.755Z" fill="#4285F4"/>
<path d="M98.4366 1.5116V29.7725H94.2812V1.5116H98.4366Z" fill="#34A853"/>
<path d="M114.634 23.8942L117.941 26.0856C116.874 27.6551 114.301 30.3595 109.856 30.3595C104.344 30.3595 100.227 26.1247 100.227 20.716C100.227 14.9812 104.379 11.0725 109.38 11.0725C114.415 11.0725 116.878 15.0551 117.683 17.2073L118.125 18.3029L105.153 23.6421C106.146 25.5769 107.691 26.5638 109.856 26.5638C112.026 26.5638 113.531 25.5029 114.634 23.8942ZM104.453 20.4247L113.125 16.8464C112.648 15.6421 111.213 14.8029 109.524 14.8029C107.358 14.8029 104.344 16.7029 104.453 20.4247Z" fill="#EA4335"/>
<path d="M15.4391 18.2116V14.1203H29.3122C29.4479 14.8334 29.5179 15.6768 29.5179 16.5899C29.5179 19.6594 28.6735 23.4551 25.9522 26.1594C23.3054 28.8986 19.9235 30.3594 15.4435 30.3594C7.13973 30.3594 0.157227 23.6377 0.157227 15.3855C0.157227 7.13336 7.13973 0.411621 15.4435 0.411621C20.0372 0.411621 23.3097 2.20293 25.7685 4.53771L22.8635 7.42467C21.1004 5.78119 18.7116 4.50293 15.4391 4.50293C9.37535 4.50293 4.63285 9.35945 4.63285 15.3855C4.63285 21.4116 9.37535 26.2681 15.4391 26.2681C19.3722 26.2681 21.6122 24.6986 23.0472 23.2725C24.211 22.116 24.9766 20.4638 25.2785 18.2073L15.4391 18.2116Z" fill="#4285F4"/>
</g>
</g>
<defs>
<clipPath id="clip0_967_7042">
<rect width="120" height="40" fill="white" transform="translate(0 0.000244141)"/>
</clipPath>
<clipPath id="clip1_967_7042">
<rect width="119" height="40" fill="white" transform="translate(0 0.207275)"/>
</clipPath>
</defs>
</svg>
