<svg width="201" height="40" viewBox="0 0 201 40" fill="none" xmlns="http://www.w3.org/2000/svg">
<g clip-path="url(#clip0_967_7041)">
<path d="M18.5113 4.00073H3.59912V19.2062H18.5113V4.00073Z" fill="#F25022"/>
<path d="M34.9759 4.00024H20.064V19.2056H34.9759V4.00024Z" fill="#7FBA00"/>
<path d="M18.511 20.7949H3.59912V36.0002H18.511V20.7949Z" fill="#00A4EF"/>
<path d="M34.9759 20.7949H20.064V36.0002H34.9759V20.7949Z" fill="#FFB900"/>
<path d="M55.4779 22.4384L54.5968 24.9524H54.5467C54.3893 24.3633 54.1255 23.5277 53.7125 22.4657L48.9975 10.4054H44.3877V29.5801H47.428V17.7928C47.428 17.0652 47.4127 16.1859 47.3827 15.1798C47.3671 14.6705 47.3102 14.2627 47.2965 13.9518H47.3633C47.5178 14.6745 47.6784 15.2246 47.7943 15.5929L53.4481 29.5801H55.5749L61.1866 15.4667C61.314 15.1448 61.4488 14.5169 61.573 13.9518H61.6397C61.5662 15.3486 61.5039 16.6252 61.4956 17.3955V29.5801H64.7389V10.4054H60.312L55.4779 22.4384Z" fill="#737373"/>
<path d="M70.9625 15.8389H67.7925V29.5799H70.9625V15.8389Z" fill="#737373"/>
<path d="M69.4098 9.99927C68.8875 9.99927 68.4334 10.1813 68.0593 10.5392C67.684 10.8989 67.4937 11.3527 67.4937 11.8875C67.4937 12.4135 67.6818 12.8581 68.053 13.2089C68.4226 13.5583 68.8793 13.7352 69.4098 13.7352C69.9405 13.7352 70.399 13.5583 70.7728 13.2094C71.1489 12.8581 71.3395 12.4135 71.3395 11.8875C71.3395 11.3711 71.1536 10.9228 70.7879 10.5541C70.4223 10.1859 69.9587 9.99927 69.4098 9.99927Z" fill="#737373"/>
<path d="M82.1847 15.7014C81.575 15.5728 80.9795 15.5077 80.4132 15.5077C78.9584 15.5077 77.6616 15.8254 76.5582 16.4528C75.4526 17.0807 74.597 17.9776 74.0163 19.1185C73.4362 20.2565 73.1426 21.5849 73.1426 23.0669C73.1426 24.3655 73.4279 25.5563 73.9907 26.6068C74.5549 27.6594 75.3527 28.4819 76.3629 29.0528C77.3723 29.6222 78.5381 29.9117 79.8286 29.9117C81.335 29.9117 82.6216 29.6045 83.6523 28.9987L83.6943 28.9739V26.0131L83.5609 26.112C83.0934 26.4591 82.5714 26.7363 82.0102 26.9353C81.4495 27.1347 80.9387 27.2359 80.4913 27.2359C79.2475 27.2359 78.2493 26.8389 77.5241 26.0562C76.7978 25.2727 76.4295 24.1739 76.4295 22.7893C76.4295 21.3958 76.8129 20.2672 77.5701 19.435C78.3251 18.6046 79.3255 18.1835 80.5433 18.1835C81.5859 18.1835 82.6007 18.5434 83.5609 19.2539L83.6943 19.3524V16.2322L83.6516 16.2074C83.2901 16.0013 82.7967 15.8311 82.1847 15.7014Z" fill="#737373"/>
<path d="M92.6297 15.6003C91.8335 15.6003 91.1206 15.8614 90.5097 16.3755C89.9738 16.8267 89.5868 17.4458 89.2903 18.2184H89.2567V15.8388H86.0869V29.5799H89.2567V22.5506C89.2567 21.3553 89.5227 20.3733 90.0466 19.6323C90.5646 18.8994 91.2541 18.5279 92.0969 18.5279C92.3827 18.5279 92.7032 18.576 93.0501 18.6706C93.3935 18.7651 93.6425 18.8677 93.7892 18.9756L93.9227 19.0735V15.8149L93.8713 15.7929C93.5765 15.665 93.1585 15.6003 92.6297 15.6003Z" fill="#737373"/>
<path d="M101.239 15.5077C99.0166 15.5077 97.2519 16.1716 95.9936 17.4815C94.7356 18.7903 94.0981 20.603 94.0981 22.8687C94.0981 25.02 94.7208 26.7501 95.9483 28.0113C97.1761 29.2718 98.8472 29.9114 100.914 29.9114C103.068 29.9114 104.798 29.2384 106.056 27.9107C107.313 26.5843 107.951 24.79 107.951 22.5767C107.951 20.3907 107.353 18.6476 106.173 17.3957C104.993 16.1428 103.332 15.5077 101.239 15.5077ZM103.759 26.0882C103.164 26.8499 102.268 27.2357 101.096 27.2357C99.9315 27.2357 99.0127 26.8423 98.3661 26.0665C97.7152 25.2868 97.385 24.1753 97.385 22.7623C97.385 21.3059 97.7152 20.1651 98.3661 19.3722C99.0137 18.5832 99.9234 18.1837 101.07 18.1837C102.182 18.1837 103.068 18.5655 103.703 19.3199C104.341 20.0776 104.664 21.2093 104.664 22.683C104.664 24.1758 104.36 25.321 103.759 26.0882Z" fill="#737373"/>
<path d="M114.982 21.5168C113.982 21.1074 113.342 20.7678 113.079 20.5082C112.824 20.2561 112.695 19.9005 112.695 19.4495C112.695 19.0499 112.855 18.7295 113.183 18.4705C113.512 18.2099 113.971 18.0774 114.548 18.0774C115.083 18.0774 115.63 18.1634 116.173 18.3322C116.716 18.5008 117.194 18.727 117.593 19.0034L117.725 19.0945V16.1064L117.674 16.0843C117.306 15.9238 116.822 15.786 116.233 15.6745C115.645 15.5638 115.114 15.5077 114.651 15.5077C113.139 15.5077 111.889 15.9019 110.934 16.6794C109.973 17.4614 109.486 18.4868 109.486 19.728C109.486 20.3729 109.591 20.9461 109.798 21.4312C110.006 21.9193 110.329 22.3495 110.758 22.7094C111.182 23.0662 111.838 23.4406 112.708 23.822C113.438 24.1281 113.983 24.3878 114.33 24.5925C114.668 24.7927 114.909 24.9944 115.044 25.1903C115.176 25.3824 115.243 25.6446 115.243 25.9692C115.243 26.8931 114.565 27.3417 113.17 27.3417C112.652 27.3417 112.062 27.2317 111.416 27.0144C110.768 26.7975 110.164 26.4851 109.619 26.0856L109.486 25.9878V29.1385L109.534 29.1616C109.989 29.375 110.561 29.5556 111.236 29.6975C111.911 29.8397 112.522 29.9116 113.053 29.9116C114.694 29.9116 116.014 29.5151 116.978 28.7335C117.947 27.9466 118.439 26.8969 118.439 25.612C118.439 24.6857 118.175 23.8913 117.653 23.2511C117.135 22.6158 116.236 22.032 114.982 21.5168Z" fill="#737373"/>
<path d="M126.963 15.5077C124.74 15.5077 122.976 16.1716 121.717 17.4815C120.459 18.7903 119.822 20.603 119.822 22.8687C119.822 25.02 120.444 26.7501 121.672 28.0113C122.9 29.2718 124.571 29.9114 126.638 29.9114C128.792 29.9114 130.521 29.2384 131.78 27.9107C133.037 26.5843 133.675 24.79 133.675 22.5767C133.675 20.3907 133.077 18.6476 131.897 17.3957C130.716 16.1428 129.056 15.5077 126.963 15.5077ZM129.483 26.0882C128.888 26.8499 127.991 27.2357 126.82 27.2357C125.655 27.2357 124.737 26.8423 124.09 26.0665C123.439 25.2868 123.109 24.1753 123.109 22.7623C123.109 21.3059 123.439 20.1651 124.09 19.3722C124.737 18.5832 125.647 18.1837 126.794 18.1837C127.906 18.1837 128.792 18.5655 129.427 19.3199C130.065 20.0776 130.388 21.2093 130.388 22.683C130.388 24.1758 130.083 25.321 129.483 26.0882Z" fill="#737373"/>
<path d="M150.577 18.4749V15.8387H147.367V11.7404L147.259 11.7741L144.244 12.7151L144.184 12.7338V15.8387H139.428V14.109C139.428 13.3038 139.605 12.6873 139.953 12.2767C140.299 11.8696 140.793 11.6632 141.423 11.6632C141.876 11.6632 142.346 11.7726 142.819 11.9876L142.937 12.0412V9.26466L142.881 9.24447C142.441 9.08274 141.841 9.00085 141.098 9.00085C140.162 9.00085 139.311 9.20949 138.569 9.62053C137.827 10.0332 137.243 10.622 136.834 11.3705C136.426 12.1178 136.219 12.981 136.219 13.9365V15.8387H133.983V18.4749H136.219V29.5802H139.428V18.4749H144.184V25.5322C144.184 28.4382 145.529 29.9114 148.18 29.9114C148.616 29.9114 149.075 29.8595 149.543 29.7571C150.02 29.6525 150.344 29.5478 150.535 29.4362L150.577 29.4116V26.7499L150.447 26.8384C150.273 26.9574 150.056 27.054 149.801 27.1257C149.546 27.1989 149.333 27.2354 149.168 27.2354C148.546 27.2354 148.087 27.065 147.802 26.7283C147.513 26.3883 147.367 25.7944 147.367 24.9622V18.4749H150.577Z" fill="#737373"/>
<path d="M158.222 28.8701V25.9638C159.472 26.9504 160.883 27.4437 162.455 27.4437C163.732 27.4437 164.75 27.1548 165.509 26.5771C166.277 25.9994 166.661 25.2173 166.661 24.2307C166.661 22.0621 164.995 20.9778 161.664 20.9778H160.177V18.4981H161.597C164.553 18.4981 166.031 17.476 166.031 15.4318C166.031 13.5476 164.879 12.6055 162.575 12.6055C161.289 12.6055 160.079 13.0632 158.945 13.9787V11.2324C160.249 10.5036 161.789 10.1392 163.567 10.1392C165.272 10.1392 166.639 10.5658 167.666 11.419C168.693 12.2722 169.206 13.3654 169.206 14.6986C169.206 17.2138 167.92 18.8314 165.348 19.5513V19.6046C166.732 19.738 167.826 20.2223 168.63 21.0578C169.434 21.8844 169.836 22.9198 169.836 24.1641C169.836 25.8794 169.188 27.2659 167.893 28.3236C166.598 29.3723 164.893 29.8967 162.776 29.8967C160.874 29.8967 159.356 29.5545 158.222 28.8701Z" fill="#737373"/>
<path d="M184.588 23.4308C184.588 24.3907 184.427 25.2662 184.106 26.0572C183.793 26.8482 183.356 27.5325 182.793 28.1102C182.23 28.6791 181.561 29.1234 180.784 29.4434C180.016 29.7545 179.181 29.91 178.279 29.91C177.314 29.91 176.426 29.7234 175.613 29.3501C174.809 28.9768 174.113 28.4213 173.523 27.6836C172.943 26.9459 172.492 26.0305 172.17 24.9373C171.849 23.8352 171.688 22.5598 171.688 21.1111C171.688 19.3425 171.898 17.7738 172.318 16.405C172.746 15.0363 173.331 13.8898 174.072 12.9655C174.814 12.0411 175.684 11.339 176.685 10.8591C177.685 10.3791 178.765 10.1392 179.926 10.1392C180.65 10.1392 181.306 10.188 181.896 10.2858C182.494 10.3836 182.972 10.5169 183.329 10.6858V13.4721C182.873 13.241 182.387 13.0455 181.869 12.8855C181.351 12.7255 180.757 12.6455 180.087 12.6455C179.337 12.6455 178.645 12.7966 178.011 13.0988C177.377 13.401 176.827 13.8454 176.363 14.432C175.908 15.0097 175.546 15.7296 175.278 16.5917C175.019 17.4449 174.885 18.4315 174.876 19.5513H174.957C175.367 18.9203 175.921 18.4226 176.618 18.0582C177.323 17.6938 178.149 17.5116 179.096 17.5116C179.935 17.5116 180.69 17.6493 181.36 17.9249C182.038 18.1915 182.614 18.5825 183.088 19.098C183.57 19.6046 183.941 20.2268 184.2 20.9645C184.459 21.6933 184.588 22.5154 184.588 23.4308ZM181.453 23.6841C181.453 23.1331 181.386 22.6309 181.253 22.1777C181.128 21.7244 180.931 21.3378 180.663 21.0178C180.404 20.689 180.074 20.4356 179.672 20.2579C179.279 20.0801 178.815 19.9913 178.279 19.9913C177.743 19.9913 177.27 20.089 176.859 20.2846C176.457 20.4712 176.117 20.7201 175.841 21.0311C175.564 21.3422 175.354 21.6977 175.211 22.0977C175.077 22.4976 175.01 22.9064 175.01 23.3242C175.01 23.7775 175.073 24.2441 175.198 24.724C175.332 25.1951 175.533 25.6261 175.8 26.0172C176.068 26.4082 176.408 26.7326 176.819 26.9904C177.238 27.2392 177.734 27.3637 178.305 27.3637C178.815 27.3637 179.266 27.2703 179.658 27.0837C180.051 26.8971 180.377 26.6393 180.636 26.3105C180.904 25.9816 181.105 25.595 181.239 25.1506C181.382 24.6973 181.453 24.2085 181.453 23.6841Z" fill="#737373"/>
<path d="M186.253 29.1368V26.1638C187.512 27.0081 188.789 27.4303 190.084 27.4303C191.388 27.4303 192.437 27.1015 193.232 26.4438C194.027 25.7772 194.424 24.8929 194.424 23.7908C194.424 22.7065 194.018 21.8621 193.205 21.2578C192.402 20.6534 191.245 20.3512 189.736 20.3512C189.218 20.3512 188.169 20.4045 186.588 20.5112L187.271 10.4591H196.728V13.0988H189.856L189.535 17.8848C190.151 17.8493 190.709 17.8315 191.209 17.8315C193.246 17.8315 194.817 18.3515 195.925 19.3913C197.041 20.4312 197.599 21.8532 197.599 23.6575C197.599 25.5505 196.961 27.0704 195.684 28.2169C194.415 29.3545 192.67 29.9233 190.446 29.9233C188.57 29.9233 187.173 29.6611 186.253 29.1368Z" fill="#737373"/>
</g>
<defs>
<clipPath id="clip0_967_7041">
<rect width="194" height="32" fill="white" transform="translate(3.59912 4.00024)"/>
</clipPath>
</defs>
</svg>
