<svg width="136" height="40" viewBox="0 0 136 40" fill="none" xmlns="http://www.w3.org/2000/svg">
<g clip-path="url(#clip0_967_7043)">
<g clip-path="url(#clip1_967_7043)">
<path d="M29.2128 7.79836C29.1856 7.60228 29.0224 7.49023 28.8864 7.49023C28.7504 7.49023 26.0576 7.43421 26.0576 7.43421C26.0576 7.43421 23.8 5.19332 23.5824 4.94122C23.3648 4.71713 22.9296 4.77315 22.7664 4.82917C22.7664 4.82917 22.3312 4.96923 21.624 5.19332C21.5152 4.80116 21.3248 4.32497 21.08 3.82077C20.2912 2.25214 19.0944 1.4118 17.68 1.4118C17.5712 1.4118 17.4896 1.4118 17.3808 1.43981C17.3264 1.38379 17.2992 1.32777 17.2448 1.29976C16.6192 0.62749 15.8304 0.291355 14.8784 0.319367C13.056 0.375389 11.2336 1.74794 9.7376 4.1569C8.704 5.86558 7.9152 7.99444 7.6704 9.6471C5.576 10.3194 4.1072 10.7956 4.0528 10.7956C2.992 11.1317 2.9648 11.1597 2.8288 12.1961C2.7744 12.9804 0 35.0813 0 35.0813L23.2832 39.2269L33.3744 36.6499C33.3472 36.6499 29.24 7.99444 29.2128 7.79836ZM20.4544 5.58547C19.9104 5.75354 19.312 5.94962 18.6592 6.17371C18.6592 5.22133 18.5232 3.87679 18.1152 2.75634C19.5024 2.98043 20.1824 4.60508 20.4544 5.58547ZM17.4352 6.53785C16.2112 6.93001 14.8784 7.35018 13.5456 7.77035C13.9264 6.28575 14.6336 4.82917 15.504 3.84878C15.8304 3.48463 16.2928 3.09248 16.8096 2.86839C17.3536 3.96082 17.4624 5.50144 17.4352 6.53785ZM14.9328 1.57987C15.368 1.57987 15.7216 1.6639 16.0208 1.88799C15.5312 2.14009 15.0416 2.53225 14.6064 3.03645C13.4368 4.32497 12.5392 6.31376 12.1856 8.24654C11.0704 8.61068 9.9824 8.94682 9.0032 9.25494C9.656 6.20172 12.1312 1.6639 14.9328 1.57987Z" fill="#95BF47"/>
<path d="M28.8864 7.49022C28.7504 7.49022 26.0576 7.4342 26.0576 7.4342C26.0576 7.4342 23.8 5.1933 23.5824 4.9412C23.5008 4.85717 23.392 4.80115 23.2832 4.80115V39.2269L33.3744 36.6499C33.3744 36.6499 29.2672 7.99442 29.24 7.79835C29.1856 7.60227 29.0224 7.49022 28.8864 7.49022Z" fill="#5E8E3E"/>
<path d="M17.6801 12.8403L16.5105 17.3501C16.5105 17.3501 15.2049 16.7339 13.6545 16.8459C11.3697 16.986 11.3697 18.4706 11.3697 18.8347C11.5057 20.8515 16.6465 21.2997 16.9457 26.0336C17.1633 29.7591 15.0417 32.3081 11.9409 32.5042C8.24166 32.7003 6.20166 30.4594 6.20166 30.4594L6.99046 27.014C6.99046 27.014 9.05766 28.6106 10.6897 28.4986C11.7505 28.4426 12.1585 27.5182 12.1041 26.9019C11.9409 24.2689 7.75206 24.437 7.48006 20.0952C7.26246 16.4538 9.57446 12.7843 14.6881 12.4482C16.6737 12.3081 17.6801 12.8403 17.6801 12.8403Z" fill="white"/>
<path d="M47.0286 22.4482C45.859 21.8039 45.2606 21.2437 45.2606 20.4874C45.2606 19.535 46.1038 18.9188 47.4094 18.9188C48.9326 18.9188 50.2926 19.563 50.2926 19.563L51.3534 16.2017C51.3534 16.2017 50.3742 15.4174 47.491 15.4174C43.4654 15.4174 40.6638 17.7983 40.6638 21.1316C40.6638 23.0364 41.9694 24.465 43.7102 25.5014C45.1246 26.3137 45.6142 26.902 45.6142 27.7703C45.6142 28.6667 44.907 29.3949 43.6014 29.3949C41.6702 29.3949 39.8206 28.3585 39.8206 28.3585L38.6782 31.7199C38.6782 31.7199 40.3646 32.8964 43.2206 32.8964C47.355 32.8964 50.347 30.7955 50.347 27.014C50.3198 24.9692 48.8238 23.5126 47.0286 22.4482Z" fill="black"/>
<path d="M63.512 15.3614C61.472 15.3614 59.8672 16.3698 58.6432 17.8824L58.5888 17.8544L60.3568 8.33057H55.76L51.272 32.5883H55.8688L57.392 24.297C57.9904 21.1597 59.568 19.2269 61.0368 19.2269C62.0704 19.2269 62.4784 19.9552 62.4784 20.9916C62.4784 21.6359 62.424 22.4482 62.288 23.0925L60.5472 32.5883H65.144L66.9392 22.7843C67.1296 21.7479 67.2656 20.5154 67.2656 19.6751C67.2928 16.986 65.9328 15.3614 63.512 15.3614Z" fill="black"/>
<path d="M77.7101 15.3613C72.1613 15.3613 68.4893 20.5154 68.4893 26.2577C68.4893 29.9272 70.6925 32.8963 74.8269 32.8963C80.2669 32.8963 83.9389 27.8823 83.9389 22C83.9661 18.6106 82.0349 15.3613 77.7101 15.3613ZM75.4525 29.2829C73.8749 29.2829 73.2221 27.9103 73.2221 26.1737C73.2221 23.4566 74.5821 19.0308 77.0845 19.0308C78.7165 19.0308 79.2605 20.4874 79.2605 21.8879C79.2605 24.8011 77.8733 29.2829 75.4525 29.2829Z" fill="black"/>
<path d="M95.744 15.3613C92.6432 15.3613 90.8752 18.1905 90.8752 18.1905H90.8208L91.0928 15.6414H87.0128C86.8224 17.3501 86.4416 19.9832 86.088 21.944L82.8784 39.3109H87.4752L88.7536 32.2801H88.8624C88.8624 32.2801 89.8144 32.8963 91.5552 32.8963C96.968 32.8963 100.504 27.1821 100.504 21.4117C100.504 18.2185 99.1168 15.3613 95.744 15.3613ZM91.3376 29.3389C90.1408 29.3389 89.4336 28.6386 89.4336 28.6386L90.1952 24.2129C90.7392 21.2437 92.2352 19.2829 93.84 19.2829C95.2544 19.2829 95.6896 20.6274 95.6896 21.8879C95.6896 24.9692 93.9216 29.3389 91.3376 29.3389Z" fill="black"/>
<path d="M107.086 8.55457C105.617 8.55457 104.448 9.75905 104.448 11.2997C104.448 12.7002 105.318 13.6806 106.624 13.6806H106.678C108.12 13.6806 109.344 12.6722 109.371 10.9355C109.371 9.56297 108.473 8.55457 107.086 8.55457Z" fill="black"/>
<path d="M100.64 32.5603H105.236L108.364 15.7535H103.74L100.64 32.5603Z" fill="black"/>
<path d="M120.088 15.7255H116.878L117.042 14.9412C117.314 13.3165 118.238 11.8879 119.789 11.8879C120.605 11.8879 121.258 12.14 121.258 12.14L122.155 8.41455C122.155 8.41455 121.366 7.99438 119.653 7.99438C118.021 7.99438 116.389 8.47058 115.138 9.56301C113.56 10.9356 112.826 12.9244 112.472 14.9412L112.336 15.7255H110.187L109.507 19.3109H111.656L109.208 32.5882H113.805L116.253 19.3109H119.435L120.088 15.7255Z" fill="black"/>
<path d="M131.186 15.7535C131.186 15.7535 128.302 23.2325 127.024 27.3222H126.97C126.888 26.0056 125.827 15.7535 125.827 15.7535H120.986L123.76 31.1877C123.814 31.5238 123.787 31.7479 123.651 31.972C123.107 33.0365 122.21 34.0729 121.149 34.8292C120.278 35.4734 119.299 35.8936 118.538 36.1737L119.816 40.2073C120.741 40.0112 122.699 39.1989 124.331 37.6303C126.426 35.6135 128.384 32.4762 130.37 28.2185L136 15.7535H131.186Z" fill="black"/>
</g>
</g>
<defs>
<clipPath id="clip0_967_7043">
<rect width="136" height="40" fill="white" transform="translate(0 0.000244141)"/>
</clipPath>
<clipPath id="clip1_967_7043">
<rect width="136" height="40" fill="white" transform="translate(0 0.207275)"/>
</clipPath>
</defs>
</svg>
