<svg width="201" height="40" viewBox="0 0 201 40" fill="none" xmlns="http://www.w3.org/2000/svg">
<g clip-path="url(#clip0_967_7040)">
<g clip-path="url(#clip1_967_7040)">
<path d="M30.0321 18.7944C29.3727 18.1316 28.3033 18.1316 27.6447 18.7944L16.9009 29.6085C15.5829 30.935 13.4446 30.935 12.1267 29.6085C11.4673 28.9441 10.3978 28.9441 9.73916 29.6085C9.07978 30.2706 9.07978 31.3478 9.73916 32.0106C12.3759 34.6644 16.6524 34.6644 19.2892 32.0106L30.0321 21.1982C30.6915 20.5345 30.6915 19.4581 30.0321 18.7944ZM24.0641 15.1908L13.3196 26.0033C12.661 26.6677 12.661 27.7426 13.3196 28.4054C13.9806 29.0699 15.0485 29.0699 15.7079 28.4054L26.4509 17.5937C27.7697 16.2657 29.9079 16.2657 31.2251 17.5937C32.5439 18.9202 32.5439 21.0708 31.2251 22.3996L20.6891 33.003C22.0071 34.3318 24.1453 34.3318 25.4633 33.003L33.6141 24.8018C36.2509 22.1465 36.2509 17.8446 33.6141 15.1908C30.9767 12.537 26.7009 12.537 24.0641 15.1908ZM22.8697 13.9893C23.5289 13.3257 23.5289 12.25 22.8697 11.5863C22.2111 10.9226 21.1415 10.9226 20.4821 11.5863L9.73916 22.3996C8.42042 23.7269 6.28292 23.7269 4.96494 22.3996C3.64542 21.0708 3.64542 18.9202 4.96494 17.593L15.5017 6.98815C14.1829 5.66162 12.0446 5.66162 10.7267 6.98815L2.57666 15.1908C-0.0600591 17.8446 -0.0600591 22.1465 2.57666 24.8018C5.21494 27.4556 9.48916 27.4556 12.1267 24.8018L22.8697 13.9893ZM6.15792 21.1982C6.81728 21.861 7.88604 21.861 8.54464 21.1982L19.2892 10.385C20.6071 9.05765 22.7447 9.05765 24.0633 10.385C24.7235 11.0484 25.7915 11.0484 26.4509 10.385C27.1103 9.72051 27.1103 8.6456 26.4509 7.98194C23.8133 5.32747 19.5392 5.32747 16.9009 7.98194L6.15792 18.7944C5.49854 19.4581 5.49854 20.5345 6.15792 21.1982ZM108.339 19.6028V13.8076H112.722C115.012 13.8076 116.349 14.8684 116.349 16.6234V16.6635C116.349 18.5011 114.83 19.6028 112.699 19.6028H108.339ZM117.972 16.603V16.5629C117.972 15.4401 117.567 14.4399 116.877 13.7456C115.986 12.8484 114.586 12.3176 112.844 12.3176H106.74V26.6024H108.339V21.0527H112.395L116.512 26.6024H118.478L114.119 20.7673C116.349 20.3584 117.972 18.9698 117.972 16.603ZM162.824 21.3774L166.068 14.0923L169.293 21.3774H162.824ZM165.338 12.2153L158.869 26.6024H160.512L162.195 22.8266H169.921L171.584 26.6024H173.306L166.838 12.2153H165.338ZM93.4579 21.3774L96.7017 14.0923L99.9267 21.3774H93.4579ZM95.9711 12.2153L89.5047 26.6024H91.1461L92.8297 22.8266H100.556L102.217 26.6024H103.942L97.4719 12.2153H95.9711ZM140.072 18.6844C136.951 18.0121 136.22 17.2556 136.22 15.9087V15.8686C136.22 14.583 137.396 13.5632 139.242 13.5632C140.701 13.5632 142.021 14.0318 143.338 15.113L144.271 13.8682C142.831 12.7061 141.352 12.1133 139.283 12.1133C136.586 12.1133 134.619 13.7659 134.619 16.0109V16.0526C134.619 18.3997 136.12 19.4604 139.385 20.1744C142.365 20.8066 143.074 21.5622 143.074 22.8872V22.9288C143.074 24.3379 141.817 25.3561 139.912 25.3561C137.945 25.3561 136.528 24.6838 135.045 23.3393L134.053 24.5211C135.756 26.052 137.599 26.8069 139.852 26.8069C142.67 26.8069 144.697 25.2146 144.697 22.7653V22.726C144.697 20.5416 143.238 19.3787 140.072 18.6844ZM123 20.1335H130.745V18.6639H123V13.7873H131.66V12.3176H121.4V26.6024H131.76V25.132H123V20.1335ZM50.7141 18.6844C47.5923 18.0121 46.8625 17.2556 46.8625 15.9087V15.8686C46.8625 14.583 48.0399 13.5632 49.8837 13.5632C51.3439 13.5632 52.6625 14.0318 53.9789 15.113L54.9125 13.8682C53.4719 12.7061 51.9931 12.1133 49.9243 12.1133C47.2275 12.1133 45.2603 13.7659 45.2603 16.0109V16.0526C45.2603 18.3997 46.7603 19.4604 50.0259 20.1744C53.0063 20.8066 53.7165 21.5622 53.7165 22.8872V22.9288C53.7165 24.3379 52.4579 25.3561 50.5525 25.3561C48.5869 25.3561 47.1681 24.6838 45.6861 23.3393L44.6939 24.5211C46.3961 26.052 48.2407 26.8069 50.4923 26.8069C53.3103 26.8069 55.3375 25.2146 55.3375 22.7653V22.726C55.3375 20.5416 53.8783 19.3787 50.7141 18.6844ZM156.964 16.9498C156.964 18.8275 155.421 20.0934 153.07 20.0934H149.562V13.8076H153.153C155.443 13.8076 156.964 14.8684 156.964 16.9097V16.9498ZM153.271 12.3176H147.961V26.6024H149.562V21.5622H153.01C156.031 21.5622 158.586 19.97 158.586 16.8892V16.8483C158.586 14.0318 156.477 12.3176 153.271 12.3176ZM191.838 25.132V20.1335H199.586V18.6639H191.838V13.7873H200.498V12.3176H190.236V26.6024H200.599V25.132H191.838ZM181.803 25.3561C178.681 25.3561 176.309 22.7653 176.309 19.4604V19.4195C176.309 16.1344 178.658 13.5632 181.803 13.5632C183.728 13.5632 185.067 14.3785 186.263 15.5218L187.36 14.3384C185.939 12.9907 184.398 12.073 181.822 12.073C177.646 12.073 174.645 15.4196 174.645 19.4604V19.5013C174.645 23.6027 177.666 26.8486 181.762 26.8486C184.338 26.8486 185.959 25.8476 187.439 24.3379L186.385 23.296C185.025 24.6036 183.748 25.3561 181.803 25.3561ZM85.8337 20.6242C85.8337 23.7466 84.1711 25.3365 81.5563 25.3365C78.8375 25.3365 77.2165 23.6027 77.2165 20.5219V12.3176H75.6149V20.6242C75.6149 24.6642 78.0063 26.8265 81.5149 26.8265C85.0633 26.8265 87.4361 24.6642 87.4361 20.5007V12.3176H85.8337V20.6242ZM69.5525 23.1938L66.9361 20.8066L65.8619 22.0128L68.4985 24.2773C67.6267 24.9496 66.4899 25.3561 65.2329 25.3561C61.9899 25.3561 59.6375 22.7047 59.6375 19.4604V19.4195C59.6375 16.1752 61.9477 13.5632 65.1939 13.5632C68.4369 13.5632 70.7899 16.2153 70.7899 19.4604V19.5013C70.7899 20.9088 70.3227 22.1936 69.5525 23.1938ZM72.4517 19.4604V19.4195C72.4517 15.4802 69.5525 12.073 65.2329 12.073C60.9149 12.073 57.9735 15.5218 57.9735 19.4604V19.5013C57.9735 23.4399 60.8751 26.8486 65.1939 26.8486C66.9563 26.8486 68.4783 26.2761 69.6735 25.3168L71.5399 27.0294L72.6345 25.8263L70.7485 24.2553C71.8439 22.9501 72.4517 21.2556 72.4517 19.4604Z" fill="#231F20"/>
</g>
</g>
<defs>
<clipPath id="clip0_967_7040">
<rect width="200" height="40" fill="white" transform="translate(0.599121 0.000244141)"/>
</clipPath>
<clipPath id="clip1_967_7040">
<rect width="200" height="28" fill="white" transform="translate(0.599121 6.00024)"/>
</clipPath>
</defs>
</svg>
