<svg width="122" height="40" viewBox="0 0 122 40" fill="none" xmlns="http://www.w3.org/2000/svg">
<g clip-path="url(#clip0_1743_20395)">
<path d="M39.6162 16.707C39.6162 14.5673 37.5084 12.2948 33.8608 12.2948C29.7648 12.2948 25.2651 15.2609 24.5774 21.1782C23.8748 27.1546 27.642 29.8108 31.4391 29.8108C35.2361 29.8108 37.2243 28.3499 39.2574 26.402C37.5084 24.2328 35.2511 25.2363 34.8175 25.4576C34.3392 25.6937 33.7263 26.0184 32.4705 26.0184C31.0055 26.0184 29.5106 25.3691 29.5106 22.6686C38.8986 21.7537 39.6162 18.8467 39.6162 16.707ZM34.967 17.0612C34.9072 17.7252 34.6382 18.8615 29.8843 19.496C30.8859 15.9839 32.7994 15.7183 33.6814 15.7183C34.5036 15.7183 35.0268 16.3529 34.967 17.0612ZM19.0612 17.6367C19.0612 17.6367 17.0431 23.8934 16.8787 24.4099C16.8189 23.8787 15.3389 12.649 15.3389 12.649C11.9006 12.649 10.0619 15.069 9.09019 17.6219C9.09019 17.6219 6.63855 23.8934 6.42926 24.4247C6.41431 23.9377 6.05553 17.6957 6.05553 17.6957C5.84624 14.5673 2.94613 12.6637 0.599121 12.6637L3.43944 29.678C7.04217 29.6632 8.98555 27.2579 10.0021 24.705C10.0021 24.705 12.1697 19.1714 12.2594 18.9205C12.2743 19.1566 13.8141 29.678 13.8141 29.678C17.4318 29.678 19.3752 27.4202 20.4216 24.9559L25.4893 12.6637C21.9165 12.6637 20.0329 15.069 19.0612 17.6367ZM52.891 12.2653C50.6636 12.2653 48.9594 13.4606 47.5243 15.2166V15.2019L48.8099 4.97559C45.85 4.97559 43.4432 7.51371 42.9797 11.2914L40.7374 29.5452C42.4416 29.5452 44.2504 29.0582 45.2221 27.8187C46.0891 28.9254 47.3897 29.8108 49.3181 29.8108C54.3111 29.8108 57.7345 24.0853 57.7345 18.7139C57.7046 13.8147 55.2978 12.2653 52.891 12.2653ZM52.4275 21.0454C51.9043 24.041 50.2151 26.0774 48.5856 26.0774C46.9412 26.0774 46.2386 25.3543 46.2386 25.3543C46.5526 22.7277 46.7469 21.1192 47.3449 19.7321C47.9428 18.345 49.363 16.1315 50.8429 16.1315C52.293 16.1315 52.9508 18.0351 52.4275 21.0454ZM70.202 12.6637H66.7189L66.7338 12.4867C66.973 10.2437 67.5112 9.06314 69.2901 8.87131C70.501 8.75325 71.0391 8.13348 71.1737 7.45468C71.2783 6.92345 71.6072 5.07888 71.6072 5.07888C64.611 5.03461 62.4135 8.01543 61.8455 12.5604L61.8305 12.6637H61.7558C60.6196 12.6637 59.3639 13.9328 59.1546 15.5413L59.0799 16.1315H61.4119L59.4536 32.0981L58.8556 34.9608C58.9304 34.9608 59.0201 34.9756 59.0948 34.9756C62.3687 34.8575 64.4615 32.3047 64.925 28.6008L66.4498 16.1315H67.5411C68.6174 16.1315 69.8731 15.069 70.0973 13.2983L70.202 12.6637ZM88.3203 12.3686C84.299 12.3686 80.5019 15.2904 79.3359 19.8797C78.1698 24.4689 79.9338 29.8993 85.8537 29.8993C91.7585 29.8993 95.1669 24.2476 95.1669 19.5403C95.1669 14.8625 91.9529 12.3686 88.3203 12.3686ZM89.9497 20.8979C89.7404 22.9785 88.8136 26.1364 86.2722 26.1364C83.7159 26.1364 84.0747 22.4473 84.3289 20.6913C84.5979 18.8172 85.6593 16.1463 87.9465 16.1463C89.9946 16.1463 90.1889 18.5516 89.9497 20.8979ZM115.034 17.6367C115.034 17.6367 113.016 23.8934 112.852 24.4099C112.792 23.8787 111.312 12.649 111.312 12.649C107.874 12.649 106.035 15.069 105.063 17.6219C105.063 17.6219 102.612 23.8934 102.402 24.4247C102.387 23.9377 102.029 17.6957 102.029 17.6957C101.819 14.5673 98.9192 12.6637 96.5722 12.6637L99.3975 29.678C103 29.6632 104.944 27.2579 105.96 24.705C105.96 24.705 108.128 19.1714 108.203 18.9205C108.232 19.1566 109.757 29.678 109.757 29.678C113.375 29.678 115.318 27.4202 116.365 24.9559L121.432 12.6637C117.875 12.6637 115.991 15.069 115.034 17.6367ZM73.4908 5.07888L70.5608 28.4089L69.9628 31.2865C70.0376 31.2865 70.1272 31.3012 70.202 31.3012C73.3562 31.2569 75.5986 28.527 76.0172 25.0887L77.7064 11.7046C78.2147 7.617 75.7481 5.07888 73.4908 5.07888Z" fill="black"/>
</g>
<defs>
<clipPath id="clip0_1743_20395">
<rect width="121" height="40" fill="white" transform="translate(0.599121 0.000244141)"/>
</clipPath>
</defs>
</svg>
