<svg width="184" height="40" viewBox="0 0 184 40" fill="none" xmlns="http://www.w3.org/2000/svg">
<path d="M104.73 27.8541H104.438C102.937 27.8541 102.729 27.484 102.729 25.5929V16.6721H104.73C109.066 16.6721 109.858 19.7961 109.858 22.2218C109.858 24.7296 109.066 27.8541 104.73 27.8541ZM87.1362 22.1393V16.6721H88.8454C90.7214 16.6721 91.5555 17.9462 91.5555 19.4262C91.5555 20.8652 90.7214 22.1393 88.8454 22.1393H87.1362ZM104.605 15.4389H97.1419V16.2195C99.4765 16.2195 99.8516 16.7129 99.8516 19.632V24.8942C99.8516 27.8128 99.4765 28.3473 97.1419 28.3473C95.3496 28.1007 94.1402 27.155 92.4724 25.3462L90.5549 23.2909C93.1395 22.8384 94.5154 21.2352 94.5154 19.4262C94.5154 17.1654 92.5561 15.4389 88.8871 15.4389H81.5493V16.2195C83.8839 16.2195 84.259 16.7129 84.259 19.632V24.8942C84.259 27.8128 83.8839 28.3473 81.5493 28.3473V29.1282H89.8458V28.3473C87.5114 28.3473 87.1362 27.8128 87.1362 24.8942V23.4143H87.8447L92.4724 29.1282H104.605C110.567 29.1282 113.152 26.0042 113.152 22.2626C113.152 18.522 110.567 15.4389 104.605 15.4389Z" fill="#32373C"/>
<path d="M58.3276 23.661L61.2043 15.2738C62.0384 12.8486 61.6631 12.1498 58.9948 12.1498V11.3273H66.833V12.1498C64.2064 12.1498 63.5811 12.7665 62.5387 15.7675L57.7854 29.8273H57.2437L52.9909 16.9596L48.6552 29.8273H48.113L43.4855 15.7675C42.4848 12.7665 41.8176 12.1498 39.3994 12.1498V11.3273H48.6552V12.1498C46.1951 12.1498 45.528 12.7252 46.4039 15.2738L49.1968 23.661L53.4079 11.3273H54.2002L58.3276 23.661Z" fill="#32373C"/>
<path d="M72.5024 16.1788C68.6671 16.1788 67.3327 19.5907 67.3327 22.2626C67.3327 24.9763 68.6671 28.3474 72.5024 28.3474C76.3802 28.3474 77.7141 24.9763 77.7141 22.2626C77.7141 19.5907 76.3802 16.1788 72.5024 16.1788ZM72.5024 29.6627C67.9167 29.6627 64.1641 26.3329 64.1641 22.2626C64.1641 18.2341 67.9167 14.9038 72.5024 14.9038C77.0887 14.9038 80.8409 18.2341 80.8409 22.2626C80.8409 26.3329 77.0887 29.6627 72.5024 29.6627Z" fill="#32373C"/>
<path d="M122.531 12.8072H120.155V19.9607H122.531C124.866 19.9607 125.95 18.3573 125.95 16.4254C125.95 14.4522 124.866 12.8072 122.531 12.8072ZM123.449 28.306V29.1281H113.901V28.306C116.695 28.306 117.195 27.6074 117.195 23.4958V16.9186C117.195 12.8072 116.695 12.1498 113.901 12.1498V11.3272H122.531C126.826 11.3272 129.202 13.5064 129.202 16.4254C129.202 19.262 126.826 21.4819 122.531 21.4819H120.155V23.4958C120.155 27.6074 120.655 28.306 123.449 28.306Z" fill="#32373C"/>
<path d="M135.748 22.1393V16.6721H137.457C139.333 16.6721 140.167 17.9462 140.167 19.4262C140.167 20.8652 139.333 22.1393 137.457 22.1393H135.748ZM157.844 25.2643L157.635 26.0042C157.26 27.3608 156.801 27.8541 153.841 27.8541H153.258C151.09 27.8541 150.715 27.3608 150.715 24.4417V22.551C153.967 22.551 154.217 22.8384 154.217 24.9763H155.009V18.8507H154.217C154.217 20.9885 153.967 21.276 150.715 21.276V16.6721H153.007C155.968 16.6721 156.426 17.1654 156.801 18.522L157.01 19.3027H157.677L157.385 15.4389H145.128V16.2197C147.462 16.2197 147.838 16.7129 147.838 19.632V24.8942C147.838 27.5643 147.519 28.2369 145.678 28.3327C143.929 28.0694 142.727 27.1283 141.084 25.3462L139.166 23.2909C141.751 22.8384 143.127 21.2352 143.127 19.4262C143.127 17.1654 141.168 15.4389 137.499 15.4389H130.161V16.2197C132.496 16.2197 132.871 16.7129 132.871 19.632V24.8942C132.871 27.8128 132.496 28.3473 130.161 28.3473V29.1282H138.458V28.3473C136.123 28.3473 135.748 27.8128 135.748 24.8942V23.4143H136.457L141.084 29.1282H158.219L158.469 25.2643H157.844Z" fill="#32373C"/>
<path d="M166.307 29.6627C164.64 29.6627 163.18 28.7995 162.555 28.2648C162.346 28.4707 161.971 29.0874 161.888 29.6627H161.096V23.9896H161.929C162.263 26.7029 164.181 28.3061 166.641 28.3061C167.975 28.3061 169.059 27.5662 169.059 26.3329C169.059 25.2642 168.1 24.4416 166.391 23.6609L164.014 22.5509C162.346 21.7693 161.096 20.4127 161.096 18.6041C161.096 16.6309 162.972 14.9455 165.557 14.9455C166.933 14.9455 168.1 15.4388 168.809 16.0142C169.017 15.8496 169.225 15.397 169.351 14.9038H170.143V19.7553H169.267C168.975 17.8229 167.891 16.2196 165.682 16.2196C164.514 16.2196 163.43 16.8775 163.43 17.9054C163.43 18.9741 164.306 19.5494 166.307 20.454L168.6 21.5639C170.602 22.5092 171.393 24.0309 171.393 25.2642C171.393 27.8541 169.1 29.6627 166.307 29.6627Z" fill="#32373C"/>
<path d="M178.914 29.6627C177.246 29.6627 175.787 28.7995 175.161 28.2648C174.953 28.4707 174.578 29.0874 174.494 29.6627H173.702V23.9896H174.536C174.87 26.7029 176.787 28.3061 179.247 28.3061C180.581 28.3061 181.665 27.5662 181.665 26.3329C181.665 25.2642 180.706 24.4416 178.997 23.6609L176.621 22.5509C174.953 21.7693 173.702 20.4127 173.702 18.6041C173.702 16.6309 175.578 14.9455 178.163 14.9455C179.539 14.9455 180.706 15.4388 181.415 16.0142C181.624 15.8496 181.832 15.397 181.957 14.9038H182.749V19.7553H181.874C181.582 17.8229 180.498 16.2196 178.289 16.2196C177.121 16.2196 176.037 16.8775 176.037 17.9054C176.037 18.9741 176.912 19.5494 178.914 20.454L181.207 21.5639C183.208 22.5092 184 24.0309 184 25.2642C184 27.8541 181.707 29.6627 178.914 29.6627Z" fill="#32373C"/>
<path d="M18.7618 1.70728C8.39991 1.70728 0 9.99002 0 20.2073C0 30.4245 8.39991 38.7073 18.7618 38.7073C29.1236 38.7073 37.5235 30.4245 37.5235 20.2073C37.5235 9.99002 29.1236 1.70728 18.7618 1.70728ZM18.7618 2.81722C21.1431 2.81722 23.4527 3.27696 25.6261 4.18345C26.671 4.61918 27.6787 5.15849 28.6214 5.78654C29.5556 6.40881 30.434 7.12352 31.2324 7.91071C32.0307 8.6979 32.7554 9.56411 33.3865 10.4851C34.0234 11.4148 34.5704 12.4085 35.0123 13.4386C35.9317 15.5819 36.3978 17.8592 36.3978 20.2073C36.3978 22.5554 35.9317 24.8327 35.0123 26.9759C34.5704 28.0061 34.0234 28.9998 33.3865 29.9294C32.7554 30.8504 32.0307 31.7167 31.2324 32.5038C30.434 33.291 29.5556 34.0057 28.6214 34.628C27.6787 35.2561 26.671 35.7954 25.6261 36.2311C23.4527 37.1376 21.1431 37.5973 18.7618 37.5973C16.3804 37.5973 14.0709 37.1376 11.8974 36.2311C10.8527 35.7954 9.84481 35.2561 8.90213 34.628C7.96799 34.0057 7.08952 33.291 6.29119 32.5038C5.49287 31.7167 4.76815 30.8504 4.13708 29.9294C3.50015 28.9998 2.9531 28.0061 2.51121 26.9759C1.59189 24.8327 1.12576 22.5554 1.12576 20.2073C1.12576 17.8592 1.59189 15.5819 2.51121 13.4386C2.9531 12.4085 3.50015 11.4148 4.13708 10.4851C4.76815 9.56411 5.49287 8.6979 6.29119 7.91071C7.08952 7.12352 7.96799 6.40881 8.90213 5.78654C9.84481 5.15849 10.8527 4.61918 11.8974 4.18345C14.0709 3.27696 16.3804 2.81722 18.7618 2.81722Z" fill="#32373C"/>
<path d="M32.4817 12.8109C32.5488 13.3019 32.5869 13.8286 32.5869 14.3961C32.5869 15.9599 32.2896 17.7185 31.3976 19.9178L26.6223 33.5317C31.2706 30.8596 34.3965 25.8942 34.3965 20.2067C34.3965 17.5263 33.7018 15.0066 32.4817 12.8109ZM19.0364 21.5551L14.3447 34.9957C15.7459 35.4022 17.2271 35.6239 18.7617 35.6239C20.5824 35.6239 22.329 35.314 23.9539 34.7498C23.9121 34.6839 23.8736 34.6138 23.8417 34.5374L19.0364 21.5551ZM29.3164 19.4292C29.3164 17.5232 28.6221 16.2041 28.0276 15.1776C27.2349 13.9071 26.4917 12.8322 26.4917 11.5618C26.4917 10.1448 27.5815 8.82572 29.1173 8.82572C29.1867 8.82572 29.2523 8.8339 29.3197 8.83816C26.5381 6.32498 22.8319 4.79055 18.7617 4.79055C13.2993 4.79055 8.49407 7.55423 5.69838 11.739C6.06555 11.7505 6.41136 11.7577 6.70459 11.7577C8.33965 11.7577 10.8717 11.5618 10.8717 11.5618C11.714 11.5131 11.8137 12.7341 10.9716 12.8322C10.9716 12.8322 10.1244 12.9301 9.18236 12.9787L14.8756 29.6777L18.2976 19.5595L15.8619 12.9787C15.0195 12.9301 14.222 12.8322 14.222 12.8322C13.3792 12.7832 13.478 11.5131 14.3212 11.5618C14.3212 11.5618 16.9026 11.7577 18.4388 11.7577C20.0738 11.7577 22.6063 11.5618 22.6063 11.5618C23.4491 11.5131 23.5482 12.7341 22.7059 12.8322C22.7059 12.8322 21.8578 12.9301 20.9166 12.9787L26.5669 29.5506L28.1798 24.5111C28.8963 22.3087 29.3164 20.7483 29.3164 19.4292ZM3.12695 20.2067C3.12695 26.3086 6.72296 31.5824 11.939 34.0811L4.48074 13.9326C3.61323 15.8498 3.12695 17.9716 3.12695 20.2067Z" fill="#32373C"/>
</svg>
