<svg width="257" height="220" viewBox="0 0 257 220" fill="none" xmlns="http://www.w3.org/2000/svg">
<g clip-path="url(#clip0_2901_36715)">
<path d="M230.394 192.076H213.435V192.204H230.394V192.076Z" fill="#F2F3F7"/>
<path d="M169.629 193.471H165.178V193.599H169.629V193.471Z" fill="#F2F3F7"/>
<path d="M212.923 187.303H203.096V187.431H212.923V187.303Z" fill="#F2F3F7"/>
<path d="M49.0181 188.166H26.9033V188.295H49.0181V188.166Z" fill="#F2F3F7"/>
<path d="M56.8196 188.166H53.5771V188.295H56.8196V188.166Z" fill="#F2F3F7"/>
<path d="M115.32 190.337H67.3574V190.465H115.32V190.337Z" fill="#F2F3F7"/>
<path d="M121.396 160.879H22.5289C20.9177 160.879 19.6064 159.563 19.6064 157.945V18.4293C19.6064 16.8117 20.9177 15.4954 22.5289 15.4954H121.396C123.006 15.4954 124.318 16.8117 124.318 18.4293V157.945C124.318 159.563 123.006 160.879 121.396 160.879ZM22.5289 15.6244C20.9878 15.6244 19.7344 16.8826 19.7344 18.4298V157.946C19.7344 159.493 20.9878 160.751 22.5289 160.751H121.396C122.936 160.751 124.19 159.493 124.19 157.946V18.4293C124.19 16.8826 122.936 15.6239 121.396 15.6239L22.5289 15.6244Z" fill="#F2F3F7"/>
<path d="M232.139 160.879H133.273C131.662 160.879 130.351 159.563 130.351 157.945V18.4293C130.351 16.8117 131.662 15.4954 133.273 15.4954H232.139C233.751 15.4954 235.062 16.8117 235.062 18.4293V157.945C235.062 159.563 233.751 160.879 232.139 160.879ZM133.273 15.6244C131.732 15.6244 130.479 16.8826 130.479 18.4298V157.946C130.479 159.493 131.732 160.751 133.273 160.751H232.139C233.68 160.751 234.934 159.493 234.934 157.946V18.4293C234.934 16.8826 233.68 15.6239 232.139 15.6239L133.273 15.6244Z" fill="#F2F3F7"/>
<path d="M256.044 183.803H0.0444336V183.931H256.044V183.803Z" fill="#F2F3F7"/>
<path d="M40.9898 50.7886H40.1445V116.947H40.9898V50.7886Z" fill="#DBDEE7"/>
<path d="M93.5958 50.7886H92.7505V116.947H93.5958V50.7886Z" fill="#DBDEE7"/>
<path d="M96.906 54.948H36.8346L35.5669 51.9786H98.1732L96.906 54.948Z" fill="#F2F3F7"/>
<path d="M96.906 59.0245H36.8346L35.5669 56.0551H98.1732L96.906 59.0245Z" fill="#F2F3F7"/>
<path d="M96.906 63.101H36.8346L35.5669 60.1321H98.1732L96.906 63.101Z" fill="#F2F3F7"/>
<path d="M96.906 67.1781H36.8346L35.5669 64.2087H98.1732L96.906 67.1781Z" fill="#F2F3F7"/>
<path d="M96.906 71.2546H36.8346L35.5669 68.2852H98.1732L96.906 71.2546Z" fill="#F2F3F7"/>
<path d="M96.906 75.3311H36.8346L35.5669 72.3618H98.1732L96.906 75.3311Z" fill="#F2F3F7"/>
<path d="M96.906 79.4082H36.8346L35.5669 76.4388H98.1732L96.906 79.4082Z" fill="#F2F3F7"/>
<path d="M96.906 83.4847H36.8346L35.5669 80.5153H98.1732L96.906 83.4847Z" fill="#F2F3F7"/>
<path d="M96.906 87.5612H36.8346L35.5669 84.5919H98.1732L96.906 87.5612Z" fill="#F2F3F7"/>
<path d="M96.906 91.6378H36.8346L35.5669 88.6684H98.1732L96.906 91.6378Z" fill="#F2F3F7"/>
<path d="M96.906 95.7143H36.8346L35.5669 92.7449H98.1732L96.906 95.7143Z" fill="#F2F3F7"/>
<path d="M96.906 99.7913H36.8346L35.5669 96.822H98.1732L96.906 99.7913Z" fill="#F2F3F7"/>
<path d="M96.906 103.868H36.8346L35.5669 100.898H98.1732L96.906 103.868Z" fill="#F2F3F7"/>
<path d="M96.906 107.944H36.8346L35.5669 104.975H98.1732L96.906 107.944Z" fill="#F2F3F7"/>
<path d="M96.906 112.021H36.8346L35.5669 109.052H98.1732L96.906 112.021Z" fill="#F2F3F7"/>
<path d="M96.906 116.098H36.8346L35.5669 113.129H98.1732L96.906 116.098Z" fill="#F2F3F7"/>
<path d="M98.1732 116.098H35.5669V117.795H98.1732V116.098Z" fill="#DBDEE7"/>
<path d="M100.356 48.2598H33.3838V52.2191H100.356V48.2598Z" fill="#DBDEE7"/>
<path d="M34.0716 88.1148C33.6953 88.1148 33.3901 87.8085 33.3901 87.4307V64.3387C33.3901 63.9609 33.6953 63.6546 34.0716 63.6546C34.4479 63.6546 34.7531 63.9609 34.7531 64.3387V87.4307C34.7531 87.8085 34.4479 88.1148 34.0716 88.1148Z" fill="#DBDEE7"/>
<path d="M34.3183 51.425H33.8252V65.1395H34.3183V51.425Z" fill="#DBDEE7"/>
<path d="M164.493 50.7886H163.648V116.947H164.493V50.7886Z" fill="#DBDEE7"/>
<path d="M217.1 50.7886H216.254V116.947H217.1V50.7886Z" fill="#DBDEE7"/>
<path d="M220.409 54.948H160.338L159.071 51.9786H221.677L220.409 54.948Z" fill="#F2F3F7"/>
<path d="M220.409 59.0245H160.338L159.071 56.0551H221.677L220.409 59.0245Z" fill="#F2F3F7"/>
<path d="M220.409 63.101H160.338L159.071 60.1321H221.677L220.409 63.101Z" fill="#F2F3F7"/>
<path d="M220.409 67.1781H160.338L159.071 64.2087H221.677L220.409 67.1781Z" fill="#F2F3F7"/>
<path d="M220.409 71.2546H160.338L159.071 68.2852H221.677L220.409 71.2546Z" fill="#F2F3F7"/>
<path d="M220.409 75.3311H160.338L159.071 72.3618H221.677L220.409 75.3311Z" fill="#F2F3F7"/>
<path d="M220.409 79.4082H160.338L159.071 76.4388H221.677L220.409 79.4082Z" fill="#F2F3F7"/>
<path d="M220.409 83.4847H160.338L159.071 80.5153H221.677L220.409 83.4847Z" fill="#F2F3F7"/>
<path d="M220.409 87.5612H160.338L159.071 84.5919H221.677L220.409 87.5612Z" fill="#F2F3F7"/>
<path d="M220.409 91.6378H160.338L159.071 88.6684H221.677L220.409 91.6378Z" fill="#F2F3F7"/>
<path d="M220.409 95.7143H160.338L159.071 92.7449H221.677L220.409 95.7143Z" fill="#F2F3F7"/>
<path d="M220.409 99.7913H160.338L159.071 96.822H221.677L220.409 99.7913Z" fill="#F2F3F7"/>
<path d="M220.409 103.868H160.338L159.071 100.898H221.677L220.409 103.868Z" fill="#F2F3F7"/>
<path d="M220.409 107.944H160.338L159.071 104.975H221.677L220.409 107.944Z" fill="#F2F3F7"/>
<path d="M220.409 112.021H160.338L159.071 109.052H221.677L220.409 112.021Z" fill="#F2F3F7"/>
<path d="M220.409 116.098H160.338L159.071 113.129H221.677L220.409 116.098Z" fill="#F2F3F7"/>
<path d="M221.677 116.098H159.071V117.795H221.677V116.098Z" fill="#DBDEE7"/>
<path d="M223.86 48.2598H156.888V52.2191H223.86V48.2598Z" fill="#DBDEE7"/>
<path d="M157.576 88.1148C157.199 88.1148 156.894 87.8085 156.894 87.4307V64.3387C156.894 63.9609 157.199 63.6546 157.576 63.6546C157.952 63.6546 158.257 63.9609 158.257 64.3387V87.4307C158.257 87.8085 157.952 88.1148 157.576 88.1148Z" fill="#DBDEE7"/>
<path d="M157.822 51.425H157.329V65.1395H157.822V51.425Z" fill="#DBDEE7"/>
<path d="M199.551 41.2792H56.5376V122.49H199.551V41.2792Z" fill="#DBDEE7"/>
<path d="M200.293 124.47H55.7957C55.3324 124.47 54.9565 124.093 54.9565 123.628V121.919C54.9565 121.453 55.3324 121.076 55.7957 121.076H200.293C200.757 121.076 201.133 121.453 201.133 121.919V123.628C201.133 124.093 200.757 124.47 200.293 124.47Z" fill="#F2F3F7"/>
<path d="M196.267 43.7464H59.8223V121.849H196.267V43.7464Z" fill="#F9FAFF"/>
<path d="M135.557 136.378C133.309 133.895 131.06 131.411 128.813 128.927C128.813 127.442 128.813 125.956 128.813 124.47C128.813 123.378 127.277 123.376 127.277 124.47C127.277 125.956 127.277 127.442 127.277 128.927C125.029 131.411 122.78 133.894 120.532 136.378C119.832 137.151 120.918 138.352 121.618 137.579C123.504 135.495 125.39 133.411 127.276 131.327C127.276 133.19 127.276 135.053 127.276 136.916C127.276 138.007 128.812 138.009 128.812 136.916C128.812 135.053 128.812 133.19 128.812 131.327C130.698 133.411 132.584 135.495 134.47 137.579C135.171 138.351 136.257 137.152 135.557 136.378Z" fill="#DBDEE7"/>
<path d="M95.7117 138.087H35.2676V159.032H95.7117V138.087Z" fill="#F2F3F7"/>
<path d="M95.7117 159.032H35.2676V179.978H95.7117V159.032Z" fill="#F2F3F7"/>
<path d="M95.7119 141.308V139.189H35.2677V141.308H95.7119Z" fill="#DBDEE7"/>
<path d="M95.7119 162.09V159.971H35.2677V162.09H95.7119Z" fill="#DBDEE7"/>
<path d="M67.0363 151.241C67.5371 151.241 67.9431 150.833 67.9431 150.33C67.9431 149.828 67.5371 149.42 67.0363 149.42C66.7824 149.42 64.1978 149.42 63.9439 149.42C63.4431 149.42 63.0371 149.828 63.0371 150.33C63.0371 150.833 63.4431 151.241 63.9439 151.241C64.2178 151.241 66.7619 151.241 67.0363 151.241Z" fill="#DBDEE7"/>
<path d="M67.0363 150.92C67.5371 150.92 67.9431 150.512 67.9431 150.01C67.9431 149.507 67.5371 149.099 67.0363 149.099C66.7824 149.099 64.1978 149.099 63.9439 149.099C63.4431 149.099 63.0371 149.507 63.0371 150.01C63.0371 150.512 63.4431 150.92 63.9439 150.92C64.2178 150.92 66.7619 150.92 67.0363 150.92Z" fill="#F2F3F7"/>
<path d="M67.0363 170.576C67.5371 170.576 67.9431 170.168 67.9431 169.666C67.9431 169.163 67.5371 168.755 67.0363 168.755C66.7824 168.755 64.1978 168.755 63.9439 168.755C63.4431 168.755 63.0371 169.163 63.0371 169.666C63.0371 170.168 63.4431 170.576 63.9439 170.576C64.2178 170.576 66.7619 170.576 67.0363 170.576Z" fill="#DBDEE7"/>
<path d="M67.0363 170.255C67.5371 170.255 67.9431 169.847 67.9431 169.345C67.9431 168.842 67.5371 168.435 67.0363 168.435C66.7824 168.435 64.1978 168.435 63.9439 168.435C63.4431 168.435 63.0371 168.842 63.0371 169.345C63.0371 169.847 63.4431 170.255 63.9439 170.255C64.2178 170.255 66.7619 170.255 67.0363 170.255Z" fill="#F2F3F7"/>
<path d="M34.2124 137.148V180.893H35.2676H36.3234H94.6566H95.7118H96.767V137.148H34.2124ZM94.6566 178.774H36.3234V160.14H94.6566V178.774ZM94.6566 158.021H36.3234V139.386H94.6566V158.021Z" fill="#F2F3F7"/>
<path d="M158.267 138.087H97.8228V159.032H158.267V138.087Z" fill="#F2F3F7"/>
<path d="M158.267 159.032H97.8228V179.978H158.267V159.032Z" fill="#F2F3F7"/>
<path d="M158.267 141.308V139.189H97.8229V141.308H158.267Z" fill="#DBDEE7"/>
<path d="M158.267 162.09V159.971H97.8229V162.09H158.267Z" fill="#DBDEE7"/>
<path d="M129.591 151.241C130.092 151.241 130.498 150.833 130.498 150.33C130.498 149.828 130.092 149.42 129.591 149.42C129.337 149.42 126.752 149.42 126.499 149.42C125.998 149.42 125.592 149.828 125.592 150.33C125.592 150.833 125.998 151.241 126.499 151.241C126.773 151.241 129.317 151.241 129.591 151.241Z" fill="#DBDEE7"/>
<path d="M129.591 150.92C130.092 150.92 130.498 150.512 130.498 150.01C130.498 149.507 130.092 149.099 129.591 149.099C129.337 149.099 126.752 149.099 126.499 149.099C125.998 149.099 125.592 149.507 125.592 150.01C125.592 150.512 125.998 150.92 126.499 150.92C126.773 150.92 129.317 150.92 129.591 150.92Z" fill="#F2F3F7"/>
<path d="M129.591 170.576C130.092 170.576 130.498 170.168 130.498 169.666C130.498 169.163 130.092 168.755 129.591 168.755C129.337 168.755 126.752 168.755 126.499 168.755C125.998 168.755 125.592 169.163 125.592 169.666C125.592 170.168 125.998 170.576 126.499 170.576C126.773 170.576 129.317 170.576 129.591 170.576Z" fill="#DBDEE7"/>
<path d="M129.591 170.255C130.092 170.255 130.498 169.847 130.498 169.345C130.498 168.842 130.092 168.435 129.591 168.435C129.337 168.435 126.752 168.435 126.499 168.435C125.998 168.435 125.592 168.842 125.592 169.345C125.592 169.847 125.998 170.255 126.499 170.255C126.773 170.255 129.317 170.255 129.591 170.255Z" fill="#F2F3F7"/>
<path d="M96.7676 137.148V180.893H97.8228H98.878H157.211H158.266H159.322V137.148H96.7676ZM157.212 178.774H98.8786V160.14H157.212V178.774ZM157.212 158.021H98.8786V139.386H157.212V158.021Z" fill="#F2F3F7"/>
<path d="M220.822 138.087H160.377V159.032H220.822V138.087Z" fill="#F2F3F7"/>
<path d="M220.822 159.032H160.377V179.978H220.822V159.032Z" fill="#F2F3F7"/>
<path d="M220.821 141.308V139.189H160.377V141.308H220.821Z" fill="#DBDEE7"/>
<path d="M220.822 162.09V159.971H160.378V162.09H220.822Z" fill="#DBDEE7"/>
<path d="M192.146 151.241C192.646 151.241 193.052 150.833 193.052 150.33C193.052 149.828 192.646 149.42 192.146 149.42C191.892 149.42 189.307 149.42 189.053 149.42C188.553 149.42 188.146 149.828 188.146 150.33C188.146 150.833 188.553 151.241 189.053 151.241C189.328 151.241 191.872 151.241 192.146 151.241Z" fill="#DBDEE7"/>
<path d="M192.146 150.92C192.646 150.92 193.052 150.512 193.052 150.01C193.052 149.507 192.646 149.099 192.146 149.099C191.892 149.099 189.307 149.099 189.053 149.099C188.553 149.099 188.146 149.507 188.146 150.01C188.146 150.512 188.553 150.92 189.053 150.92C189.328 150.92 191.872 150.92 192.146 150.92Z" fill="#F2F3F7"/>
<path d="M192.146 170.576C192.646 170.576 193.052 170.168 193.052 169.666C193.052 169.163 192.646 168.755 192.146 168.755C191.892 168.755 189.307 168.755 189.053 168.755C188.553 168.755 188.146 169.163 188.146 169.666C188.146 170.168 188.553 170.576 189.053 170.576C189.328 170.576 191.872 170.576 192.146 170.576Z" fill="#DBDEE7"/>
<path d="M192.146 170.255C192.646 170.255 193.052 169.847 193.052 169.345C193.052 168.842 192.646 168.435 192.146 168.435C191.892 168.435 189.307 168.435 189.053 168.435C188.553 168.435 188.146 168.842 188.146 169.345C188.146 169.847 188.553 170.255 189.053 170.255C189.328 170.255 191.872 170.255 192.146 170.255Z" fill="#F2F3F7"/>
<path d="M159.322 137.148V180.893H160.377H161.432H219.765H220.821H221.876V137.148H159.322ZM219.766 178.774H161.433V160.14H219.766V178.774ZM219.766 158.021H161.433V139.386H219.766V158.021Z" fill="#F2F3F7"/>
<path d="M215.829 184.045H40.2601L39.3462 180.893H216.743L215.829 184.045Z" fill="#DBDEE7"/>
<path d="M128.045 205.039C182.871 205.039 227.316 202.434 227.316 199.219C227.316 196.005 182.871 193.399 128.045 193.399C73.2187 193.399 28.7734 196.005 28.7734 199.219C28.7734 202.434 73.2187 205.039 128.045 205.039Z" fill="#F2F3F7"/>
<path d="M68.0097 110.613H181.663C184.762 110.613 187.054 108.091 186.783 104.981L180.674 34.8875C180.403 31.7768 177.672 29.2556 174.573 29.2556H60.9195C57.8214 29.2556 55.5292 31.7773 55.8001 34.8875L61.9087 104.981C62.1796 108.091 64.9111 110.613 68.0097 110.613Z" fill="#1E1F24"/>
<path opacity="0.7" d="M68.0097 110.613H181.663C184.762 110.613 187.054 108.091 186.783 104.981L180.674 34.8875C180.403 31.7768 177.672 29.2556 174.573 29.2556H60.9195C57.8214 29.2556 55.5292 31.7773 55.8001 34.8875L61.9087 104.981C62.1796 108.091 64.9111 110.613 68.0097 110.613Z" fill="white"/>
<path d="M68.131 103.439H178.962L172.815 32.9061H61.9839L68.131 103.439Z" fill="#2C68FF"/>
<path d="M69.6557 108.96H183.309C186.408 108.96 188.7 106.438 188.429 103.328L182.32 33.235C182.049 30.1243 179.318 27.6031 176.219 27.6031H62.5655C59.4674 27.6031 57.1752 30.1248 57.446 33.235L63.5547 103.328C63.8256 106.438 66.5576 108.96 69.6557 108.96Z" fill="#2C68FF"/>
<path d="M68.131 103.439H178.962L172.815 32.9061H61.9839L68.131 103.439Z" fill="#2C68FF"/>
<path opacity="0.4" d="M68.131 103.548H178.962L172.815 33.015H61.9839L68.131 103.548Z" fill="white"/>
<path d="M173.369 39.3691H62.5379L61.9839 33.015H172.815L173.369 39.3691Z" fill="#2C68FF"/>
<path opacity="0.5" d="M173.369 39.3691H62.5379L61.9839 33.015H172.815L173.369 39.3691Z" fill="#1E1F24"/>
<path d="M66.6658 35.629L66.7155 36.2H67.7103L67.7451 36.6009H66.7503L66.8189 37.3879H66.3212L66.1328 35.2275H67.7569L67.7917 35.629H66.6658Z" fill="white"/>
<path d="M68.0339 36.3077C67.9781 35.6657 68.4338 35.1902 69.1127 35.1902C69.788 35.1902 70.3297 35.6626 70.386 36.3077C70.4424 36.9528 69.9831 37.4246 69.3073 37.4246C68.6289 37.4251 68.0897 36.9497 68.0339 36.3077ZM69.8822 36.3077C69.8464 35.897 69.5336 35.6164 69.1496 35.6164C68.7656 35.6164 68.5014 35.897 68.5372 36.3077C68.573 36.7179 68.8864 36.999 69.2699 36.999C69.6539 36.9995 69.9181 36.7184 69.8822 36.3077Z" fill="white"/>
<path d="M72.225 37.388L71.7581 36.7861H71.7335H71.3004L71.3526 37.388H70.8549L70.6665 35.2277H71.5968C72.1708 35.2277 72.5563 35.5273 72.5988 36.0115C72.627 36.3353 72.4846 36.5728 72.2158 36.6936L72.7585 37.388H72.225ZM71.6055 35.6347H71.2L71.2655 36.3878H71.6711C71.9752 36.3878 72.116 36.2459 72.096 36.0115C72.0755 35.7735 71.9096 35.6347 71.6055 35.6347Z" fill="white"/>
<path d="M75.0691 37.388L74.9529 36.0917L74.4137 37.1598H74.1895L73.4691 36.1199L73.5797 37.3885H73.1127L72.9243 35.2281H73.336L74.2576 36.5707L74.9324 35.2281H75.341L75.535 37.3885L75.0691 37.388Z" fill="white"/>
<path d="M69.7994 44.4043L69.8408 44.8797H70.6713L70.7005 45.2138H69.8705L69.9274 45.8692H69.5121L69.3555 44.0696H70.7112L70.7404 44.4037L69.7994 44.4043Z" fill="#2C68FF"/>
<path d="M70.889 44.0701C70.8783 43.9442 70.9694 43.8466 71.1179 43.8466C71.2669 43.8466 71.3749 43.9391 71.3857 44.0624C71.3975 44.1961 71.3058 44.2943 71.1573 44.2943C71.0083 44.2937 70.8998 44.1961 70.889 44.0701ZM70.974 44.4865H71.3739L71.4942 45.8691H71.0944L70.974 44.4865Z" fill="#2C68FF"/>
<path d="M72.5986 44.4659L72.6309 44.836C72.5976 44.8335 72.5715 44.8309 72.5408 44.8309C72.3201 44.8309 72.1849 44.9517 72.208 45.2164L72.2648 45.8692H71.8649L71.7446 44.4865H72.1266L72.1424 44.669C72.228 44.5353 72.3862 44.4659 72.5986 44.4659Z" fill="#2C68FF"/>
<path d="M72.8184 45.7407L72.9264 45.4528C73.0564 45.5325 73.2479 45.5865 73.4174 45.5865C73.6017 45.5865 73.6667 45.5376 73.6601 45.4605C73.6406 45.2344 72.8276 45.4657 72.78 44.9131C72.7569 44.651 72.9766 44.4659 73.379 44.4659C73.5684 44.4659 73.7825 44.5096 73.9197 44.5867L73.8111 44.872C73.6688 44.7949 73.5311 44.7692 73.4056 44.7692C73.2259 44.7692 73.1537 44.8257 73.1604 44.8977C73.1809 45.1341 73.9939 44.9054 74.0415 45.4503C74.0641 45.7073 73.8413 45.8897 73.4287 45.8897C73.1957 45.8897 72.954 45.8255 72.8184 45.7407Z" fill="#2C68FF"/>
<path d="M75.2054 45.8028C75.1286 45.862 75.0103 45.8897 74.8874 45.8897C74.5618 45.8897 74.358 45.7227 74.3293 45.3937L74.2797 44.8257H74.0667L74.04 44.5173H74.253L74.2233 44.1807H74.6232L74.6529 44.5173H74.9959L75.0226 44.8257H74.6795L74.7287 45.3886C74.7389 45.5068 74.8086 45.571 74.9161 45.571C74.975 45.571 75.0328 45.553 75.0733 45.5196L75.2054 45.8028Z" fill="#2C68FF"/>
<path d="M77.6763 44.0701L77.833 45.8696H77.492L76.5023 44.7769L76.5976 45.8696H76.1874L76.0308 44.0701H76.3738L77.3609 45.1629L77.2657 44.0701H77.6763Z" fill="#2C68FF"/>
<path d="M79.3794 45.0807L79.448 45.8696H79.0738L79.0589 45.6975C78.9959 45.8234 78.8577 45.8902 78.6555 45.8902C78.3324 45.8902 78.1245 45.7103 78.1035 45.4713C78.082 45.2272 78.2392 45.0575 78.6596 45.0575H78.9775C78.9627 44.8853 78.851 44.7851 78.636 44.7851C78.4901 44.7851 78.3431 44.8339 78.25 44.9136L78.082 44.6335C78.2239 44.5255 78.442 44.4664 78.6621 44.4664C79.0825 44.4659 79.3431 44.6612 79.3794 45.0807ZM79.0108 45.4322L78.9985 45.2909H78.7241C78.5372 45.2909 78.4839 45.3603 78.4921 45.4528C78.5008 45.553 78.5915 45.6198 78.7323 45.6198C78.8654 45.6204 78.9755 45.5582 79.0108 45.4322Z" fill="#2C68FF"/>
<path d="M82.0683 45.0776L82.1374 45.8692H81.7376L81.6741 45.1393C81.6546 44.9157 81.5455 44.8129 81.3848 44.8129C81.2051 44.8129 81.0899 44.9285 81.1114 45.1753L81.1718 45.8692H80.7719L80.7079 45.1393C80.6885 44.9157 80.585 44.8129 80.4181 44.8129C80.2415 44.8129 80.1258 44.9285 80.1473 45.1753L80.2077 45.8692H79.8078L79.6875 44.4865H80.0695L80.0833 44.6458C80.1754 44.5276 80.3239 44.4659 80.5006 44.4659C80.6926 44.4659 80.8631 44.541 80.9736 44.6921C81.0714 44.5513 81.2435 44.4659 81.4508 44.4659C81.779 44.4659 82.0314 44.6561 82.0683 45.0776Z" fill="#2C68FF"/>
<path d="M83.8014 45.2909H82.7584C82.8117 45.4631 82.9673 45.5684 83.1773 45.5684C83.3232 45.5684 83.4246 45.5248 83.5116 45.4348L83.744 45.6666C83.6288 45.8131 83.4435 45.8902 83.1947 45.8902C82.718 45.8902 82.3816 45.5895 82.3458 45.1783C82.3099 44.7645 82.5992 44.4664 83.0191 44.4664C83.424 44.4664 83.7604 44.7388 83.7988 45.184C83.8019 45.2138 83.8009 45.2575 83.8014 45.2909ZM82.7328 45.057H83.4118C83.3682 44.8823 83.2279 44.7692 83.0487 44.7692C82.8665 44.7692 82.7456 44.8802 82.7328 45.057Z" fill="#2C68FF"/>
<path d="M73.8671 79.8969L73.8963 80.231H72.5077L72.3511 78.4315H73.7063L73.7355 78.7656H72.7924L72.8262 79.1563H73.6587L73.6869 79.4801H72.8544L72.8907 79.8964L73.8671 79.8969Z" fill="#2C68FF"/>
<path d="M76.4574 79.4395L76.5266 80.2316H76.1267L76.0632 79.5017C76.0437 79.2781 75.9352 79.1753 75.7739 79.1753C75.5942 79.1753 75.479 79.291 75.5005 79.5377L75.5609 80.2321H75.1611L75.0971 79.5022C75.0776 79.2786 74.9742 79.1758 74.8078 79.1758C74.6306 79.1758 74.5154 79.2915 74.5369 79.5382L74.5973 80.2326H74.1975L74.0771 78.8494H74.4591L74.4729 79.0088C74.5651 78.8906 74.7136 78.8284 74.8902 78.8284C75.0822 78.8284 75.2532 78.9029 75.3633 79.0545C75.4611 78.9132 75.6331 78.8284 75.841 78.8284C76.1682 78.8279 76.4206 79.018 76.4574 79.4395Z" fill="#2C68FF"/>
<path d="M78.0337 79.442L78.1023 80.231H77.7286L77.7137 80.0583C77.6502 80.1848 77.5125 80.2516 77.3097 80.2516C76.9872 80.2516 76.7788 80.0717 76.7583 79.8327C76.7368 79.5885 76.894 79.4189 77.3144 79.4189H77.6323C77.6175 79.2467 77.5058 79.1465 77.2908 79.1465C77.1449 79.1465 76.9979 79.1958 76.9048 79.275L76.7368 78.9954C76.8786 78.8869 77.0968 78.8278 77.3169 78.8278C77.7362 78.8278 77.9969 79.0231 78.0337 79.442ZM77.6646 79.7941L77.6523 79.6528H77.3778C77.191 79.6528 77.1377 79.7222 77.1459 79.8142C77.1546 79.9144 77.2447 79.9817 77.386 79.9817C77.5192 79.9823 77.6292 79.9201 77.6646 79.7941Z" fill="#2C68FF"/>
<path d="M78.2567 78.4315C78.246 78.3056 78.3371 78.2079 78.4856 78.2079C78.6341 78.2079 78.7421 78.3005 78.7534 78.4233C78.7651 78.557 78.6735 78.6551 78.525 78.6551C78.376 78.6556 78.268 78.558 78.2567 78.4315ZM78.3417 78.8484H78.7416L78.8619 80.2316H78.462L78.3417 78.8484Z" fill="#2C68FF"/>
<path d="M79.0664 78.3236H79.4663L79.6327 80.2311H79.2328L79.0664 78.3236Z" fill="#2C68FF"/>
<path d="M71.5685 55.9066H70.736L70.6105 56.2921H70.1851L70.8276 54.4926H71.2377L72.1967 56.2921H71.761L71.5685 55.9066ZM71.4103 55.5905L71.0662 54.9017L70.842 55.5905H71.4103Z" fill="#2C68FF"/>
<path d="M73.5789 54.3846L73.7448 56.292H73.3633L73.3495 56.1327C73.2599 56.2535 73.1191 56.3126 72.9348 56.3126C72.5452 56.3126 72.2211 56.035 72.1832 55.6007C72.1453 55.1664 72.4207 54.8888 72.8104 54.8888C72.9793 54.8888 73.1278 54.9428 73.2374 55.0564L73.179 54.3851H73.5789V54.3846ZM73.2927 55.6002C73.2722 55.3612 73.1058 55.2173 72.9082 55.2173C72.708 55.2173 72.5672 55.3612 72.5877 55.6002C72.6086 55.8397 72.775 55.9831 72.9747 55.9831C73.1724 55.9836 73.3137 55.8397 73.2927 55.6002Z" fill="#2C68FF"/>
<path d="M75.3509 54.3846L75.5167 56.292H75.1353L75.1215 56.1327C75.0319 56.2535 74.8911 56.3126 74.7068 56.3126C74.3171 56.3126 73.9935 56.035 73.9551 55.6007C73.9173 55.1664 74.1927 54.8888 74.5823 54.8888C74.7513 54.8888 74.8998 54.9428 75.0093 55.0564L74.951 54.3851H75.3509V54.3846ZM75.0646 55.6002C75.0436 55.3612 74.8778 55.2173 74.6801 55.2173C74.4799 55.2173 74.3386 55.3612 74.3596 55.6002C74.3806 55.8397 74.547 55.9831 74.7467 55.9831C74.9443 55.9836 75.0856 55.8397 75.0646 55.6002Z" fill="#2C68FF"/>
<path d="M76.6172 54.8883L76.6495 55.2584C76.6162 55.2558 76.5901 55.2532 76.5593 55.2532C76.3387 55.2532 76.2035 55.3745 76.2265 55.6393L76.2834 56.292H75.884L75.7632 54.9094H76.1451L76.161 55.0919C76.2465 54.9577 76.4047 54.8883 76.6172 54.8883Z" fill="#2C68FF"/>
<path d="M78.2569 55.7138H77.214C77.2677 55.886 77.4229 55.9914 77.6328 55.9914C77.7787 55.9914 77.8796 55.9477 77.9671 55.8577L78.2001 56.0895C78.0849 56.236 77.8996 56.3131 77.6507 56.3131C77.1741 56.3131 76.8377 56.0124 76.8018 55.6012C76.766 55.1875 77.0553 54.8893 77.4751 54.8893C77.8796 54.8893 78.2165 55.1618 78.2549 55.6064C78.258 55.6367 78.2564 55.6804 78.2569 55.7138ZM77.1884 55.4799H77.8673C77.8238 55.3052 77.6835 55.1921 77.5038 55.1921C77.322 55.1921 77.2012 55.3026 77.1884 55.4799Z" fill="#2C68FF"/>
<path d="M78.435 56.1635L78.5431 55.8752C78.6731 55.9549 78.8646 56.0088 79.0341 56.0088C79.2184 56.0088 79.2834 55.96 79.2768 55.8829C79.2568 55.6567 78.4448 55.888 78.3961 55.3355C78.3736 55.0734 78.5927 54.8883 78.9952 54.8883C79.1846 54.8883 79.3986 54.932 79.5358 55.0091L79.4278 55.2944C79.2855 55.2173 79.1472 55.1916 79.0218 55.1916C78.8421 55.1916 78.7704 55.2481 78.7765 55.3201C78.797 55.5565 79.6101 55.3278 79.6577 55.8726C79.6802 56.1296 79.4575 56.3121 79.0453 56.3121C78.8119 56.3126 78.5702 56.2484 78.435 56.1635Z" fill="#2C68FF"/>
<path d="M79.7944 56.1635L79.9024 55.8752C80.0325 55.9549 80.224 56.0088 80.3934 56.0088C80.5778 56.0088 80.6428 55.96 80.6361 55.8829C80.6162 55.6567 79.8036 55.888 79.7555 55.3355C79.733 55.0734 79.9521 54.8883 80.3545 54.8883C80.5445 54.8883 80.7585 54.932 80.8957 55.0091L80.7877 55.2944C80.6453 55.2173 80.5071 55.1916 80.3812 55.1916C80.202 55.1916 80.1303 55.2481 80.1364 55.3201C80.1569 55.5565 80.97 55.3278 81.0171 55.8726C81.0396 56.1296 80.8174 56.3121 80.4047 56.3121C80.1712 56.3126 79.9301 56.2484 79.7944 56.1635Z" fill="#2C68FF"/>
<path d="M74.9492 90.4026C74.984 90.8035 74.706 91.0528 74.2268 91.0528H73.8653L73.9083 91.5488H73.4931L73.3364 89.7493H74.1126C74.5924 89.7498 74.9139 89.9991 74.9492 90.4026ZM74.5289 90.4026C74.5115 90.2047 74.3732 90.0891 74.1193 90.0891H73.7814L73.8356 90.7136H74.1741C74.4275 90.7141 74.5458 90.5979 74.5289 90.4026Z" fill="#2C68FF"/>
<path d="M76.4522 90.7599L76.5208 91.5488H76.147L76.1317 91.3767C76.0682 91.5026 75.931 91.5694 75.7287 91.5694C75.4057 91.5694 75.1978 91.3895 75.1768 91.1505C75.1553 90.9064 75.3125 90.7367 75.7323 90.7367H76.0503C76.0354 90.5645 75.9238 90.4643 75.7088 90.4643C75.5628 90.4643 75.4159 90.5131 75.3227 90.5928L75.1548 90.3127C75.2966 90.2047 75.5147 90.1456 75.7349 90.1456C76.1547 90.1456 76.4153 90.3409 76.4522 90.7599ZM76.083 91.1119L76.0708 90.9706H75.7963C75.6094 90.9706 75.5562 91.04 75.5644 91.1325C75.5731 91.2327 75.6637 91.2996 75.8045 91.2996C75.9381 91.3001 76.0482 91.2379 76.083 91.1119Z" fill="#2C68FF"/>
<path d="M76.7363 91.4208L76.8443 91.133C76.9744 91.2127 77.1659 91.2666 77.3353 91.2666C77.5196 91.2666 77.5847 91.2178 77.578 91.1407C77.5586 90.9145 76.7455 91.1459 76.6974 90.5933C76.6749 90.3312 76.894 90.1461 77.2964 90.1461C77.4864 90.1461 77.7004 90.1898 77.8376 90.2669L77.7296 90.5522C77.5872 90.4751 77.449 90.4494 77.323 90.4494C77.1438 90.4494 77.0722 90.5059 77.0783 90.5779C77.0988 90.8143 77.9113 90.5856 77.9589 91.1304C77.9815 91.3874 77.7593 91.5699 77.3466 91.5699C77.1131 91.5694 76.8715 91.5051 76.7363 91.4208Z" fill="#2C68FF"/>
<path d="M78.0957 91.4208L78.2037 91.133C78.3338 91.2127 78.5252 91.2666 78.6947 91.2666C78.879 91.2666 78.9441 91.2178 78.9374 91.1407C78.9179 90.9145 78.1049 91.1459 78.0568 90.5933C78.0342 90.3312 78.2534 90.1461 78.6558 90.1461C78.8452 90.1461 79.0593 90.1898 79.1965 90.2669L79.0879 90.5522C78.9456 90.4751 78.8073 90.4494 78.6819 90.4494C78.5022 90.4494 78.4305 90.5059 78.4367 90.5779C78.4571 90.8143 79.2702 90.5856 79.3178 91.1304C79.3403 91.3874 79.1176 91.5699 78.7055 91.5699C78.4725 91.5694 78.2308 91.5051 78.0957 91.4208Z" fill="#2C68FF"/>
<path d="M81.6667 90.1662L81.2873 91.5489H80.9033L80.5183 90.6905L80.2725 91.5489H79.888L79.27 90.1662H79.6469L80.0539 91.1017L80.3109 90.1662H80.6493L81.0589 91.1017L81.3134 90.1662H81.6667Z" fill="#2C68FF"/>
<path d="M81.7711 90.8575C81.7347 90.4412 82.0291 90.1456 82.4674 90.1456C82.9057 90.1456 83.2492 90.4412 83.2856 90.8575C83.3219 91.2744 83.0301 91.5694 82.5918 91.5694C82.1536 91.5694 81.8074 91.2744 81.7711 90.8575ZM82.8806 90.8575C82.8596 90.6185 82.6963 90.4746 82.4961 90.4746C82.2959 90.4746 82.1551 90.6185 82.1756 90.8575C82.1966 91.0965 82.3625 91.2404 82.5626 91.2404C82.7628 91.2404 82.9016 91.0965 82.8806 90.8575Z" fill="#2C68FF"/>
<path d="M84.3438 90.1456L84.376 90.5157C84.3422 90.5131 84.3166 90.5106 84.2859 90.5106C84.0652 90.5106 83.9301 90.6314 83.9531 90.8966L84.0099 91.5494H83.6101L83.4897 90.1667H83.8717L83.8876 90.3492C83.9731 90.215 84.1313 90.1456 84.3438 90.1456Z" fill="#2C68FF"/>
<path d="M85.929 89.6419L86.0949 91.5494H85.7134L85.6996 91.39C85.61 91.5108 85.4692 91.5699 85.2849 91.5699C84.8952 91.5699 84.5711 91.2924 84.5333 90.858C84.4954 90.4237 84.7713 90.1461 85.161 90.1461C85.3299 90.1461 85.4784 90.2001 85.588 90.3132L85.5296 89.6419H85.929ZM85.6428 90.8575C85.6218 90.6185 85.4559 90.4746 85.2583 90.4746C85.0586 90.4746 84.9173 90.6185 84.9377 90.8575C84.9587 91.0965 85.1251 91.2404 85.3248 91.2404C85.5224 91.2404 85.6638 91.0965 85.6428 90.8575Z" fill="#2C68FF"/>
<path d="M145.055 98.5485H134.95C133.037 98.5485 131.35 96.9916 131.183 95.0713C131.015 93.151 132.431 91.5941 134.343 91.5941H144.449C146.362 91.5941 148.048 93.151 148.216 95.0713C148.384 96.9916 146.968 98.5485 145.055 98.5485Z" fill="#2C68FF"/>
<path d="M136.467 95.8196L136.58 95.5061C136.741 95.6166 136.974 95.6937 137.189 95.6937C137.434 95.6937 137.528 95.6115 137.518 95.5009C137.489 95.1643 136.466 95.3956 136.407 94.7274C136.381 94.4216 136.605 94.1671 137.114 94.1671C137.34 94.1671 137.575 94.2211 137.751 94.3265L137.651 94.6426C137.476 94.5475 137.3 94.5012 137.141 94.5012C136.895 94.5012 136.809 94.5937 136.819 94.7068C136.848 95.0383 137.87 94.8096 137.928 95.4701C137.954 95.7708 137.728 96.0278 137.216 96.0278C136.931 96.0278 136.636 95.943 136.467 95.8196Z" fill="white"/>
<path d="M139.379 95.208L139.448 95.997H139.074L139.059 95.8248C138.996 95.9507 138.858 96.0175 138.655 96.0175C138.333 96.0175 138.124 95.8376 138.104 95.5986C138.083 95.3545 138.24 95.1849 138.66 95.1849H138.978C138.963 95.0127 138.852 94.9124 138.637 94.9124C138.491 94.9124 138.344 94.9613 138.25 95.0409L138.083 94.7608C138.224 94.6529 138.442 94.5938 138.663 94.5938C139.082 94.5932 139.343 94.7891 139.379 95.208ZM139.01 95.5601L138.998 95.4187H138.724C138.537 95.4187 138.484 95.4881 138.492 95.5806C138.5 95.6809 138.59 95.7477 138.732 95.7477C138.865 95.7477 138.975 95.686 139.01 95.5601Z" fill="white"/>
<path d="M141.03 94.6143L140.57 95.997H140.157L139.457 94.6143H139.87L140.334 95.5549L140.646 94.6143H141.03Z" fill="white"/>
<path d="M142.568 95.4187H141.525C141.578 95.5914 141.733 95.6963 141.943 95.6963C142.089 95.6963 142.191 95.6526 142.278 95.5626L142.51 95.7944C142.395 95.9409 142.21 96.018 141.961 96.018C141.484 96.018 141.148 95.7173 141.112 95.3061C141.076 94.8924 141.365 94.5942 141.785 94.5942C142.19 94.5942 142.527 94.8667 142.565 95.3113C142.569 95.3416 142.567 95.3853 142.568 95.4187ZM141.499 95.1848H142.178C142.134 95.0101 141.994 94.897 141.814 94.897C141.633 94.897 141.512 95.0075 141.499 95.1848Z" fill="white"/>
<path d="M164.278 98.5485H154.173C152.26 98.5485 150.573 96.9916 150.406 95.0713C150.239 93.151 151.654 91.5941 153.567 91.5941H163.672C165.585 91.5941 167.271 93.151 167.439 95.0713C167.606 96.9916 166.191 98.5485 164.278 98.5485Z" fill="#2C68FF"/>
<path d="M152.921 95.0975C152.873 94.5552 153.255 94.1666 153.813 94.1666C154.123 94.1666 154.392 94.2797 154.579 94.4858L154.334 94.7325C154.202 94.5938 154.044 94.5218 153.865 94.5218C153.529 94.5218 153.312 94.7577 153.341 95.0975C153.371 95.4367 153.63 95.6737 153.965 95.6737C154.145 95.6737 154.29 95.6017 154.398 95.4604L154.686 95.7071C154.535 95.9153 154.287 96.0283 153.974 96.0283C153.417 96.0278 152.968 95.6398 152.921 95.0975Z" fill="white"/>
<path d="M154.748 95.3056C154.712 94.8893 155.006 94.5938 155.444 94.5938C155.883 94.5938 156.226 94.8893 156.263 95.3056C156.299 95.7225 156.007 96.0175 155.569 96.0175C155.131 96.0175 154.784 95.722 154.748 95.3056ZM155.858 95.3056C155.837 95.0666 155.674 94.9227 155.474 94.9227C155.273 94.9227 155.133 95.0666 155.154 95.3056C155.174 95.5447 155.341 95.6886 155.54 95.6886C155.74 95.6886 155.879 95.5447 155.858 95.3056Z" fill="white"/>
<path d="M157.929 95.2054L157.998 95.997H157.598L157.535 95.2671C157.515 95.0435 157.404 94.9407 157.227 94.9407C157.035 94.9407 156.907 95.0589 156.929 95.3134L156.988 95.9975H156.589L156.468 94.6148H156.85L156.864 94.7762C156.962 94.658 157.117 94.5938 157.304 94.5938C157.629 94.5932 157.892 94.7839 157.929 95.2054Z" fill="white"/>
<path d="M159.24 95.9302C159.164 95.9893 159.045 96.017 158.923 96.017C158.597 96.017 158.393 95.85 158.364 95.521L158.315 94.9531H158.102L158.076 94.6447H158.288L158.258 94.308H158.658L158.688 94.6447H159.031L159.058 94.9531H158.714L158.763 95.5159C158.774 95.6341 158.843 95.6984 158.951 95.6984C159.01 95.6984 159.067 95.6804 159.108 95.647L159.24 95.9302Z" fill="white"/>
<path d="M159.265 94.1975C159.254 94.0715 159.345 93.9739 159.494 93.9739C159.643 93.9739 159.751 94.0664 159.762 94.1898C159.773 94.3234 159.682 94.4216 159.533 94.4216C159.385 94.4216 159.276 94.3234 159.265 94.1975ZM159.35 94.6143H159.75L159.87 95.997H159.47L159.35 94.6143Z" fill="white"/>
<path d="M161.582 95.2054L161.651 95.997H161.251L161.188 95.2671C161.168 95.0435 161.057 94.9407 160.88 94.9407C160.688 94.9407 160.56 95.0589 160.582 95.3134L160.641 95.9975H160.241L160.121 94.6148H160.503L160.517 94.7762C160.614 94.658 160.77 94.5938 160.957 94.5938C161.282 94.5932 161.545 94.7839 161.582 95.2054Z" fill="white"/>
<path d="M163.279 94.6143L163.399 95.997H163.019L163.005 95.8325C162.91 95.9533 162.762 96.0175 162.594 96.0175C162.247 96.0175 161.987 95.8222 161.95 95.3956L161.882 94.6143H162.282L162.345 95.3365C162.365 95.5678 162.476 95.6706 162.653 95.6706C162.837 95.6706 162.96 95.5524 162.938 95.2979L162.879 94.6143H163.279Z" fill="white"/>
<path d="M165.062 95.4188H164.019C164.072 95.5915 164.227 95.6963 164.438 95.6963C164.583 95.6963 164.685 95.6526 164.772 95.5627L165.004 95.7945C164.889 95.941 164.704 96.0181 164.455 96.0181C163.978 96.0181 163.642 95.7174 163.606 95.3062C163.57 94.8924 163.859 94.5943 164.279 94.5943C164.684 94.5943 165.021 94.8667 165.059 95.3113C165.062 95.3416 165.061 95.3853 165.062 95.4188ZM163.993 95.1849H164.672C164.628 95.0101 164.488 94.897 164.308 94.897C164.126 94.897 164.006 95.0076 163.993 95.1849Z" fill="white"/>
<path d="M123.975 79.6888C123.936 79.2385 124.323 78.9167 124.882 78.9167C125.191 78.9167 125.458 79.0103 125.643 79.1815L125.394 79.386C125.263 79.2704 125.106 79.2108 124.927 79.2108C124.591 79.2108 124.371 79.4071 124.395 79.6888C124.419 79.9704 124.674 80.1668 125.01 80.1668C125.189 80.1668 125.335 80.1072 125.446 79.99L125.73 80.1946C125.576 80.3673 125.325 80.4613 125.013 80.4613C124.457 80.4608 124.014 80.1385 123.975 79.6888Z" fill="#2C68FF"/>
<path d="M125.799 79.8615C125.769 79.516 126.068 79.2709 126.507 79.2709C126.945 79.2709 127.284 79.5166 127.314 79.8615C127.344 80.2069 127.048 80.452 126.609 80.452C126.172 80.452 125.83 80.2069 125.799 79.8615ZM126.909 79.8615C126.892 79.6636 126.73 79.5438 126.53 79.5438C126.33 79.5438 126.187 79.6636 126.204 79.8615C126.222 80.0599 126.386 80.1796 126.586 80.1796C126.786 80.1791 126.926 80.0599 126.909 79.8615Z" fill="#2C68FF"/>
<path d="M128.982 79.7782L129.039 80.4351H128.639L128.587 79.8291C128.57 79.6436 128.461 79.5582 128.283 79.5582C128.091 79.5582 127.962 79.6564 127.98 79.8677L128.029 80.4351H127.63L127.53 79.2874H127.912L127.924 79.422C128.023 79.3238 128.18 79.2704 128.366 79.2704C128.692 79.2704 128.951 79.4282 128.982 79.7782Z" fill="#2C68FF"/>
<path d="M130.283 80.3796C130.205 80.4284 130.086 80.4521 129.963 80.4521C129.637 80.4521 129.436 80.3138 129.412 80.0409L129.371 79.5695H129.158L129.136 79.3136H129.349L129.325 79.0339H129.724L129.749 79.3136H130.092L130.114 79.5695H129.771L129.812 80.0368C129.82 80.1344 129.889 80.1879 129.996 80.1879C130.055 80.1879 130.113 80.173 130.154 80.1452L130.283 80.3796Z" fill="#2C68FF"/>
<path d="M131.675 79.7802L131.732 80.4351H131.358L131.345 80.2922C131.28 80.3965 131.141 80.452 130.939 80.452C130.616 80.452 130.411 80.303 130.394 80.1046C130.376 79.9015 130.536 79.7607 130.956 79.7607H131.274C131.262 79.6178 131.152 79.5346 130.937 79.5346C130.791 79.5346 130.643 79.5752 130.549 79.6415L130.385 79.4086C130.528 79.3192 130.747 79.2698 130.967 79.2698C131.387 79.2704 131.644 79.4328 131.675 79.7802ZM131.301 80.0727L131.29 79.955H131.016C130.829 79.955 130.775 80.0126 130.782 80.0897C130.789 80.1729 130.878 80.2284 131.019 80.2284C131.152 80.2284 131.263 80.1771 131.301 80.0727Z" fill="#2C68FF"/>
<path d="M131.954 79.8615C131.924 79.516 132.223 79.2709 132.671 79.2709C132.961 79.2709 133.198 79.3757 133.314 79.5633L133.016 79.7021C132.932 79.5937 132.818 79.5443 132.693 79.5443C132.49 79.5443 132.341 79.662 132.359 79.862C132.376 80.0624 132.546 80.1801 132.748 80.1801C132.873 80.1801 132.979 80.1334 133.044 80.0223L133.366 80.1632C133.282 80.3467 133.064 80.4531 132.774 80.4531C132.326 80.452 131.984 80.2069 131.954 79.8615Z" fill="#2C68FF"/>
<path d="M134.525 80.3796C134.447 80.4284 134.329 80.4521 134.205 80.4521C133.88 80.4521 133.678 80.3138 133.654 80.0409L133.613 79.5695H133.4L133.378 79.3136H133.59L133.566 79.0339H133.966L133.99 79.3136H134.333L134.355 79.5695H134.012L134.053 80.0368C134.061 80.1344 134.13 80.1879 134.238 80.1879C134.296 80.1879 134.354 80.173 134.395 80.1452L134.525 80.3796Z" fill="#2C68FF"/>
<path d="M137.021 78.9424L137.151 80.4356H136.811L135.837 79.5289L135.916 80.4356H135.506L135.376 78.9424H135.72L136.69 79.8491L136.611 78.9424H137.021Z" fill="#2C68FF"/>
<path d="M138.835 79.2873L138.935 80.4351H138.556L138.544 80.2984C138.448 80.3986 138.299 80.4516 138.13 80.4516C137.784 80.4516 137.526 80.2896 137.495 79.9355L137.439 79.2868H137.839L137.891 79.8861C137.908 80.0784 138.018 80.1637 138.195 80.1637C138.379 80.1637 138.504 80.0655 138.485 79.8543L138.436 79.2863H138.835V79.2873Z" fill="#2C68FF"/>
<path d="M141.578 79.7782L141.635 80.4351H141.235L141.182 79.8291C141.166 79.6435 141.059 79.5582 140.897 79.5582C140.718 79.5582 140.601 79.6543 140.619 79.8589L140.669 80.4346H140.269L140.216 79.8286C140.2 79.643 140.098 79.5577 139.931 79.5577C139.754 79.5577 139.637 79.6538 139.655 79.8584L139.705 80.4341H139.305L139.205 79.2863H139.587L139.598 79.4184C139.693 79.3207 139.841 79.2693 140.019 79.2693C140.211 79.2693 140.38 79.3315 140.489 79.4575C140.588 79.3398 140.762 79.2693 140.969 79.2693C141.298 79.2704 141.547 79.4282 141.578 79.7782Z" fill="#2C68FF"/>
<path d="M143.442 79.8615C143.474 80.2223 143.194 80.452 142.807 80.452C142.623 80.452 142.47 80.4032 142.361 80.303L142.372 80.4351H141.99L141.852 78.8525H142.252L142.301 79.4091C142.395 79.3156 142.532 79.2704 142.704 79.2704C143.091 79.2704 143.411 79.5011 143.442 79.8615ZM143.038 79.8615C143.02 79.6636 142.859 79.5438 142.659 79.5438C142.459 79.5438 142.318 79.6636 142.335 79.8615C142.353 80.0599 142.515 80.1796 142.714 80.1796C142.914 80.1791 143.055 80.0599 143.038 79.8615Z" fill="#2C68FF"/>
<path d="M145.058 79.955H144.015C144.066 80.0979 144.22 80.1858 144.43 80.1858C144.576 80.1858 144.678 80.1493 144.766 80.0748L144.995 80.2665C144.878 80.3878 144.691 80.452 144.443 80.452C143.966 80.452 143.634 80.2027 143.605 79.8615C143.574 79.5186 143.868 79.2709 144.289 79.2709C144.694 79.2709 145.026 79.497 145.058 79.8661C145.06 79.8913 145.058 79.9278 145.058 79.955ZM143.993 79.7612H144.672C144.631 79.6163 144.492 79.5227 144.313 79.5227C144.132 79.5227 144.009 79.6137 143.993 79.7612Z" fill="#2C68FF"/>
<path d="M146.127 79.2704L146.154 79.5778C146.12 79.5757 146.094 79.5736 146.064 79.5736C145.843 79.5736 145.706 79.6739 145.725 79.8934L145.772 80.4351H145.372L145.272 79.2874H145.654L145.667 79.439C145.755 79.3285 145.914 79.2704 146.127 79.2704Z" fill="#2C68FF"/>
<path d="M71.2418 67.3281L71.3601 67.068C71.5193 67.1595 71.7502 67.2238 71.9652 67.2238C72.211 67.2238 72.3057 67.1554 72.2975 67.0639C72.273 66.7843 71.2469 66.9766 71.1988 66.422C71.1763 66.168 71.4041 65.9568 71.914 65.9568C72.1393 65.9568 72.3738 66.0015 72.5484 66.0889L72.4429 66.351C72.2699 66.2724 72.0948 66.2338 71.9355 66.2338C71.6898 66.2338 71.6017 66.3104 71.6099 66.4045C71.634 66.6795 72.66 66.4898 72.7082 67.0377C72.7297 67.287 72.4998 67.5003 71.9873 67.5003C71.7026 67.5008 71.4097 67.4309 71.2418 67.3281Z" fill="#2C68FF"/>
<path d="M73.8847 67.4201C73.8068 67.469 73.6886 67.4926 73.5652 67.4926C73.2396 67.4926 73.0383 67.3538 73.0143 67.0809L72.9728 66.609H72.7598L72.7378 66.3531H72.9503L72.9262 66.074H73.3261L73.3501 66.3531H73.6937L73.7157 66.609H73.3727L73.4136 67.0763C73.4223 67.1744 73.4909 67.2274 73.5985 67.2274C73.6573 67.2274 73.7152 67.2125 73.7562 67.1847L73.8847 67.4201Z" fill="#2C68FF"/>
<path d="M75.2771 66.8208L75.3339 67.4757H74.9601L74.9473 67.3328C74.8823 67.4376 74.7436 67.4932 74.5408 67.4932C74.2182 67.4932 74.0129 67.3436 73.9955 67.1457C73.9776 66.9427 74.1373 66.8023 74.5577 66.8023H74.8757C74.8634 66.6594 74.7533 66.5762 74.5382 66.5762C74.3923 66.5762 74.2444 66.6168 74.1507 66.6826L73.9868 66.4502C74.1302 66.3608 74.3493 66.3115 74.5695 66.3115C74.9888 66.3109 75.2469 66.4729 75.2771 66.8208ZM74.9028 67.1133L74.8925 66.9956H74.6181C74.4312 66.9956 74.377 67.0532 74.3841 67.1303C74.3913 67.2135 74.4804 67.2685 74.6217 67.2685C74.7548 67.2685 74.8654 67.2177 74.9028 67.1133Z" fill="#2C68FF"/>
<path d="M76.578 67.4201C76.5002 67.469 76.3819 67.4926 76.2585 67.4926C75.9329 67.4926 75.7317 67.3538 75.7076 67.0809L75.6662 66.609H75.4537L75.4312 66.3531H75.6441L75.6201 66.074H76.02L76.044 66.3531H76.3871L76.4096 66.609H76.0665L76.1075 67.0763C76.1162 67.1744 76.1848 67.2274 76.2923 67.2274C76.3512 67.2274 76.4091 67.2125 76.45 67.1847L76.578 67.4201Z" fill="#2C68FF"/>
<path d="M78.0645 66.9956H77.0216C77.0728 67.1385 77.2259 67.2258 77.4363 67.2258C77.5822 67.2258 77.6841 67.1899 77.7722 67.1148L78.0015 67.307C77.8843 67.4284 77.6974 67.4926 77.4491 67.4926C76.9724 67.4926 76.6406 67.2433 76.611 66.902C76.5813 66.5587 76.8746 66.3109 77.295 66.3109C77.7 66.3109 78.0323 66.5371 78.0645 66.9061C78.0661 66.9318 78.0645 66.9678 78.0645 66.9956ZM76.999 66.8018H77.678C77.637 66.6568 77.4982 66.5628 77.319 66.5628C77.1373 66.5628 77.0144 66.6543 76.999 66.8018Z" fill="#2C68FF"/>
<path d="M120.984 44.0701H121.399L121.527 45.5304H122.426L122.456 45.8696H121.142L120.984 44.0701Z" fill="#2C68FF"/>
<path d="M123.825 45.0807L123.893 45.8696H123.519L123.504 45.6975C123.441 45.8234 123.303 45.8902 123.101 45.8902C122.778 45.8902 122.57 45.7103 122.549 45.4713C122.527 45.2272 122.685 45.0575 123.105 45.0575H123.423C123.408 44.8853 123.297 44.7851 123.081 44.7851C122.935 44.7851 122.788 44.8339 122.695 44.9136L122.527 44.6335C122.669 44.5255 122.887 44.4664 123.107 44.4664C123.528 44.4659 123.788 44.6612 123.825 45.0807ZM123.456 45.4322L123.443 45.2909H123.169C122.982 45.2909 122.929 45.3603 122.937 45.4528C122.946 45.553 123.036 45.6198 123.177 45.6198C123.311 45.6204 123.421 45.5582 123.456 45.4322Z" fill="#2C68FF"/>
<path d="M124.109 45.7406L124.217 45.4528C124.347 45.5324 124.538 45.5864 124.708 45.5864C124.892 45.5864 124.957 45.5376 124.951 45.4605C124.931 45.2343 124.118 45.4656 124.07 44.9131C124.047 44.6509 124.267 44.4659 124.669 44.4659C124.859 44.4659 125.073 44.5096 125.21 44.5867L125.102 44.8719C124.959 44.7948 124.821 44.7691 124.696 44.7691C124.516 44.7691 124.444 44.8257 124.45 44.8976C124.471 45.1341 125.284 44.9054 125.332 45.4502C125.354 45.7072 125.131 45.8897 124.719 45.8897C124.485 45.8897 124.245 45.8254 124.109 45.7406Z" fill="#2C68FF"/>
<path d="M126.496 45.8028C126.419 45.862 126.301 45.8897 126.178 45.8897C125.852 45.8897 125.649 45.7227 125.62 45.3937L125.57 44.8257H125.357L125.331 44.5173H125.543L125.513 44.1807H125.913L125.943 44.5173H126.286L126.313 44.8257H125.97L126.019 45.3886C126.029 45.5068 126.099 45.571 126.207 45.571C126.265 45.571 126.323 45.553 126.363 45.5196L126.496 45.8028Z" fill="#2C68FF"/>
<path d="M128.967 44.0701L129.124 45.8696H128.783L127.793 44.7769L127.888 45.8696H127.478L127.321 44.0701H127.664L128.651 45.1629L128.556 44.0701H128.967Z" fill="#2C68FF"/>
<path d="M130.67 45.0807L130.739 45.8696H130.365L130.35 45.6975C130.287 45.8234 130.149 45.8902 129.946 45.8902C129.624 45.8902 129.416 45.7103 129.395 45.4713C129.374 45.2272 129.531 45.0575 129.951 45.0575H130.269C130.254 44.8853 130.143 44.7851 129.928 44.7851C129.782 44.7851 129.635 44.8339 129.541 44.9136L129.374 44.6335C129.515 44.5255 129.733 44.4664 129.954 44.4664C130.373 44.4659 130.634 44.6612 130.67 45.0807ZM130.301 45.4322L130.289 45.2909H130.015C129.828 45.2909 129.775 45.3603 129.783 45.4528C129.791 45.553 129.881 45.6198 130.023 45.6198C130.156 45.6204 130.266 45.5582 130.301 45.4322Z" fill="#2C68FF"/>
<path d="M133.359 45.0775L133.428 45.8691H133.028L132.965 45.1392C132.945 44.9156 132.837 44.8128 132.675 44.8128C132.495 44.8128 132.38 44.9285 132.401 45.1752L132.462 45.8691H132.062L131.998 45.1392C131.979 44.9156 131.875 44.8128 131.709 44.8128C131.532 44.8128 131.416 44.9285 131.438 45.1752L131.498 45.8691H131.098L130.978 44.4864H131.36L131.374 44.6458C131.466 44.5276 131.614 44.4659 131.791 44.4659C131.983 44.4659 132.154 44.5409 132.265 44.692C132.362 44.5512 132.535 44.4659 132.742 44.4659C133.07 44.4659 133.322 44.6561 133.359 45.0775Z" fill="#2C68FF"/>
<path d="M135.092 45.2909H134.049C134.103 45.4631 134.258 45.5684 134.468 45.5684C134.614 45.5684 134.715 45.5248 134.802 45.4348L135.035 45.6666C134.92 45.8131 134.735 45.8902 134.486 45.8902C134.009 45.8902 133.673 45.5895 133.637 45.1783C133.601 44.7645 133.89 44.4664 134.31 44.4664C134.715 44.4664 135.051 44.7388 135.09 45.184C135.093 45.2138 135.091 45.2575 135.092 45.2909ZM134.023 45.057H134.702C134.659 44.8823 134.518 44.7692 134.339 44.7692C134.157 44.7692 134.036 44.8802 134.023 45.057Z" fill="#2C68FF"/>
<path d="M117.892 51.5827H69.7785L69.4165 47.4301H117.53L117.892 51.5827Z" fill="white"/>
<path d="M119.767 73.0926H71.653L71.291 68.94H119.405L119.767 73.0926Z" fill="white"/>
<path d="M120.862 85.6666H72.7487L72.3872 81.514H120.501L120.862 85.6666Z" fill="white"/>
<path d="M121.863 97.1479H73.7497L73.3877 92.9952H121.501L121.863 97.1479Z" fill="white"/>
<path d="M172.602 85.6666H124.488L124.126 81.514H172.24L172.602 85.6666Z" fill="white"/>
<path d="M170.526 61.8427H70.6725L70.3105 57.6896H170.164L170.526 61.8427Z" fill="white"/>
<path d="M169.632 51.5827H121.518L121.156 47.4301H169.27L169.632 51.5827Z" fill="white"/>
<path d="M135.452 85.2261H131.743L131.445 81.8024H135.154L135.452 85.2261Z" fill="#DBDEE7"/>
<path d="M134.59 82.9306L133.531 84.25L132.243 82.9306H134.59Z" fill="#1E1F24"/>
<path d="M126.683 83.5906H126.237L126.275 84.0275H125.944L125.907 83.5906H125.463L125.436 83.2766H125.879L125.841 82.8397H126.171L126.209 83.2766H126.655L126.683 83.5906Z" fill="#1E1F24"/>
<path d="M128.229 83.7833C128.255 84.0865 128.046 84.3641 127.536 84.3641C127.285 84.3641 127.02 84.2947 126.835 84.1713L126.969 83.8526C127.113 83.9554 127.309 84.0146 127.495 84.0146C127.703 84.0146 127.824 83.9303 127.811 83.7833C127.799 83.647 127.692 83.5622 127.456 83.5622H127.267L127.243 83.2872L127.575 82.8683H126.811L126.782 82.5342H128.038L128.061 82.8041L127.697 83.2667C128.024 83.3176 128.206 83.518 128.229 83.7833Z" fill="#1E1F24"/>
<path d="M129.765 83.9941L129.795 84.3333H128.44L128.416 84.0635L129.051 83.4081C129.196 83.2565 129.217 83.164 129.209 83.0766C129.197 82.9352 129.092 82.853 128.902 82.853C128.749 82.853 128.623 82.9121 128.547 83.0329L128.227 82.8376C128.348 82.6346 128.587 82.5035 128.911 82.5035C129.31 82.5035 129.595 82.7091 129.623 83.0355C129.639 83.2102 129.604 83.3696 129.373 83.6034L128.995 83.9946L129.765 83.9941Z" fill="#1E1F24"/>
<path d="M162.114 84.3528H137.659L137.535 82.9306H161.99L162.114 84.3528Z" fill="#1E1F24"/>
<path d="M98.3618 84.3528H73.9076L73.7832 82.9306H98.2379L98.3618 84.3528Z" fill="#1E1F24"/>
<path d="M84.0004 71.7275H72.8075L72.6831 70.3052H83.8765L84.0004 71.7275Z" fill="#1E1F24"/>
<path d="M82.1258 50.2176H70.9325L70.8086 48.7953H82.0019L82.1258 50.2176Z" fill="#1E1F24"/>
<path d="M134.084 50.2176H122.891L122.768 48.7953H133.96L134.084 50.2176Z" fill="#1E1F24"/>
<path d="M160.033 60.477H71.827L71.7031 59.0553H159.909L160.033 60.477Z" fill="#1E1F24"/>
<path d="M76.3533 95.1684L76.7629 95.3812L76.6129 95.6763L76.1981 95.4424L76.2432 95.8783H75.9058L75.871 95.4388L75.4972 95.6763L75.2991 95.3812L75.6718 95.1684L75.2622 94.9525L75.4086 94.657L75.8239 94.8945L75.7819 94.4555H76.1193L76.1505 94.8945L76.5243 94.657L76.726 94.9525L76.3533 95.1684Z" fill="#1E1F24"/>
<path d="M78.9231 95.1684L79.3327 95.3812L79.1827 95.6763L78.768 95.4424L78.813 95.8783H78.4756L78.4408 95.4388L78.0671 95.6763L77.8689 95.3812L78.2411 95.1684L77.8315 94.9525L77.978 94.657L78.3932 94.8945L78.3512 94.4555H78.6886L78.7193 94.8945L79.0931 94.657L79.2943 94.9525L78.9231 95.1684Z" fill="#1E1F24"/>
<path d="M81.4929 95.1684L81.9025 95.3812L81.7525 95.6763L81.3378 95.4424L81.3828 95.8783H81.0454L81.0106 95.4388L80.6369 95.6763L80.4387 95.3812L80.8114 95.1684L80.4019 94.9525L80.5483 94.657L80.9635 94.8945L80.9215 94.4555H81.2589L81.2902 94.8945L81.6639 94.657L81.8657 94.9525L81.4929 95.1684Z" fill="#1E1F24"/>
<path d="M84.0623 95.1684L84.4719 95.3812L84.3219 95.6763L83.9072 95.4424L83.9522 95.8783H83.6148L83.58 95.4388L83.2062 95.6763L83.0081 95.3812L83.3803 95.1684L82.9707 94.9525L83.1171 94.657L83.5324 94.8945L83.4904 94.4555H83.8278L83.859 94.8945L84.2328 94.657L84.434 94.9525L84.0623 95.1684Z" fill="#1E1F24"/>
<path d="M86.6321 95.1684L87.0417 95.3812L86.8917 95.6763L86.477 95.4424L86.522 95.8783H86.1846L86.1498 95.4388L85.7761 95.6763L85.5779 95.3812L85.9501 95.1684L85.5405 94.9525L85.687 94.657L86.1022 94.8945L86.0607 94.4555H86.3981L86.4294 94.8945L86.8031 94.657L87.0048 94.9525L86.6321 95.1684Z" fill="#1E1F24"/>
<path d="M89.2019 95.1684L89.6115 95.3812L89.4615 95.6763L89.0468 95.4424L89.0919 95.8783H88.7544L88.7196 95.4388L88.3459 95.6763L88.1477 95.3812L88.5199 95.1684L88.1104 94.9525L88.2568 94.657L88.672 94.8945L88.63 94.4555H88.9674L88.9987 94.8945L89.3724 94.657L89.5736 94.9525L89.2019 95.1684Z" fill="#1E1F24"/>
<path d="M91.7718 95.1684L92.1814 95.3812L92.0313 95.6763L91.6166 95.4424L91.6617 95.8783H91.3243L91.2895 95.4388L90.9157 95.6763L90.7176 95.3812L91.0898 95.1684L90.6802 94.9525L90.8266 94.657L91.2418 94.8945L91.1999 94.4555H91.5373L91.5685 94.8945L91.9423 94.657L92.144 94.9525L91.7718 95.1684Z" fill="#1E1F24"/>
<path opacity="0.1" d="M68.131 103.439H178.962L172.815 32.9061H61.9839L68.131 103.439Z" fill="white"/>
<path opacity="0.1" d="M85.8985 27.6396L107.547 108.923H100.265L78.8555 27.6396H85.8985Z" fill="white"/>
<path opacity="0.1" d="M74.6601 27.6396L96.3084 108.923H81.8634L60.4541 27.6396H74.6601Z" fill="white"/>
<path d="M74.3781 25.4369L71.2222 25.4636L71.2277 26.1194L74.3836 26.0928L74.3781 25.4369Z" fill="#2C68FF"/>
<path d="M86.3284 25.3367L77.1743 25.4139L77.1798 26.0697L86.3339 25.9925L86.3284 25.3367Z" fill="#2C68FF"/>
<path opacity="0.5" d="M184.279 69.7984C184.442 71.6704 183.063 73.1878 181.198 73.1878C179.333 73.1878 177.69 71.6704 177.526 69.7984C177.363 67.9265 178.742 66.4091 180.607 66.4091C182.471 66.4091 184.115 67.9265 184.279 69.7984Z" fill="#1E1F24"/>
<path opacity="0.5" d="M64.1177 81.8039C63.7588 81.8039 63.4418 81.5119 63.4106 81.1511L61.1675 55.4121C61.1363 55.0517 61.4015 54.7593 61.7609 54.7593C62.1199 54.7593 62.4368 55.0512 62.468 55.4121L64.7111 81.1511C64.7423 81.5114 64.4766 81.8039 64.1177 81.8039Z" fill="#1E1F24"/>
<path d="M72.4409 197.997H61.7719L60.5866 195.751C57.7066 190.291 56.1552 184.224 56.059 178.047L56.0508 177.508H78.1615C78.1615 184.12 76.4924 190.625 73.3103 196.415L72.4409 197.997Z" fill="#2C68FF"/>
<path opacity="0.7" d="M72.4409 197.997H61.7719L60.5866 195.751C57.7066 190.291 56.1552 184.224 56.059 178.047L56.0508 177.508H78.1615C78.1615 184.12 76.4924 190.625 73.3103 196.415L72.4409 197.997Z" fill="white"/>
<path d="M49.3871 177.949C51.3926 179.305 53.7298 180.017 56.062 179.981C56.3426 179.977 56.6318 179.96 56.8843 179.819C57.1362 179.68 57.343 179.386 57.3231 179.067C57.3 178.702 57.0087 178.444 56.7399 178.244C55.2382 177.123 53.6044 176.235 51.8979 175.601C51.0347 175.28 50.1525 175.025 49.2596 174.838C48.5428 174.689 47.7768 174.338 47.0523 174.344C46.9141 175.913 48.3359 177.238 49.3871 177.949Z" fill="#2C68FF"/>
<path d="M77.8333 168.933C78.8337 167.645 80.273 166.812 81.7752 166.651C81.8627 166.641 81.9585 166.636 82.0302 166.694C82.1264 166.771 82.1402 166.924 82.1428 167.058C82.1797 169.079 81.5678 171.108 80.4476 172.676C79.931 173.399 79.2869 174.041 78.5071 174.323C77.9429 174.526 77.2696 174.524 76.7325 174.216C76.1939 173.907 76.2922 173.466 76.3475 172.857C76.4785 171.411 76.9859 170.025 77.8333 168.933Z" fill="#2C68FF"/>
<path opacity="0.2" d="M77.8333 168.933C78.8337 167.645 80.273 166.812 81.7752 166.651C81.8627 166.641 81.9585 166.636 82.0302 166.694C82.1264 166.771 82.1402 166.924 82.1428 167.058C82.1797 169.079 81.5678 171.108 80.4476 172.676C79.931 173.399 79.2869 174.041 78.5071 174.323C77.9429 174.526 77.2696 174.524 76.7325 174.216C76.1939 173.907 76.2922 173.466 76.3475 172.857C76.4785 171.411 76.9859 170.025 77.8333 168.933Z" fill="#1E1F24"/>
<path d="M68.1832 169.852C68.9241 168.523 69.4673 166.814 69.4914 165.005C69.5119 163.488 69.1673 162.007 68.6732 160.73C68.1792 159.454 67.5392 158.353 66.9032 157.262C66.6969 160.549 66.637 163.862 66.7246 167.164C66.743 167.865 66.7727 168.592 66.9744 169.209C67.1761 169.826 67.5996 170.301 68.0122 170.147L68.1832 169.852Z" fill="#2C68FF"/>
<path d="M71.0447 159.801C69.649 161.873 68.7719 164.878 68.6578 167.979C68.6173 169.075 68.6757 170.218 68.9972 171.177C69.3188 172.137 69.9516 172.867 70.6105 172.767C71.2987 172.663 71.8311 171.734 72.2197 170.786C72.8654 169.21 73.6498 166.963 73.2821 165.022C72.8879 162.945 72.1092 161.084 71.0447 159.801Z" fill="#2C68FF"/>
<path opacity="0.1" d="M71.0447 159.801C69.649 161.873 68.7719 164.878 68.6578 167.979C68.6173 169.075 68.6757 170.218 68.9972 171.177C69.3188 172.137 69.9516 172.867 70.6105 172.767C71.2987 172.663 71.8311 171.734 72.2197 170.786C72.8654 169.21 73.6498 166.963 73.2821 165.022C72.8879 162.945 72.1092 161.084 71.0447 159.801Z" fill="#1E1F24"/>
<path d="M75.2801 171.359C76.4188 170.294 76.8842 168.511 76.833 166.833C76.7818 165.155 76.2841 163.542 75.7921 161.959C74.6821 163.488 73.7769 165.209 73.1184 167.046C72.866 167.75 72.6474 168.485 72.6326 169.244C72.6177 170.004 72.8317 170.8 73.3284 171.306C73.8255 171.813 74.6319 171.949 75.17 171.5C75.1065 171.538 75.0431 171.576 74.9796 171.614L75.2801 171.359Z" fill="#2C68FF"/>
<g opacity="0.2">
<path d="M75.2801 171.359C76.4188 170.294 76.8842 168.511 76.833 166.833C76.7818 165.155 76.2841 163.542 75.7921 161.959C74.6821 163.488 73.7769 165.209 73.1184 167.046C72.866 167.75 72.6474 168.485 72.6326 169.244C72.6177 170.004 72.8317 170.8 73.3284 171.306C73.8255 171.813 74.6319 171.949 75.17 171.5C75.1065 171.538 75.0431 171.576 74.9796 171.614L75.2801 171.359Z" fill="#1E1F24"/>
</g>
<path d="M77.8774 164.777C78.1615 166.849 78.4406 168.971 78.0919 171.03C77.7432 173.09 76.6393 175.109 74.9129 175.835C74.1945 176.137 73.2704 176.14 72.7886 175.462C72.4645 175.006 72.4322 174.35 72.5782 173.787C72.7241 173.224 73.0236 172.732 73.318 172.251C74.6958 170.003 77.5661 164.553 77.8584 164.782L77.8774 164.777Z" fill="#2C68FF"/>
<path d="M77.8774 164.777C78.1615 166.849 78.4406 168.971 78.0919 171.03C77.7432 173.09 76.6393 175.109 74.9129 175.835C74.1945 176.137 73.2704 176.14 72.7886 175.462C72.4645 175.006 72.4322 174.35 72.5782 173.787C72.7241 173.224 73.0236 172.732 73.318 172.251C74.6958 170.003 77.5661 164.553 77.8584 164.782L77.8774 164.777Z" fill="#2C68FF"/>
<g opacity="0.1">
<path d="M77.8774 164.777C78.1615 166.849 78.4406 168.971 78.0919 171.03C77.7432 173.09 76.6393 175.109 74.9129 175.835C74.1945 176.137 73.2704 176.14 72.7886 175.462C72.4645 175.006 72.4322 174.35 72.5782 173.787C72.7241 173.224 73.0236 172.732 73.318 172.251C74.6958 170.003 77.5661 164.553 77.8584 164.782L77.8774 164.777Z" fill="#1E1F24"/>
</g>
<path d="M72.5417 167.577C73.216 168.805 73.7827 170.134 74.0152 171.559C74.2476 172.984 74.1222 174.518 73.4863 175.773C72.8504 177.027 71.6605 177.952 70.3892 177.962C69.4062 177.969 68.4436 177.371 67.9106 176.432C67.3228 175.395 67.7524 174.454 68.2009 173.439C69.2193 171.133 70.9089 169.318 72.5417 167.577Z" fill="#2C68FF"/>
<path d="M85.2151 171.408C85.5673 171.983 85.554 172.773 85.3175 173.42C85.0809 174.067 84.6514 174.596 84.2039 175.077C81.1626 178.347 76.8398 180.007 72.6818 179.502C72.3357 179.46 71.9446 179.37 71.7654 179.03C71.5677 178.655 71.7459 178.143 72.0495 177.876C72.3531 177.609 72.7464 177.521 73.1216 177.429C75.2505 176.905 77.2857 175.963 79.1453 174.674C81.0095 173.38 83.2255 172.487 85.2151 171.408Z" fill="#2C68FF"/>
<path opacity="0.1" d="M85.2151 171.408C85.5673 171.983 85.554 172.773 85.3175 173.42C85.0809 174.067 84.6514 174.596 84.2039 175.077C81.1626 178.347 76.8398 180.007 72.6818 179.502C72.3357 179.46 71.9446 179.37 71.7654 179.03C71.5677 178.655 71.7459 178.143 72.0495 177.876C72.3531 177.609 72.7464 177.521 73.1216 177.429C75.2505 176.905 77.2857 175.963 79.1453 174.674C81.0095 173.38 83.2255 172.487 85.2151 171.408Z" fill="#1E1F24"/>
<path d="M77.8638 171.403C78.1721 170.943 78.5597 170.412 79.065 170.47C79.4567 170.514 79.7449 170.913 79.9072 171.322C80.5662 172.981 79.7782 175.012 78.5187 176.133C77.2592 177.253 75.6428 177.679 74.0827 178.074C73.5477 178.21 73.0126 178.345 72.4776 178.48C71.8407 178.642 70.5627 178.426 71.1316 177.415C71.5125 176.737 72.7884 176.35 73.3792 175.949C75.1083 174.776 76.6417 173.227 77.8638 171.403Z" fill="#2C68FF"/>
<path d="M84.4832 177.949C82.4777 179.305 80.1404 180.017 77.8083 179.981C77.5277 179.977 77.2384 179.96 76.986 179.819C76.7341 179.68 76.5273 179.386 76.5472 179.067C76.5703 178.702 76.8616 178.444 77.1304 178.244C78.6321 177.123 80.2659 176.235 81.9724 175.601C82.8356 175.28 83.7178 175.025 84.6107 174.838C85.3275 174.689 86.0935 174.338 86.818 174.344C86.9562 175.913 85.5339 177.238 84.4832 177.949Z" fill="#2C68FF"/>
<path d="M78.0165 184.158C79.9847 184.015 81.8719 183.113 83.4929 181.833C83.8021 181.589 84.1406 181.197 84.0034 180.798C83.9071 180.518 83.6219 180.401 83.3685 180.315C81.5063 179.689 79.6037 179.057 77.6638 179.141C76.7478 179.181 75.8288 179.404 74.9901 179.831C74.3353 180.164 72.978 180.983 72.7865 181.867C72.5883 182.782 74.2887 183.449 74.9143 183.693C75.9071 184.082 76.9705 184.234 78.0165 184.158Z" fill="#2C68FF"/>
<path opacity="0.1" d="M78.0165 184.158C79.9847 184.015 81.8719 183.113 83.4929 181.833C83.8021 181.589 84.1406 181.197 84.0034 180.798C83.9071 180.518 83.6219 180.401 83.3685 180.315C81.5063 179.689 79.6037 179.057 77.6638 179.141C76.7478 179.181 75.8288 179.404 74.9901 179.831C74.3353 180.164 72.978 180.983 72.7865 181.867C72.5883 182.782 74.2887 183.449 74.9143 183.693C75.9071 184.082 76.9705 184.234 78.0165 184.158Z" fill="#1E1F24"/>
<path d="M70.2472 179.266C72.1621 178.826 74.1353 178.718 76.0784 178.948C76.5612 179.005 77.0537 179.087 77.4797 179.352C77.9057 179.617 78.2564 180.102 78.2723 180.654C78.2881 181.211 77.962 181.722 77.5519 182.024C77.1418 182.327 76.6554 182.46 76.1797 182.585C74.7763 182.956 73.3366 183.316 71.9056 183.121C70.8539 182.978 69.6174 182.464 68.937 181.486C68.0543 180.218 69.2176 179.502 70.2472 179.266Z" fill="#2C68FF"/>
<path opacity="0.1" d="M70.2472 179.266C72.1621 178.826 74.1353 178.718 76.0784 178.948C76.5612 179.005 77.0537 179.087 77.4797 179.352C77.9057 179.617 78.2564 180.102 78.2723 180.654C78.2881 181.211 77.962 181.722 77.5519 182.024C77.1418 182.327 76.6554 182.46 76.1797 182.585C74.7763 182.956 73.3366 183.316 71.9056 183.121C70.8539 182.978 69.6174 182.464 68.937 181.486C68.0543 180.218 69.2176 179.502 70.2472 179.266Z" fill="white"/>
<path d="M64.4059 179.248C64.0347 178.964 63.6645 178.643 63.4536 178.194C63.2426 177.745 63.2329 177.135 63.5432 176.768C63.9871 176.244 66.457 175.5 67.0775 175.355C67.5956 175.235 68.124 175.454 68.6135 175.683C69.3211 176.013 70.0195 176.368 70.7071 176.748C71.0496 176.937 71.3972 177.139 71.6594 177.453C71.9215 177.768 72.0874 178.221 71.9912 178.641C71.856 179.233 71.2892 179.535 70.7777 179.719C69.4563 180.195 68.0646 180.417 66.6797 180.371C66.7749 180.349 65.0203 179.719 64.4059 179.248Z" fill="#2C68FF"/>
<g opacity="0.1">
<path d="M64.4059 179.248C64.0347 178.964 63.6645 178.643 63.4536 178.194C63.2426 177.745 63.2329 177.135 63.5432 176.768C63.9871 176.244 66.457 175.5 67.0775 175.355C67.5956 175.235 68.124 175.454 68.6135 175.683C69.3211 176.013 70.0195 176.368 70.7071 176.748C71.0496 176.937 71.3972 177.139 71.6594 177.453C71.9215 177.768 72.0874 178.221 71.9912 178.641C71.856 179.233 71.2892 179.535 70.7777 179.719C69.4563 180.195 68.0646 180.417 66.6797 180.371C66.7749 180.349 65.0203 179.719 64.4059 179.248Z" fill="#1E1F24"/>
</g>
<path d="M69.4206 180.226C70.0279 180.413 70.6074 180.83 70.8931 181.468C71.1788 182.107 71.0964 182.978 70.6069 183.429C70.2511 183.756 69.7657 183.815 69.31 183.86C68.7479 183.916 68.1857 183.972 67.6235 184.028C67.2677 184.064 66.877 184.09 66.5862 183.853C66.1935 183.532 66.1597 182.894 66.1628 182.344C66.1658 181.819 66.172 181.278 66.3522 180.795C66.5826 180.177 67.0127 179.866 67.5728 179.955C68.1816 180.052 68.8247 180.042 69.4206 180.226Z" fill="#2C68FF"/>
<path d="M56.0367 168.933C55.0362 167.645 53.597 166.812 52.0948 166.651C52.0072 166.641 51.9115 166.636 51.8398 166.694C51.7441 166.771 51.7297 166.924 51.7272 167.058C51.6903 169.079 52.3021 171.108 53.4224 172.676C53.939 173.399 54.5831 174.041 55.3629 174.323C55.9271 174.526 56.6004 174.524 57.1375 174.216C57.6761 173.907 57.5778 173.466 57.5225 172.857C57.3919 171.411 56.8845 170.025 56.0367 168.933Z" fill="#2C68FF"/>
<path opacity="0.2" d="M56.0367 168.933C55.0362 167.645 53.597 166.812 52.0948 166.651C52.0072 166.641 51.9115 166.636 51.8398 166.694C51.7441 166.771 51.7297 166.924 51.7272 167.058C51.6903 169.079 52.3021 171.108 53.4224 172.676C53.939 173.399 54.5831 174.041 55.3629 174.323C55.9271 174.526 56.6004 174.524 57.1375 174.216C57.6761 173.907 57.5778 173.466 57.5225 172.857C57.3919 171.411 56.8845 170.025 56.0367 168.933Z" fill="#1E1F24"/>
<path d="M65.6869 169.852C64.946 168.523 64.4028 166.814 64.3788 165.005C64.3588 163.488 64.7029 162.007 65.1969 160.73C65.691 159.454 66.331 158.353 66.9669 157.262C67.1732 160.549 67.2332 163.862 67.1456 167.164C67.1272 167.865 67.0975 168.592 66.8957 169.209C66.694 169.826 66.2706 170.301 65.8579 170.147L65.6869 169.852Z" fill="#2C68FF"/>
<path d="M62.8257 159.801C64.2214 161.873 65.0984 164.878 65.2126 167.979C65.2531 169.075 65.1947 170.218 64.8732 171.177C64.5516 172.137 63.9188 172.867 63.2598 172.767C62.5717 172.663 62.0392 171.734 61.6506 170.786C61.005 169.21 60.2206 166.963 60.5882 165.022C60.9825 162.945 61.7612 161.084 62.8257 159.801Z" fill="#2C68FF"/>
<path opacity="0.1" d="M62.8257 159.801C64.2214 161.873 65.0984 164.878 65.2126 167.979C65.2531 169.075 65.1947 170.218 64.8732 171.177C64.5516 172.137 63.9188 172.867 63.2598 172.767C62.5717 172.663 62.0392 171.734 61.6506 170.786C61.005 169.21 60.2206 166.963 60.5882 165.022C60.9825 162.945 61.7612 161.084 62.8257 159.801Z" fill="#1E1F24"/>
<path d="M58.5904 171.359C57.4517 170.294 56.9863 168.511 57.0375 166.833C57.0887 165.155 57.5863 163.542 58.0784 161.959C59.1884 163.488 60.0936 165.209 60.752 167.046C61.0045 167.75 61.2231 168.485 61.2379 169.244C61.2528 170.004 61.0388 170.8 60.5421 171.306C60.045 171.813 59.2386 171.949 58.7005 171.5C58.7639 171.538 58.8274 171.576 58.8909 171.614L58.5904 171.359Z" fill="#2C68FF"/>
<g opacity="0.2">
<path d="M58.5904 171.359C57.4517 170.294 56.9863 168.511 57.0375 166.833C57.0887 165.155 57.5863 163.542 58.0784 161.959C59.1884 163.488 60.0936 165.209 60.752 167.046C61.0045 167.75 61.2231 168.485 61.2379 169.244C61.2528 170.004 61.0388 170.8 60.5421 171.306C60.045 171.813 59.2386 171.949 58.7005 171.5C58.7639 171.538 58.8274 171.576 58.8909 171.614L58.5904 171.359Z" fill="#1E1F24"/>
</g>
<path d="M55.9932 164.777C55.7091 166.849 55.43 168.971 55.7787 171.03C56.1274 173.09 57.2312 175.109 58.9577 175.835C59.676 176.137 60.6002 176.14 61.082 175.462C61.4061 175.006 61.4384 174.35 61.2924 173.787C61.1465 173.224 60.847 172.732 60.5521 172.251C59.1743 170.003 56.304 164.553 56.0117 164.782L55.9932 164.777Z" fill="#2C68FF"/>
<path d="M55.9932 164.777C55.7091 166.849 55.43 168.971 55.7787 171.03C56.1274 173.09 57.2312 175.109 58.9577 175.835C59.676 176.137 60.6002 176.14 61.082 175.462C61.4061 175.006 61.4384 174.35 61.2924 173.787C61.1465 173.224 60.847 172.732 60.5521 172.251C59.1743 170.003 56.304 164.553 56.0117 164.782L55.9932 164.777Z" fill="#2C68FF"/>
<g opacity="0.1">
<path d="M55.9932 164.777C55.7091 166.849 55.43 168.971 55.7787 171.03C56.1274 173.09 57.2312 175.109 58.9577 175.835C59.676 176.137 60.6002 176.14 61.082 175.462C61.4061 175.006 61.4384 174.35 61.2924 173.787C61.1465 173.224 60.847 172.732 60.5521 172.251C59.1743 170.003 56.304 164.553 56.0117 164.782L55.9932 164.777Z" fill="#1E1F24"/>
</g>
<path d="M61.3287 167.577C60.6544 168.805 60.0876 170.134 59.8552 171.559C59.6227 172.984 59.7476 174.518 60.3841 175.773C61.02 177.027 62.2099 177.952 63.4811 177.962C64.4642 177.969 65.4267 177.371 65.9597 176.432C66.5475 175.395 66.1179 174.454 65.6694 173.439C64.6506 171.133 62.9615 169.318 61.3287 167.577Z" fill="#2C68FF"/>
<path d="M48.6499 171.57C48.3043 172.134 48.3176 172.908 48.549 173.542C48.781 174.177 49.2018 174.695 49.6406 175.167C52.6215 178.372 56.8593 179.999 60.9348 179.504C61.2743 179.463 61.6573 179.375 61.8334 179.042C62.0269 178.674 61.8528 178.172 61.5549 177.91C61.2569 177.648 60.8719 177.562 60.5042 177.472C58.4173 176.958 56.4226 176.035 54.5993 174.771C52.772 173.503 50.6001 172.627 48.6499 171.57Z" fill="#2C68FF"/>
<path opacity="0.1" d="M48.6499 171.57C48.3043 172.134 48.3176 172.908 48.549 173.542C48.781 174.177 49.2018 174.695 49.6406 175.167C52.6215 178.372 56.8593 179.999 60.9348 179.504C61.2743 179.463 61.6573 179.375 61.8334 179.042C62.0269 178.674 61.8528 178.172 61.5549 177.91C61.2569 177.648 60.8719 177.562 60.5042 177.472C58.4173 176.958 56.4226 176.035 54.5993 174.771C52.772 173.503 50.6001 172.627 48.6499 171.57Z" fill="#1E1F24"/>
<path d="M55.6572 171.261C55.3546 170.809 54.9742 170.288 54.4781 170.345C54.0936 170.389 53.8109 170.781 53.6517 171.182C53.005 172.81 53.7782 174.805 55.0146 175.905C56.2511 177.005 57.8383 177.423 59.3697 177.811C59.895 177.944 60.4203 178.077 60.9457 178.21C61.5708 178.368 62.8257 178.157 62.2676 177.163C61.8934 176.498 60.641 176.119 60.0609 175.725C58.3621 174.573 56.8568 173.051 55.6572 171.261Z" fill="#2C68FF"/>
<path d="M55.8532 184.158C53.8851 184.015 51.9978 183.113 50.3768 181.833C50.0676 181.589 49.7292 181.197 49.8664 180.798C49.9626 180.518 50.2478 180.401 50.5013 180.315C52.3634 179.689 54.266 179.057 56.206 179.141C57.1219 179.181 58.041 179.404 58.8796 179.831C59.5345 180.164 60.8918 180.983 61.0833 181.867C61.2814 182.782 59.5811 183.449 58.9554 183.693C57.9631 184.082 56.8997 184.234 55.8532 184.158Z" fill="#2C68FF"/>
<path opacity="0.1" d="M55.8532 184.158C53.8851 184.015 51.9978 183.113 50.3768 181.833C50.0676 181.589 49.7292 181.197 49.8664 180.798C49.9626 180.518 50.2478 180.401 50.5013 180.315C52.3634 179.689 54.266 179.057 56.206 179.141C57.1219 179.181 58.041 179.404 58.8796 179.831C59.5345 180.164 60.8918 180.983 61.0833 181.867C61.2814 182.782 59.5811 183.449 58.9554 183.693C57.9631 184.082 56.8997 184.234 55.8532 184.158Z" fill="#1E1F24"/>
<path d="M63.6233 179.266C61.7084 178.826 59.7352 178.718 57.7921 178.948C57.3093 179.005 56.8168 179.087 56.3908 179.352C55.9648 179.617 55.6141 180.102 55.5982 180.654C55.5823 181.211 55.9085 181.722 56.3186 182.024C56.7287 182.327 57.2151 182.46 57.6908 182.585C59.0947 182.956 60.5339 183.316 61.9649 183.121C63.0166 182.978 64.2531 182.464 64.9335 181.486C65.8157 180.218 64.6524 179.502 63.6233 179.266Z" fill="#2C68FF"/>
<path opacity="0.1" d="M63.6233 179.266C61.7084 178.826 59.7352 178.718 57.7921 178.948C57.3093 179.005 56.8168 179.087 56.3908 179.352C55.9648 179.617 55.6141 180.102 55.5982 180.654C55.5823 181.211 55.9085 181.722 56.3186 182.024C56.7287 182.327 57.2151 182.46 57.6908 182.585C59.0947 182.956 60.5339 183.316 61.9649 183.121C63.0166 182.978 64.2531 182.464 64.9335 181.486C65.8157 180.218 64.6524 179.502 63.6233 179.266Z" fill="white"/>
<path d="M69.4645 179.248C69.8357 178.964 70.2059 178.643 70.4168 178.194C70.6277 177.745 70.6375 177.135 70.3272 176.768C69.8833 176.244 67.4134 175.5 66.7929 175.355C66.2747 175.235 65.7463 175.454 65.2569 175.683C64.5493 176.013 63.8509 176.368 63.1633 176.748C62.8208 176.937 62.4731 177.139 62.211 177.453C61.9488 177.768 61.7829 178.221 61.8792 178.641C62.0144 179.233 62.5811 179.535 63.0926 179.719C64.4141 180.195 65.8057 180.417 67.1907 180.371C67.0955 180.349 68.8506 179.719 69.4645 179.248Z" fill="#2C68FF"/>
<g opacity="0.1">
<path d="M69.4645 179.248C69.8357 178.964 70.2059 178.643 70.4168 178.194C70.6277 177.745 70.6375 177.135 70.3272 176.768C69.8833 176.244 67.4134 175.5 66.7929 175.355C66.2747 175.235 65.7463 175.454 65.2569 175.683C64.5493 176.013 63.8509 176.368 63.1633 176.748C62.8208 176.937 62.4731 177.139 62.211 177.453C61.9488 177.768 61.7829 178.221 61.8792 178.641C62.0144 179.233 62.5811 179.535 63.0926 179.719C64.4141 180.195 65.8057 180.417 67.1907 180.371C67.0955 180.349 68.8506 179.719 69.4645 179.248Z" fill="#1E1F24"/>
</g>
<path d="M64.4496 180.226C63.8424 180.413 63.2623 180.83 62.9766 181.468C62.6909 182.107 62.7733 182.978 63.2628 183.429C63.6186 183.756 64.104 183.815 64.5592 183.86C65.1214 183.916 65.6835 183.972 66.2457 184.028C66.6021 184.064 66.9922 184.09 67.283 183.853C67.6757 183.532 67.7095 182.894 67.7064 182.344C67.7034 181.819 67.6972 181.278 67.517 180.795C67.2866 180.177 66.8565 179.866 66.2964 179.955C65.6887 180.052 65.0456 180.042 64.4496 180.226Z" fill="#2C68FF"/>
<path d="M67.2309 168.105C67.127 168.024 67.0236 167.954 66.936 167.92C66.9719 167.905 67.0072 167.898 67.0364 167.902C67.0558 167.902 67.0753 167.909 67.0948 167.92H67.0978C67.1173 167.927 67.1337 167.942 67.1495 167.961C67.1659 167.979 67.1818 167.998 67.1951 168.023C67.2079 168.042 67.2176 168.06 67.2243 168.086C67.2274 168.09 67.2309 168.098 67.2309 168.105Z" fill="#2C68FF"/>
<path opacity="0.1" d="M67.234 168.105H67.2309C67.127 168.024 67.0236 167.954 66.936 167.92C66.9719 167.905 67.0072 167.898 67.0364 167.902C67.0558 167.902 67.0753 167.909 67.0948 167.92H67.0978C67.1173 167.927 67.1337 167.942 67.1495 167.961C67.1659 167.979 67.1818 167.998 67.1951 168.023C67.2079 168.042 67.2176 168.06 67.2243 168.086C67.2274 168.09 67.2309 168.098 67.234 168.105Z" fill="#2C68FF"/>
<path d="M69.3352 173.855C69.1243 174.424 68.8555 174.982 68.4628 175.411C68.0737 175.843 67.5453 176.142 67.0005 176.124C66.978 176.124 66.9585 176.124 66.9355 176.12H66.9324C66.9129 176.124 66.8904 176.124 66.8674 176.124C66.3226 176.142 65.7973 175.843 65.4051 175.411C65.016 174.982 64.7467 174.425 64.5327 173.855C64.2572 173.101 64.0657 172.281 64.1727 171.472C64.2925 170.581 64.7692 169.79 65.3595 169.184C65.5152 169.184 66.0082 168.608 66.1639 168.489C66.1767 168.482 66.19 168.471 66.2059 168.46C66.2187 168.445 66.2351 168.435 66.2545 168.42C66.3585 168.335 66.5008 168.209 66.6406 168.102C66.7056 168.054 66.7701 168.009 66.8285 167.972C66.8449 167.965 66.8643 167.954 66.8802 167.947C66.8996 167.935 66.9191 167.928 66.9355 167.921C67.023 167.954 67.127 168.024 67.2304 168.106H67.2335C67.4214 168.246 67.6098 168.42 67.7035 168.491C67.8622 168.609 68.3522 169.185 68.5109 169.185C69.1012 169.791 69.5779 170.582 69.6946 171.473C69.8052 172.281 69.6143 173.101 69.3352 173.855Z" fill="#2C68FF"/>
<path d="M66.9355 167.921C66.9192 167.928 66.8997 167.936 66.8802 167.946C66.8639 167.954 66.848 167.961 66.8285 167.972C66.7702 168.009 66.7051 168.053 66.6406 168.101C66.6826 167.983 66.7476 167.909 66.8352 167.902C66.8644 167.899 66.9002 167.906 66.9355 167.921Z" fill="#2C68FF"/>
<g opacity="0.2">
<path d="M69.3352 173.855C69.1243 174.424 68.8555 174.982 68.4628 175.411C68.0737 175.843 67.5453 176.142 67.0005 176.124C66.978 176.124 66.9585 176.124 66.9355 176.12H66.9324C66.9129 176.124 66.8904 176.124 66.8674 176.124C66.3226 176.142 65.7973 175.843 65.4051 175.411C65.016 174.982 64.7467 174.425 64.5327 173.855C64.2572 173.101 64.0657 172.281 64.1727 171.472C64.2925 170.581 64.7692 169.79 65.3595 169.184C65.5152 169.184 66.0082 168.608 66.1639 168.489C66.2612 168.419 66.4557 168.242 66.6406 168.101C66.7476 168.02 66.8479 167.953 66.9355 167.921C67.023 167.954 67.13 168.024 67.234 168.106C67.4219 168.246 67.6103 168.42 67.704 168.49C67.8627 168.608 68.3527 169.185 68.5114 169.185C69.1017 169.791 69.5784 170.581 69.6952 171.472C69.8052 172.281 69.6143 173.101 69.3352 173.855Z" fill="white"/>
<path d="M66.9355 167.921C66.848 167.954 66.7476 168.02 66.6406 168.101C66.6826 167.983 66.7476 167.909 66.8352 167.902C66.8644 167.899 66.9002 167.906 66.9355 167.921Z" fill="white"/>
</g>
<path opacity="0.1" d="M67.234 168.105C67.1301 168.024 67.0231 167.954 66.9355 167.92C66.9714 167.905 67.0067 167.898 67.0359 167.902C67.124 167.909 67.1885 167.983 67.234 168.105Z" fill="white"/>
<path d="M164.19 121.755H178.224C178.681 121.755 178.886 121.384 178.683 120.925L175.162 112.976C174.958 112.517 174.423 112.146 173.966 112.146H159.932C159.475 112.146 159.27 112.517 159.473 112.976L162.994 120.925C163.198 121.384 163.733 121.755 164.19 121.755Z" fill="#2C68FF"/>
<path opacity="0.2" d="M164.19 121.755H178.224C178.681 121.755 178.886 121.384 178.683 120.925L175.162 112.976C174.958 112.517 174.423 112.146 173.966 112.146H159.932C159.475 112.146 159.27 112.517 159.473 112.976L162.994 120.925C163.198 121.384 163.733 121.755 164.19 121.755Z" fill="#1E1F24"/>
<path d="M159.327 112.146H159.933C159.476 112.146 159.27 112.518 159.473 112.977L162.995 120.925C163.198 121.384 163.733 121.756 164.191 121.756H163.584C163.127 121.756 162.592 121.384 162.389 120.925L158.867 112.977C158.663 112.518 158.869 112.146 159.327 112.146Z" fill="#2C68FF"/>
<path opacity="0.4" d="M159.327 112.146H159.933C159.476 112.146 159.27 112.518 159.473 112.977L162.995 120.925C163.198 121.384 163.733 121.756 164.191 121.756H163.584C163.127 121.756 162.592 121.384 162.389 120.925L158.867 112.977C158.663 112.518 158.869 112.146 159.327 112.146Z" fill="#1E1F24"/>
<path d="M164.45 120.841H177.154L173.706 113.06H161.003L164.45 120.841Z" fill="#1E1F24"/>
<path opacity="0.8" d="M164.45 120.841H177.154L173.706 113.06H161.003L164.45 120.841Z" fill="white"/>
<path d="M158.689 187.402L157.829 191.468L153.428 190.889L154.068 186.375L158.689 187.402Z" fill="#FAB27B"/>
<path d="M151.192 190.887C150.618 190.831 150.036 190.667 149.87 190.401C149.786 190.246 149.808 190.055 149.925 189.924C150.015 189.804 150.147 189.725 150.295 189.701C151.086 189.564 152.606 190.646 152.673 190.694C152.711 190.721 152.727 190.769 152.715 190.814C152.702 190.858 152.663 190.89 152.618 190.895C152.143 190.934 151.667 190.932 151.192 190.887ZM150.547 189.913C150.476 189.905 150.405 189.907 150.335 189.92C150.243 189.927 150.158 189.975 150.106 190.053C150.011 190.181 150.033 190.25 150.061 190.291C150.245 190.613 151.409 190.735 152.278 190.713C151.756 190.339 151.169 190.067 150.547 189.913Z" fill="#2C68FF"/>
<path d="M152.6 190.891C152.585 190.895 152.569 190.891 152.555 190.883C152.027 190.583 151.017 189.469 151.166 188.957C151.189 188.832 151.298 188.689 151.602 188.688C151.825 188.687 152.038 188.776 152.193 188.936C152.733 189.479 152.734 190.741 152.734 190.8C152.733 190.84 152.711 190.876 152.676 190.895C152.651 190.903 152.624 190.902 152.6 190.891ZM151.655 188.904L151.593 188.892C151.395 188.889 151.374 188.968 151.363 188.995C151.304 189.306 151.955 190.164 152.494 190.56C152.49 190.029 152.325 189.512 152.02 189.079C151.923 188.978 151.793 188.916 151.655 188.904Z" fill="#2C68FF"/>
<path d="M153.152 190.293L158.19 190.789C158.38 190.808 158.531 190.956 158.555 191.146L159.063 195.351C159.111 195.724 158.849 196.064 158.478 196.113C158.43 196.119 158.382 196.12 158.335 196.116C156.522 195.905 154.917 195.646 152.655 195.426C149.986 195.164 150.632 195.551 147.491 195.288C145.598 195.126 145.463 192.936 146.275 192.908C149.989 192.806 150.478 191.732 152.022 190.553C152.354 190.33 152.756 190.237 153.152 190.293Z" fill="#1E1F24"/>
<path opacity="0.2" d="M153.732 188.748L158.328 189.109L158.689 187.402L154.068 186.375L153.732 188.748Z" fill="#1E1F24"/>
<path d="M157.461 153.748L153.12 185.774L159.866 186.306L167.721 154.556L157.461 153.748Z" fill="#1E1F24"/>
<path opacity="0.3" d="M157.461 153.748L153.12 185.774L159.866 186.306L167.721 154.556L157.461 153.748Z" fill="#1E1F24"/>
<path d="M160.483 185.836L152.357 185.19C152.357 185.19 151.652 186.252 152.421 187.206L160.272 187.915C160.272 187.915 161.046 187.466 160.483 185.836Z" fill="#2C68FF"/>
<path d="M165.218 122.1L163.566 118.092C163.425 117.873 163.216 117.706 162.972 117.616L162.143 117.312C161.965 117.246 161.804 117.139 161.675 116.999L161.293 116.586C160.947 116.21 160.401 116.096 159.934 116.301L159.577 116.457C159.216 116.615 158.95 116.941 158.879 117.33C158.662 118.513 158.494 121.096 160.621 122.836L163.003 123.819L165.218 122.1Z" fill="#FAB27B"/>
<path d="M163.003 123.817L166.167 128.596L168.386 126.242L165.218 122.1L163.003 123.817Z" fill="#FAB27B"/>
<path d="M182.155 112.451C181.991 112.125 179.448 113.076 176.473 114.577C173.498 116.077 171.219 117.557 171.382 117.883C171.546 118.209 174.089 117.258 177.064 115.757C180.039 114.257 182.318 112.777 182.155 112.451Z" fill="#1E1F24"/>
<path d="M178.353 113.675C178.63 113.549 178.898 113.43 179.155 113.32L179.67 114.348C179.429 114.488 179.173 114.634 178.907 114.781L178.353 113.675Z" fill="#2C68FF"/>
<path opacity="0.5" d="M178.353 113.675C178.63 113.549 178.898 113.43 179.155 113.32L179.67 114.348C179.429 114.488 179.173 114.634 178.907 114.781L178.353 113.675Z" fill="white"/>
<path d="M181.243 112.352C181.385 111.675 178.701 112.874 178.546 112.95C178.359 113.042 178.233 112.743 178.419 112.651C178.608 112.558 181.855 110.996 181.564 112.392C181.522 112.596 181.201 112.557 181.243 112.352Z" fill="#2C68FF"/>
<g opacity="0.2">
<path d="M181.243 112.352C181.385 111.675 178.701 112.874 178.546 112.95C178.359 113.042 178.233 112.743 178.419 112.651C178.608 112.558 181.855 110.996 181.564 112.392C181.522 112.596 181.201 112.557 181.243 112.352Z" fill="#1E1F24"/>
</g>
<path d="M181.385 123.22L178.762 118.748C178.762 118.748 178.88 116.772 177.513 114.412C177.418 114.247 176.529 113.527 176.529 113.527C175.501 114.05 174.795 114.57 174.482 114.81C173.531 115.542 173.278 116.075 174.443 117.856C175.413 119.338 176.559 120.164 176.559 120.164L179.036 125.235L181.385 123.22Z" fill="#FAB27B"/>
<path d="M181.974 122.681L180.837 120.871C180.837 120.871 178.745 121.177 177.368 123.568L178.328 125.656L181.974 122.681Z" fill="#2C68FF"/>
<path d="M195.133 112.691C193.149 112.827 191.423 112.477 188.037 123.191C187.407 125.185 185.785 127.17 185.785 127.17L182.057 122.059C182.057 122.059 179.612 122.202 177.924 125.198C177.924 125.198 180.799 134.877 186.197 134.177C191.595 133.476 194.604 127.257 195.795 123.545C196.986 119.833 199.523 112.391 195.133 112.691Z" fill="#1E1F24"/>
<path d="M185.512 107.806L185.143 111.116L190.689 111.142L190.809 106.955L185.512 107.806Z" fill="#FAB27B"/>
<path opacity="0.2" d="M185.378 109.404C186.775 109.033 187.708 107.377 187.708 107.377L186.531 107.607L185.512 107.806L185.378 109.404Z" fill="#1E1F24"/>
<path d="M183.997 98.4963C183.891 98.759 183.945 99.0262 184.12 99.0946C184.296 99.1624 184.54 98.998 184.635 98.7399C184.731 98.4819 184.688 98.21 184.51 98.1442C184.333 98.0784 184.104 98.2352 183.997 98.4963Z" fill="#1E1F24"/>
<path d="M184.681 99.1995L182.558 100.749C182.558 100.749 183.056 101.507 184.158 101.528L184.681 99.1995Z" fill="#ED893E"/>
<path d="M185.014 96.905C185.064 96.9101 185.108 96.9389 185.132 96.9826C185.295 97.3187 185.614 97.5536 185.988 97.6138C186.07 97.621 186.129 97.6914 186.122 97.7726C186.112 97.8538 186.039 97.914 185.956 97.9083C185.481 97.842 185.072 97.549 184.864 97.1245C184.825 97.0525 184.854 96.962 184.928 96.923L184.929 96.9224C184.955 96.9091 184.984 96.9034 185.014 96.905Z" fill="#1E1F24"/>
<path d="M194.6 101.545C193.356 105.096 192.907 106.629 190.521 107.98C187.141 109.099 182.741 107.74 182.878 103.893C182.999 100.431 185.009 95.218 189.035 94.7364C191.906 94.3941 194.516 96.3945 194.866 99.2046C194.963 99.9941 194.873 100.795 194.6 101.545Z" fill="#FAB27B"/>
<path d="M196.358 104.45C195.437 105.205 194.596 106.045 193.781 106.915C193.285 107.443 192.694 107.881 192.04 108.191C190.734 108.813 189.184 108.798 187.805 108.364C187.805 108.364 184.116 105.091 186.578 99.0108C185.636 98.3385 185.059 97.1794 185.091 96.0193C185.122 94.8592 185.759 93.733 186.736 93.1126C187.9 92.3735 189.7 92.8413 190.773 93.7068C192.22 93.3594 193.757 93.8924 194.846 94.9106C195.935 95.9289 196.616 97.312 197.111 98.7204C197.535 99.9242 197.842 101.222 197.584 102.472C197.43 103.217 196.971 103.947 196.358 104.45Z" fill="#1E1F24"/>
<path d="M186.929 100.311C186.224 100.646 185.686 101.243 185.432 101.969C185.103 102.934 185.973 103.476 186.929 103.258C187.796 103.061 189.002 102.319 188.916 101.324C188.83 100.329 187.795 99.9098 186.929 100.311Z" fill="#FAB27B"/>
<path d="M191.908 108.944C190.678 108.41 188.462 108.358 185.255 108.859C184.899 108.914 184.621 109.259 184.495 109.598C184.37 109.937 184.546 110.403 184.903 110.449C184.875 110.921 184.759 111.434 184.731 111.907C185.634 111.812 186.629 112.013 187.536 112.06C188.985 112.133 190.418 112.386 191.847 112.638C191.759 111.956 191.55 111.233 191.707 110.565C192.038 110.626 192.368 110.306 192.455 109.981C192.542 109.654 192.216 109.079 191.908 108.944Z" fill="#2C68FF"/>
<path d="M191.908 108.944C190.678 108.41 188.462 108.358 185.255 108.859C184.899 108.914 184.621 109.259 184.495 109.598C184.37 109.937 184.546 110.403 184.903 110.449C184.875 110.921 184.759 111.434 184.731 111.907C185.634 111.812 186.629 112.013 187.536 112.06C188.985 112.133 190.418 112.386 191.847 112.638C191.759 111.956 191.55 111.233 191.707 110.565C192.038 110.626 192.368 110.306 192.455 109.981C192.542 109.654 192.216 109.079 191.908 108.944Z" fill="#2C68FF"/>
<path d="M176.769 144.206C176.769 144.206 175.628 128.937 175.699 117.922C175.752 109.798 181.559 111.258 189.035 111.296C194.962 111.327 196.982 111.837 197.79 115.083C198.598 118.328 194.607 144.295 194.607 144.295L176.769 144.206Z" fill="#2C68FF"/>
<path opacity="0.5" d="M176.769 144.206C176.769 144.206 175.628 128.937 175.699 117.922C175.752 109.798 181.559 111.258 189.035 111.296C194.962 111.327 196.982 111.837 197.79 115.083C198.598 118.328 194.607 144.295 194.607 144.295L176.769 144.206Z" fill="#1E1F24"/>
<path d="M165.809 122.651C165.389 122.671 164.894 122.8 164.439 123.183C164.014 123.54 163.296 124.226 163.029 125.079C162.535 124.249 161.856 123.545 161.046 123.02L161.002 122.992C161.264 119.381 164.211 119.657 164.211 119.657L164.285 119.841C164.697 120.829 165.206 121.772 165.809 122.651Z" fill="#2C68FF"/>
<path opacity="0.2" d="M165.809 122.651C165.389 122.671 164.894 122.8 164.439 123.183C164.014 123.54 163.296 124.226 163.029 125.079C162.535 124.249 161.856 123.545 161.046 123.02L161.002 122.992C161.264 119.381 164.211 119.657 164.211 119.657L164.285 119.841C164.697 120.829 165.206 121.772 165.809 122.651Z" fill="#1E1F24"/>
<path d="M173.664 135.483C168.223 135.363 163.005 126.331 163.005 126.331C162.876 125.889 162.906 125.467 163.029 125.079C163.296 124.225 164.014 123.54 164.439 123.183C164.894 122.8 165.389 122.671 165.809 122.651C166.378 122.621 166.803 122.791 166.803 122.791C166.803 122.791 170.815 127.761 171.794 127.314C172.764 126.868 173.149 125.22 173.506 123.158C175.412 112.146 177.51 111.815 179.349 111.766C183.167 111.666 178.481 135.587 173.664 135.483Z" fill="#2C68FF"/>
<g opacity="0.1">
<path d="M173.664 135.483C168.223 135.363 163.005 126.331 163.005 126.331C162.876 125.889 162.906 125.467 163.029 125.079C163.296 124.225 164.014 123.54 164.439 123.183C164.894 122.8 165.389 122.671 165.809 122.651C166.378 122.621 166.803 122.791 166.803 122.791C166.803 122.791 170.815 127.761 171.794 127.314C172.764 126.868 173.149 125.22 173.506 123.158C175.412 112.146 177.51 111.815 179.349 111.766C183.167 111.666 178.481 135.587 173.664 135.483Z" fill="white"/>
</g>
<path d="M194.607 144.295C194.607 144.295 195.072 148.943 195.006 150.578C194.659 159.251 186.477 162.311 179.955 161.109L156.78 158.588C155.843 161.739 144.925 179.089 144.925 179.089L139.185 175.781C139.185 175.781 145.136 161.457 148.977 151.49C151.17 145.799 168.581 145.628 175.155 146.798C177.153 147.339 176.768 144.206 176.768 144.206L194.607 144.295Z" fill="#1E1F24"/>
<path d="M143.46 179.411L141.268 183.079L137.179 181.037L139.306 176.86L143.46 179.411Z" fill="#FAB27B"/>
<path d="M135.004 180.284C134.464 180.037 133.951 179.682 133.879 179.366C133.848 179.188 133.934 179.009 134.091 178.921C134.218 178.835 134.374 178.802 134.525 178.828C135.341 178.961 136.459 180.524 136.508 180.593C136.536 180.632 136.537 180.684 136.509 180.724C136.481 180.763 136.434 180.78 136.387 180.77C135.913 180.649 135.45 180.486 135.004 180.284ZM134.699 179.12C134.633 179.088 134.563 179.066 134.491 179.055C134.398 179.03 134.3 179.049 134.224 179.106C134.089 179.2 134.088 179.274 134.101 179.323C134.173 179.699 135.264 180.208 136.118 180.479C135.735 179.94 135.253 179.479 134.699 179.12Z" fill="#2C68FF"/>
<path d="M136.372 180.761C136.356 180.759 136.341 180.751 136.331 180.738C135.917 180.269 135.305 178.845 135.621 178.398C135.685 178.284 135.839 178.181 136.136 178.282C136.352 178.355 136.53 178.514 136.628 178.721C136.973 179.431 136.553 180.66 136.534 180.717C136.52 180.755 136.486 180.783 136.445 180.789C136.418 180.789 136.392 180.779 136.372 180.761ZM136.115 178.51L136.058 178.477C135.866 178.408 135.82 178.477 135.8 178.5C135.639 178.784 135.986 179.836 136.378 180.403C136.552 179.885 136.563 179.326 136.41 178.803C136.351 178.673 136.245 178.568 136.115 178.51Z" fill="#2C68FF"/>
<path d="M137.108 180.364L141.845 182.539C142.024 182.621 142.122 182.816 142.082 183.009L141.175 187.271C141.097 187.65 140.729 187.893 140.352 187.815C140.303 187.805 140.256 187.79 140.211 187.77C138.517 186.956 137.041 186.165 134.914 185.192C132.405 184.04 132.904 184.634 129.935 183.322C128.147 182.529 128.746 180.352 129.545 180.598C133.193 181.746 134.027 180.865 135.922 180.237C136.319 180.132 136.742 180.177 137.108 180.364Z" fill="#1E1F24"/>
<path opacity="0.2" d="M142.346 181.274L143.46 179.411L139.305 176.86L138.278 178.879L142.346 181.274Z" fill="#1E1F24"/>
<path d="M145.835 179.391L138.718 174.933C138.718 174.933 137.573 175.568 137.825 176.805L144.661 181.189C144.661 181.189 145.58 181.147 145.835 179.391Z" fill="#2C68FF"/>
<path d="M186.08 162.452H197.88C202.429 162.452 206.214 158.942 206.573 154.389L208.252 133.108C208.525 129.658 205.81 126.708 202.363 126.708H195.844C188.236 126.708 181.531 131.723 179.353 139.041L174.832 154.237C174.074 156.784 171.74 158.529 169.092 158.529H160.844C158.686 158.529 156.936 160.286 156.936 162.453H179.128H186.08V162.452Z" fill="#2C68FF"/>
<path d="M180.771 162.452C181.094 167.516 181.965 185.96 180.665 190.02C179.521 193.592 174.291 194.443 171.202 196.338C170.683 196.656 170.861 197.666 171.435 197.666H195.503C196.078 197.666 196.256 196.656 195.736 196.338C192.648 194.444 187.418 193.592 186.274 190.02C184.974 185.96 185.844 167.515 186.168 162.452H180.771Z" fill="#2C68FF"/>
<path opacity="0.2" d="M180.993 166.28H185.945C186.027 164.728 186.107 163.403 186.167 162.452H180.771C180.832 163.403 180.912 164.728 180.993 166.28Z" fill="#1E1F24"/>
<path opacity="0.7" d="M186.08 162.452H197.88C202.429 162.452 206.214 158.942 206.573 154.389L208.252 133.108C208.525 129.658 205.81 126.708 202.363 126.708H195.844C188.236 126.708 181.531 131.723 179.353 139.041L174.832 154.237C174.074 156.784 171.74 158.529 169.092 158.529H160.844C158.686 158.529 156.936 160.286 156.936 162.453H179.128H186.08V162.452Z" fill="white"/>
</g>
<defs>
<clipPath id="clip0_2901_36715">
<rect width="256" height="220" fill="white" transform="translate(0.0444336 0.000244141)"/>
</clipPath>
</defs>
</svg>
