<svg width="180" height="183" viewBox="0 0 180 183" fill="none" xmlns="http://www.w3.org/2000/svg">
<path d="M90 180C139.706 180 180 139.706 180 90.0002C180 40.2946 139.706 0.000244141 90 0.000244141C40.2944 0.000244141 0 40.2946 0 90.0002C0 139.706 40.2944 180 90 180Z" fill="#E6EDFF"/>
<g filter="url(#filter0_d_1299_10658)">
<mask id="mask0_1299_10658" style="mask-type:alpha" maskUnits="userSpaceOnUse" x="0" y="0" width="180" height="181">
<path d="M90 180C139.706 180 180 139.706 180 90.0002C180 40.2946 139.706 0.000244141 90 0.000244141C40.2944 0.000244141 0 40.2946 0 90.0002C0 139.706 40.2944 180 90 180Z" fill="url(#paint0_linear_1299_10658)"/>
</mask>
<g mask="url(#mask0_1299_10658)">
<path d="M141.6 51.6002H38.3999C35.0862 51.6002 32.3999 54.2865 32.3999 57.6002V183.6C32.3999 186.914 35.0862 189.6 38.3999 189.6H141.6C144.914 189.6 147.6 186.914 147.6 183.6V57.6002C147.6 54.2865 144.914 51.6002 141.6 51.6002Z" fill="white"/>
</g>
</g>
<path d="M79.1999 63.6002H47.9999C46.0117 63.6002 44.3999 65.212 44.3999 67.2002C44.3999 69.1884 46.0117 70.8002 47.9999 70.8002H79.1999C81.1881 70.8002 82.7999 69.1884 82.7999 67.2002C82.7999 65.212 81.1881 63.6002 79.1999 63.6002Z" fill="#E6EDFF"/>
<path d="M79.1999 114H47.9999C46.0117 114 44.3999 115.612 44.3999 117.6C44.3999 119.588 46.0117 121.2 47.9999 121.2H79.1999C81.1881 121.2 82.7999 119.588 82.7999 117.6C82.7999 115.612 81.1881 114 79.1999 114Z" fill="#E6EDFF"/>
<path d="M129.6 81.6002H50.3996C47.7486 81.6002 45.5996 83.7493 45.5996 86.4002V98.4002C45.5996 101.051 47.7486 103.2 50.3996 103.2H129.6C132.251 103.2 134.4 101.051 134.4 98.4002V86.4002C134.4 83.7493 132.251 81.6002 129.6 81.6002Z" stroke="#0046FA" stroke-width="2"/>
<path d="M129.6 130.8H50.3999C47.0862 130.8 44.3999 133.487 44.3999 136.8V146.4C44.3999 149.714 47.0862 152.4 50.3999 152.4H129.6C132.914 152.4 135.6 149.714 135.6 146.4V136.8C135.6 133.487 132.914 130.8 129.6 130.8Z" fill="#E6EDFF"/>
<path d="M63.5998 38.4002C66.2508 38.4002 68.3998 36.2512 68.3998 33.6002C68.3998 30.9493 66.2508 28.8002 63.5998 28.8002C60.9488 28.8002 58.7998 30.9493 58.7998 33.6002C58.7998 36.2512 60.9488 38.4002 63.5998 38.4002Z" fill="white"/>
<path d="M89.9997 38.4002C92.6507 38.4002 94.7997 36.2512 94.7997 33.6002C94.7997 30.9493 92.6507 28.8002 89.9997 28.8002C87.3487 28.8002 85.1997 30.9493 85.1997 33.6002C85.1997 36.2512 87.3487 38.4002 89.9997 38.4002Z" fill="#0046FA"/>
<path d="M116.4 38.4002C119.051 38.4002 121.2 36.2512 121.2 33.6002C121.2 30.9493 119.051 28.8002 116.4 28.8002C113.749 28.8002 111.6 30.9493 111.6 33.6002C111.6 36.2512 113.749 38.4002 116.4 38.4002Z" fill="white"/>
<path d="M103.2 105.6C106.514 105.6 109.2 102.914 109.2 99.6002C109.2 96.2865 106.514 93.6003 103.2 93.6003C99.8865 93.6003 97.2002 96.2865 97.2002 99.6002C97.2002 102.914 99.8865 105.6 103.2 105.6Z" fill="#E6EDFF"/>
<path d="M107.889 125.244C106.929 125.244 106.032 125.244 105.216 125.193C104.211 125.125 103.244 124.781 102.422 124.199C101.6 123.617 100.954 122.819 100.555 121.894L95.4926 111.888C95.1213 111.456 94.9359 110.894 94.9768 110.326C95.0177 109.757 95.2816 109.228 95.711 108.853C96.0628 108.571 96.5017 108.418 96.953 108.423C97.2853 108.432 97.6115 108.514 97.9092 108.662C98.2069 108.81 98.469 109.02 98.6774 109.279L100.977 112.417L101.011 112.458V100.536C101.011 99.9448 101.246 99.3775 101.665 98.9593C102.083 98.541 102.65 98.3061 103.242 98.3061C103.833 98.3061 104.4 98.541 104.819 98.9593C105.237 99.3775 105.472 99.9448 105.472 100.536V108.336C105.446 108.049 105.48 107.76 105.572 107.487C105.664 107.214 105.812 106.963 106.007 106.75C106.201 106.537 106.438 106.367 106.701 106.251C106.965 106.135 107.25 106.075 107.538 106.075C107.826 106.075 108.111 106.135 108.375 106.251C108.639 106.367 108.875 106.537 109.07 106.75C109.264 106.963 109.412 107.214 109.504 107.487C109.596 107.76 109.631 108.049 109.605 108.336V109.962C109.579 109.675 109.613 109.386 109.705 109.113C109.797 108.84 109.945 108.589 110.139 108.376C110.334 108.163 110.57 107.993 110.834 107.877C111.098 107.761 111.383 107.701 111.671 107.701C111.959 107.701 112.244 107.761 112.508 107.877C112.772 107.993 113.008 108.163 113.203 108.376C113.397 108.589 113.545 108.84 113.637 109.113C113.729 109.386 113.763 109.675 113.737 109.962V111.215C113.711 110.928 113.746 110.639 113.838 110.366C113.93 110.093 114.078 109.842 114.272 109.629C114.467 109.416 114.703 109.246 114.967 109.13C115.231 109.014 115.516 108.954 115.804 108.954C116.092 108.954 116.377 109.014 116.641 109.13C116.904 109.246 117.141 109.416 117.335 109.629C117.53 109.842 117.678 110.093 117.77 110.366C117.862 110.639 117.896 110.928 117.87 111.215V118.819C117.829 121.158 116.772 125.101 113.053 125.101C112.783 125.113 110.496 125.245 107.893 125.245L107.889 125.244Z" fill="#0046FA" stroke="white"/>
<defs>
<filter id="filter0_d_1299_10658" x="26.3999" y="42.6002" width="127.2" height="140.4" filterUnits="userSpaceOnUse" color-interpolation-filters="sRGB">
<feFlood flood-opacity="0" result="BackgroundImageFix"/>
<feColorMatrix in="SourceAlpha" type="matrix" values="0 0 0 0 0 0 0 0 0 0 0 0 0 0 0 0 0 0 127 0" result="hardAlpha"/>
<feOffset dy="-3"/>
<feGaussianBlur stdDeviation="3"/>
<feColorMatrix type="matrix" values="0 0 0 0 0.788235 0 0 0 0 0.803922 0 0 0 0 0.85098 0 0 0 0.349 0"/>
<feBlend mode="normal" in2="BackgroundImageFix" result="effect1_dropShadow_1299_10658"/>
<feBlend mode="normal" in="SourceGraphic" in2="effect1_dropShadow_1299_10658" result="shape"/>
</filter>
<linearGradient id="paint0_linear_1299_10658" x1="90" y1="0.000244141" x2="90" y2="180" gradientUnits="userSpaceOnUse">
<stop stop-color="#E3ECFA"/>
<stop offset="1" stop-color="#DAE7FF"/>
</linearGradient>
</defs>
</svg>
