<svg width="30" height="18" viewBox="0 0 30 18" fill="none" xmlns="http://www.w3.org/2000/svg">
<g clip-path="url(#clip0_1727_16631)">
<path d="M11.3687 1.92267H19.2021V16.0778H11.3687V1.92267Z" fill="#FF5F00"/>
<path d="M11.8661 9.00025C11.8661 6.12424 13.209 3.57325 15.273 1.92261C13.7561 0.722189 11.8413 -0.00305176 9.75242 -0.00305176C4.8035 -0.00305176 0.799805 4.02337 0.799805 9.00025C0.799805 13.977 4.8035 18.0036 9.75231 18.0036C11.8412 18.0036 13.756 17.2783 15.273 16.0778C13.209 14.4522 11.8661 11.8763 11.8661 9.00025Z" fill="#EB001B"/>
<path d="M29.771 9.00025C29.771 13.977 25.7673 18.0036 20.8185 18.0036C18.7296 18.0036 16.8148 17.2783 15.2979 16.0778C17.3868 14.4273 18.7048 11.8763 18.7048 9.00025C18.7048 6.12424 17.3618 3.57325 15.2979 1.92261C16.8147 0.722189 18.7296 -0.00305176 20.8185 -0.00305176C25.7673 -0.00305176 29.771 4.04843 29.771 9.00025Z" fill="#F79E1B"/>
</g>
<defs>
<clipPath id="clip0_1727_16631">
<rect width="29" height="18" fill="white" transform="translate(0.799805 -0.00305176)"/>
</clipPath>
</defs>
</svg>
