<svg fill="none" height="33" viewBox="0 0 33 33" width="33" xmlns="http://www.w3.org/2000/svg"><g fill="#333"><path clip-rule="evenodd" d="m0 16.9785c0-8.82527 7.17421-15.997657 16.0017-15.997657 8.8275 0 16.0017 7.172387 16.0017 15.997657 0 8.8252-7.1742 15.9976-16.0017 15.9976-8.82749 0-16.0017-7.1724-16.0017-15.9976zm30.0013 0c0-7.73349-6.2642-13.99606-13.9996-13.99606-7.72026 0-13.99959 6.27774-13.99959 13.99606 0 7.7334 6.26416 13.996 13.99959 13.996 7.7202 0 13.9996-6.2778 13.9996-13.996z" fill-rule="evenodd"/><path d="m5.03962 17.6779c.09235.4089.30014.7656.53102.9439.58777 1.3526 1.28972 2.3154 2.18786 2.7359-.28977.6527-.76546 1.2754-1.33083 1.3849-1.1895.2036-2.49817.6347-3.04092 1.0724l1.10559 1.7269c.93482-.7588 2.5487-1.611 5.74326-2.047.7523-.1027 1.2946-.2302 1.7644-.529-.6387-.1237-1.3515-1.0785-1.6655-1.855.3222-.2282.6174-.5333.8902-.9067-.4329-.668-.7695-1.387-1.1264-2.0971-.47788-.5517-.82737-1.0563-1.0001-1.7857-.19014-.7979-.21632-2.1689.64646-2.6131-.05964-.5535-.13974-1.1058-.13974-1.6633-1.52482-.2637-3.43773.3194-4.07438 1.9474-.31997.8182-.18346 1.7896-.05833 2.631-.04822-.0095-.06084-.0096-.08384-.0096-.32688 0-.48363.4756-.34875 1.0641z"/><path d="m26.9604 17.6779c-.0924.4089-.3002.7656-.531.9439-.5878 1.3526-1.2898 2.3154-2.1879 2.7359.2898.6527.7655 1.2754 1.3308 1.3849 1.1895.2036 2.4982.6347 3.0409 1.0724l-1.1055 1.7269c-.9349-.7588-2.5487-1.611-5.7433-2.047-.7523-.1027-1.2946-.2302-1.7644-.529.6387-.1237 1.3515-1.0785 1.6655-1.855-.3222-.2282-.6174-.5333-.8902-.9067.4329-.668.7695-1.387 1.1264-2.0971.4779-.5517.8274-1.0563 1.0001-1.7857.1901-.7979.2163-2.1689-.6465-2.6131.0597-.5535.1398-1.1058.1398-1.6633 1.5248-.2637 3.4377.3194 4.0744 1.9474.3199.8182.1834 1.7896.0583 2.631.0482-.0095.0608-.0096.0838-.0096.3269 0 .4837.4756.3488 1.0641z"/><path d="m26.9857 27.1944c-2.7383 2.9439-6.6482 4.8049-10.9857 4.8056-4.3269-.0083-8.25317-1.8678-10.98581-4.8057.03963-.6892.18382-.9542.68304-1.296.98154-.7197 3.34174-1.4286 5.49097-1.7654.9914-.1744 1.8297-1.1492 2.3564-2.192-1.0195-.9352-1.8607-2.3994-2.5876-4.0219-.3564-.2668-.677-.8006-.8222-1.4133-.20801-.8775.0347-1.5927.5406-1.5905.0338-.0084.09.0046.124.0124l.0016.0004c-.1897-1.2653-.4045-2.7158.0932-3.939.6058-1.48899 2.1058-2.98899 5.1068-3.00815 3.0011-.01916 4.5353 1.51916 5.1058 3.00815.4738 1.2366.2841 2.6673.091 3.939.0051-.001.0119-.0026.0198-.0044.0343-.0079.0888-.0204.1069-.0084.507-.0022.7508.713.5428 1.5905-.1452.6127-.4669 1.1465-.8233 1.4133-.7265 1.6231-1.5682 3.0878-2.5883 4.023.5266 1.0424 1.3642 2.0166 2.3561 2.1909 2.1492.3368 4.5094 1.0457 5.4921 1.7654.4975.3419.642.6068.6818 1.2961z"/></g></svg>