<svg width="24" height="24" viewBox="0 0 24 24" fill="none" xmlns="http://www.w3.org/2000/svg">
<path fill-rule="evenodd" clip-rule="evenodd" d="M11.4843 2.41968C11.7735 2.14575 12.2265 2.14575 12.5157 2.41968C14.5325 4.32965 17.2538 5.49998 20.25 5.49998C20.2977 5.49998 20.3453 5.49969 20.3928 5.4991C20.7202 5.49503 21.0123 5.70378 21.1146 6.01479C21.5271 7.26955 21.75 8.60951 21.75 10C21.75 15.942 17.6859 20.933 12.1869 22.3483C12.0643 22.3799 11.9357 22.3799 11.8131 22.3483C6.31406 20.933 2.25 15.942 2.25 10C2.25 8.60951 2.47287 7.26955 2.88541 6.01479C2.98767 5.70378 3.27984 5.49503 3.60721 5.4991C3.65473 5.49969 3.70233 5.49998 3.75 5.49998C6.74624 5.49998 9.46752 4.32965 11.4843 2.41968ZM12 8.49997C12.4142 8.49997 12.75 8.83576 12.75 9.24997V13C12.75 13.4142 12.4142 13.75 12 13.75C11.5858 13.75 11.25 13.4142 11.25 13V9.24997C11.25 8.83576 11.5858 8.49997 12 8.49997ZM12 15.25C11.5858 15.25 11.25 15.5858 11.25 16V16.0075C11.25 16.4217 11.5858 16.7575 12 16.7575H12.0075C12.4217 16.7575 12.7575 16.4217 12.7575 16.0075V16C12.7575 15.5858 12.4217 15.25 12.0075 15.25H12Z" fill="#0046FA"/>
</svg>
