<svg width="72" height="72" viewBox="0 0 72 72" fill="none" xmlns="http://www.w3.org/2000/svg">
<mask id="mask0_3147_11386" style="mask-type:luminance" maskUnits="userSpaceOnUse" x="0" y="0" width="72" height="73">
<path d="M72 0.000244141H0V72.0002H72V0.000244141Z" fill="white"/>
</mask>
<g mask="url(#mask0_3147_11386)">
<path d="M72.0002 36.0003C72 45.548 68.2071 54.7046 61.4558 61.4559C54.7045 68.2072 45.548 72.0001 36.0002 72.0003C35.5078 72.0003 35.0247 71.9911 34.5324 71.9725C31.9025 71.8651 29.2922 71.4726 26.7471 70.8019C27.2395 70.5511 27.7226 70.3002 28.2057 70.0308C28.2149 70.0308 28.2242 70.0215 28.2428 70.0122L28.2521 70.0029C28.7631 69.7242 29.2647 69.4455 29.7571 69.1575C29.8779 69.0832 29.9987 69.0182 30.1195 68.9531C30.584 68.6744 31.0485 68.3957 31.5037 68.0984C31.6383 68.0255 31.7686 67.9448 31.8939 67.8569C32.2469 67.6432 32.6 67.4109 32.9437 67.1787C33.1853 67.0207 33.4361 66.8535 33.6684 66.6956C34.0214 66.454 34.3651 66.2125 34.7089 65.9616C34.9411 65.8037 35.1548 65.6458 35.3778 65.4692C35.6751 65.2649 35.9631 65.0419 36.2511 64.8189C36.5112 64.6331 36.762 64.438 37.0129 64.2336C37.3659 63.9642 37.7096 63.6855 38.0534 63.3882C38.202 63.2767 38.3507 63.156 38.4993 63.0259C38.8709 62.7193 39.2333 62.4034 39.5956 62.0783C39.7907 61.9111 39.9858 61.7438 40.1809 61.558C40.3946 61.3722 40.5989 61.1864 40.8033 60.9913C41.1935 60.6383 41.5744 60.2667 41.9553 59.8951C42.0063 59.8533 42.0531 59.8067 42.0947 59.7557C42.4663 59.4027 42.8286 59.0311 43.1816 58.6594C43.4325 58.4179 43.6647 58.1671 43.8877 57.9162C44.1571 57.6468 44.408 57.3681 44.6588 57.0894C44.8075 56.9314 44.9468 56.7735 45.0769 56.6156C45.4113 56.244 45.7365 55.8631 46.0617 55.4822C46.2289 55.2871 46.3961 55.0827 46.554 54.8783C46.7956 54.5996 47.0278 54.3209 47.2415 54.0329C47.4645 53.7634 47.6782 53.4847 47.8826 53.206C48.0777 52.9645 48.2635 52.7136 48.44 52.4721C48.6815 52.1562 48.9138 51.8403 49.1367 51.5152C49.3597 51.19 49.6013 50.8649 49.8242 50.5304C49.9349 50.3845 50.0373 50.2326 50.1308 50.0752C50.4467 49.6107 50.7533 49.1369 51.0506 48.6631C51.4315 48.0778 51.7938 47.4832 52.1375 46.8793C52.2955 46.6192 52.4441 46.3591 52.5927 46.0989C53.7975 43.9741 54.8711 41.7774 55.8072 39.5214C55.9466 39.2055 56.0766 38.8896 56.1974 38.5645C56.346 38.2207 56.4761 37.8677 56.6062 37.5147C56.7176 37.2267 56.8291 36.9294 56.9313 36.6321C57.0521 36.3069 57.1636 35.9725 57.2751 35.6473C57.6838 34.4581 58.0555 33.2597 58.3806 32.0427C58.4642 31.7361 58.5478 31.4388 58.6222 31.1322C58.6779 30.9371 58.7244 30.7513 58.7708 30.5562L58.9938 29.6086C59.2911 28.3172 59.5419 27.0166 59.7556 25.6974L59.8949 24.8055C59.9135 24.6662 59.9321 24.5361 59.9507 24.3967C60.0064 24.0437 60.0529 23.6907 60.09 23.3376C60.1551 22.8081 60.2201 22.2785 60.2666 21.749C60.2851 21.6096 60.2944 21.4703 60.3037 21.3309C60.3409 20.9686 60.3687 20.597 60.3966 20.2347C60.4245 19.8723 60.4431 19.4914 60.4617 19.1198C60.4802 18.8597 60.4895 18.5996 60.4988 18.3302C60.536 17.4754 60.5546 16.6207 60.5546 15.766C60.5546 15.3294 60.5546 14.902 60.536 14.4747C60.536 14.2517 60.536 14.038 60.5267 13.8151C60.4988 13.044 60.4616 12.2822 60.4059 11.5203V11.4925C60.3966 11.3067 60.3873 11.1209 60.3687 10.9351C60.3316 10.4241 60.2851 9.92241 60.2387 9.41144C60.239 9.39546 60.2358 9.37958 60.2294 9.36499C61.4811 10.505 62.6515 11.7312 63.7318 13.0347L63.7597 13.0625C63.7648 13.0676 63.7681 13.0741 63.769 13.0811C69.1022 19.5268 72.014 27.6343 72.0002 36.0003Z" fill="url(#paint0_linear_3147_11386)"/>
<path d="M60.5538 15.7659C60.5588 26.8786 57.5594 37.786 51.873 47.3336C46.1867 56.8813 38.0248 64.7139 28.2514 70.0028C28.2393 70.0169 28.223 70.0268 28.2049 70.0307L28.1957 70.04C27.7126 70.3001 27.2295 70.5509 26.7464 70.8018C23.7145 70.0027 20.8026 68.803 18.0878 67.2343C16.1238 66.1031 14.27 64.7905 12.5508 63.3138C12.8759 62.97 13.1918 62.6263 13.5077 62.2733L13.5169 62.264C13.5169 62.2547 13.5263 62.2454 13.5356 62.2361H13.5448C23.7109 50.9374 29.325 36.2698 29.3012 21.0707C29.3027 14.5234 28.268 8.01711 26.2353 1.7933H26.2261C26.2261 1.77472 26.2168 1.75614 26.2168 1.73756H26.2075C26.2022 1.72261 26.199 1.70695 26.1983 1.69109C26.0125 1.12438 25.8174 0.557698 25.613 0.000278603H35.9996C44.9617 -0.0121329 53.6044 3.32829 60.2286 9.36489C60.3029 10.071 60.3587 10.777 60.4051 11.4924C60.5073 12.9045 60.5538 14.3259 60.5538 15.7659Z" fill="url(#paint1_linear_3147_11386)"/>
<path d="M29.3017 21.0707C29.3017 21.6931 29.2924 22.3156 29.2738 22.9288C29.2645 23.3282 29.2459 23.7184 29.2274 24.1179C29.153 25.7159 29.0137 27.3045 28.8093 28.8839C28.7628 29.2926 28.7071 29.6921 28.6421 30.0916C28.577 30.584 28.4934 31.0671 28.4098 31.5595C28.3355 32.024 28.2519 32.4792 28.159 32.9437C28.1404 33.0552 28.1125 33.1667 28.0939 33.2782C28.0196 33.6591 27.936 34.0493 27.8524 34.4302C27.416 36.4101 26.8796 38.3667 26.2452 40.2924C26.1244 40.6733 25.9943 41.0449 25.8643 41.4072C25.8529 41.4519 25.8374 41.4955 25.8178 41.5373C25.6877 41.9182 25.5577 42.2805 25.4183 42.6521C25.3812 42.7636 25.3347 42.8844 25.2883 43.0051C25.1396 43.4046 24.9817 43.7948 24.8237 44.185C24.6472 44.631 24.4614 45.0769 24.2663 45.5135C24.0712 45.9688 23.8668 46.424 23.6625 46.8792C23.4674 47.2973 23.263 47.7153 23.0679 48.1241C22.8542 48.5608 22.6405 48.9881 22.4175 49.4062C22.1946 49.8242 21.9716 50.2516 21.7394 50.6697C21.5071 51.0877 21.2748 51.5058 21.0426 51.9146C20.8103 52.3233 20.5595 52.7414 20.3086 53.1502C20.0578 53.559 19.807 53.9584 19.5468 54.3579C19.0359 55.1569 18.5063 55.9466 17.9582 56.7177C17.4101 57.4888 16.8341 58.2506 16.2581 59.0031C15.3848 60.1086 14.4805 61.1863 13.5453 62.2361H13.536C13.5267 62.2454 13.5267 62.2454 13.5267 62.2547C13.5267 62.2571 13.5258 62.2595 13.524 62.2613C13.5223 62.263 13.5199 62.264 13.5174 62.264C13.2015 62.617 12.8764 62.9701 12.5512 63.3138C11.0874 62.0559 9.72669 60.6827 8.48209 59.2075C8.47265 59.1898 8.46005 59.1741 8.44493 59.161C2.98139 52.6813 -0.010478 44.4759 2.75728e-05 36.0002V0.000244141H25.6134C25.8178 0.557664 26.0129 1.11508 26.1894 1.68179L26.1987 1.69106C26.1995 1.70691 26.2027 1.72259 26.208 1.73753H26.2173V1.7654C26.2167 1.77044 26.2172 1.77555 26.2188 1.78037C26.2204 1.78518 26.2231 1.7896 26.2266 1.79327H26.2359C26.2441 1.8287 26.2566 1.863 26.273 1.89545L26.3845 2.25778C26.7004 3.24256 26.9884 4.23662 27.2485 5.24927C27.4343 5.92746 27.6015 6.62422 27.7595 7.32099C28.0475 8.58447 28.2983 9.87586 28.512 11.1858C28.5585 11.5017 28.6142 11.8082 28.6514 12.1241C28.7628 12.8952 28.865 13.6663 28.9486 14.4467C28.9858 14.7347 29.0137 15.032 29.0323 15.32C29.088 15.8588 29.1252 16.407 29.1623 16.9458C29.2552 18.3115 29.3017 19.6864 29.3017 21.0707Z" fill="url(#paint2_linear_3147_11386)"/>
<g style="mix-blend-mode:multiply" opacity="0.15">
<path d="M18.0878 67.2343C16.1238 66.103 14.27 64.7905 12.5508 63.3138C20.3646 54.9973 25.7216 44.6786 28.0273 33.5025C30.333 22.3265 29.4974 10.7302 25.613 0.000244141C25.613 0.000244141 41.7967 25.2606 18.0878 67.2343Z" fill="black"/>
</g>
<g style="mix-blend-mode:multiply" opacity="0.15">
<path d="M34.5324 71.9725C31.9025 71.8651 29.2922 71.4726 26.7471 70.8019C36.918 65.6487 45.4617 57.7775 51.4296 48.0622C57.3975 38.347 60.556 27.1679 60.5546 15.766C60.5543 13.6282 60.4457 11.4918 60.2294 9.36499C60.2294 9.36499 69.8783 44.3523 34.5324 71.9725Z" fill="black"/>
</g>
<g style="mix-blend-mode:multiply" opacity="0.25">
<path d="M60.8518 20.1193C60.796 20.8811 60.7403 21.6801 60.6845 22.5163C60.6102 23.3431 60.6102 24.2349 60.4523 25.1175C60.3222 26.0093 60.1829 26.9385 60.0435 27.8861C59.932 28.843 59.6626 29.7905 59.4582 30.7753C59.2633 31.7887 59.012 32.7906 58.7057 33.7761C58.3991 34.7795 58.0925 35.7921 57.7767 36.8326C57.4051 37.8453 57.0055 38.8578 56.5967 39.8891C56.2251 40.9296 55.7049 41.9145 55.2404 42.9271L54.5251 44.4414C54.2742 44.9431 53.9862 45.4262 53.7168 45.9186C53.1501 46.8755 52.6484 47.888 52.0167 48.8078C51.4035 49.7368 50.7903 50.6659 50.1772 51.5857C48.9162 53.3339 47.5641 55.0147 46.1266 56.621C44.7874 58.1249 43.3735 59.5605 41.8902 60.9224C41.1563 61.5449 40.4409 62.1488 39.7534 62.7341C39.4097 63.0221 39.066 63.3007 38.7315 63.5794C38.3878 63.8395 38.0347 64.0905 37.7003 64.332C37.0221 64.8244 36.3811 65.2889 35.7586 65.7348C35.1361 66.1808 34.5044 66.5244 33.9377 66.8961C32.7764 67.5929 31.7916 68.2338 30.9091 68.6612C29.3018 69.4973 28.3263 69.9711 28.2056 70.0269C28.2237 70.023 28.2399 70.0132 28.252 69.999C38.0254 64.7102 46.1873 56.8774 51.8736 47.3299C57.56 37.7822 60.5594 26.8748 60.5545 15.7621C60.5545 14.3221 60.508 12.9008 60.4058 11.4886C60.4337 11.7209 60.5452 12.78 60.6938 14.4708C60.7217 14.9632 60.796 15.4648 60.796 16.0873C60.8053 16.6633 60.8146 17.295 60.8239 17.9732C60.8332 18.6514 60.8425 19.3612 60.8518 20.1193Z" fill="black"/>
</g>
<g style="mix-blend-mode:multiply" opacity="0.25">
<path d="M13.5357 62.2361H13.545C13.5357 62.2547 13.5264 62.2547 13.5171 62.264C13.5171 62.2547 13.5264 62.2454 13.5357 62.2361Z" fill="black"/>
</g>
<g style="mix-blend-mode:multiply" opacity="0.25">
<path d="M26.2139 1.73763C26.2186 1.75667 26.2249 1.7753 26.2325 1.79336H26.2232C26.2139 1.77478 26.2139 1.75621 26.2046 1.73763C26.1992 1.72268 26.1961 1.70701 26.1953 1.69116C26.2025 1.70624 26.2087 1.72176 26.2139 1.73763Z" fill="black"/>
</g>
<g style="mix-blend-mode:multiply" opacity="0.25">
<path d="M30.1008 21.8845C30.117 23.867 30.0239 25.8488 29.8221 27.821C29.6201 29.8547 29.3131 31.8764 28.9023 33.8783C28.6886 34.8909 28.4657 35.8943 28.187 36.8791L27.7875 38.3562C27.6295 38.8393 27.4809 39.3224 27.323 39.8055C27.165 40.2886 27.0164 40.7717 26.8584 41.2455C26.6819 41.71 26.5054 42.1838 26.3289 42.6391C25.9852 43.5774 25.595 44.4693 25.2048 45.3518C24.8332 46.2437 24.4151 47.0891 23.997 47.916C23.579 48.7428 23.1423 49.5418 22.7057 50.3036C22.2876 51.0747 21.851 51.8086 21.3957 52.5054C20.9498 53.2022 20.5224 53.8804 20.0765 54.5028C19.6306 55.1253 19.2218 55.7384 18.7944 56.2866C18.3671 56.8347 17.949 57.3549 17.5588 57.838C16.7692 58.8042 16.0352 59.6032 15.4592 60.2814C14.3815 61.4055 13.6941 62.0837 13.5454 62.2324C23.7114 50.9337 29.3256 36.2659 29.3018 21.0669C29.3034 14.5197 28.2686 8.01335 26.236 1.78955C26.2824 1.90103 26.3568 2.09613 26.4682 2.37484C26.6448 2.81149 26.9049 3.4618 27.1836 4.30722C27.9815 6.64216 28.6178 9.02921 29.0881 11.4515C29.4114 13.0735 29.6532 14.7106 29.8128 16.3567C30.015 18.1922 30.1112 20.0379 30.1008 21.8845Z" fill="black"/>
</g>
<g style="mix-blend-mode:screen" opacity="0.4">
<path d="M60.5543 15.766C60.5593 26.8787 57.5599 37.7861 51.8735 47.3337C46.1872 56.8813 38.0254 64.714 28.252 70.0029C28.4656 69.8542 29.3389 69.2597 30.7232 68.3492C31.55 67.8568 32.4698 67.1229 33.5381 66.3239C34.6344 65.5528 35.777 64.5588 37.0312 63.5089C37.3471 63.2395 37.6722 62.9701 37.9974 62.7007C38.304 62.4034 38.62 62.1061 38.9358 61.7995C39.5861 61.1957 40.2458 60.5639 40.9332 59.9229C42.1966 58.5386 43.6088 57.1544 44.8816 55.5471C46.2472 54.0235 47.4271 52.277 48.7092 50.5582C49.2944 49.6571 49.8798 48.7559 50.4651 47.8455C51.069 46.9443 51.5428 45.9595 52.0909 45.0212C52.3603 44.5474 52.6482 44.0829 52.8898 43.5998L53.596 42.1319C54.0605 41.1564 54.5806 40.2088 54.9522 39.1962C55.3517 38.2114 55.7513 37.2266 56.1508 36.2511C56.4852 35.2571 56.8197 34.2723 57.1449 33.3061C57.5072 32.3492 57.7023 31.3551 57.981 30.4168C58.2318 29.4599 58.5383 28.5495 58.687 27.6204C59.0493 25.7809 59.4488 24.0437 59.6253 22.4179C59.7461 21.6096 59.8576 20.8292 59.9598 20.086C60.0249 19.3335 60.0806 18.6181 60.1363 17.9492C60.1921 17.2803 60.2384 16.6486 60.2849 16.0726C60.3406 15.5244 60.3129 14.967 60.3314 14.4839C60.3593 12.7838 60.3964 11.7247 60.4057 11.4924C60.5079 12.9046 60.5543 14.326 60.5543 15.766Z" fill="white"/>
</g>
<g style="mix-blend-mode:screen" opacity="0.4">
<path d="M29.3013 21.0708C29.3252 36.2698 23.711 50.9374 13.545 62.2362C13.5357 62.2548 13.5264 62.2548 13.5171 62.2641C13.5171 62.2548 13.5264 62.2455 13.5357 62.2362C13.6657 62.0597 14.2417 61.2793 15.1893 60.0437C15.691 59.3191 16.3321 58.4644 17.001 57.4331C17.6699 56.4019 18.4224 55.2313 19.1749 53.9307C19.5744 53.2896 19.946 52.6022 20.3269 51.8868C20.7078 51.1715 21.1166 50.4375 21.4882 49.6571C21.8784 48.886 22.2686 48.0964 22.6216 47.2602C22.9746 46.4241 23.3741 45.5973 23.6993 44.724C24.0523 43.8507 24.4053 42.9681 24.7026 42.0484C25.0278 41.1472 25.3344 40.2182 25.6131 39.2798C25.7617 38.806 25.9011 38.3322 26.0497 37.8584L26.4213 36.4184C26.6815 35.4615 26.8859 34.486 27.081 33.5105C27.4993 31.5678 27.8187 29.605 28.0379 27.6298C28.2515 25.6788 28.4188 23.7464 28.4652 21.8698C28.648 16.0055 28.0987 10.1415 26.8301 4.41325C26.5235 3.01041 26.3006 2.09066 26.2263 1.79336C26.217 1.77478 26.217 1.75621 26.2077 1.73763C26.2024 1.72268 26.1992 1.70701 26.1984 1.69116C26.2055 1.70624 26.2118 1.72176 26.217 1.73763C26.2217 1.75667 26.2279 1.7753 26.2355 1.79336C28.2682 8.01718 29.3029 14.5234 29.3013 21.0708Z" fill="white"/>
</g>
<g style="mix-blend-mode:multiply" opacity="0.25">
<path d="M72 36.0003C71.9997 45.5479 68.2069 54.7046 61.4556 61.4559C54.7043 68.2071 45.5478 72 36 72.0003C36 72.0003 36.3159 71.9724 36.9105 71.9167C37.5143 71.8795 38.3783 71.7494 39.4746 71.6008C40.5708 71.4243 41.8901 71.1642 43.3765 70.7925C45.0266 70.3424 46.6488 69.7964 48.2354 69.1574C50.0949 68.3837 51.8904 67.4641 53.6052 66.4075C55.4982 65.2226 57.2854 63.8767 58.9471 62.3848C60.7131 60.7867 62.3214 59.0227 63.7502 57.1172C65.2329 55.1626 66.5007 53.0539 67.5314 50.8276C68.5844 48.6086 69.4033 46.2859 69.9747 43.8971C70.5269 41.5833 70.8566 39.2222 70.9595 36.8457C71.0495 34.611 70.9439 32.3729 70.6436 30.1567C70.3663 28.1643 69.9282 26.1976 69.3337 24.2759C68.8247 22.6399 68.2102 21.0386 67.4942 19.4821C66.8346 18.0978 66.2028 16.9087 65.6361 15.9611C65.0694 15.0134 64.5956 14.2702 64.2519 13.7871C63.9917 13.4155 63.8338 13.1832 63.7688 13.0811C69.102 19.5268 72.0137 27.6343 72 36.0003Z" fill="black"/>
</g>
<g style="mix-blend-mode:screen" opacity="0.4">
<path d="M5.80648 0.808498L0.975502 0.929276L1.08698 7.65546C1.13343 10.201 1.12417 12.7559 1.14275 15.3107C1.16133 17.8655 1.16133 20.4111 1.14275 22.9566C1.12417 25.5022 1.13343 28.057 1.08698 30.6119L1.02197 34.4395L1.00337 36.3254C1.01266 36.9664 0.994083 37.6168 1.03124 38.2206C1.07081 39.4582 1.17937 40.6927 1.35641 41.9182C1.53292 43.1538 1.78378 44.3801 2.07178 45.5971C2.36598 46.8111 2.7257 48.0082 3.14943 49.1832C3.56749 50.3724 4.0599 51.5337 4.58945 52.6764C5.14687 53.8005 5.71357 54.9339 6.38247 56.0209C7.01421 57.0893 7.72029 58.1391 8.44493 59.161C2.98139 52.6813 -0.010478 44.4759 2.75728e-05 36.0002V0.000244141H23.2258C19.3517 0.278954 15.487 0.446174 11.6129 0.60411L5.80648 0.808498Z" fill="white"/>
</g>
</g>
<defs>
<linearGradient id="paint0_linear_3147_11386" x1="66.0269" y1="20.4514" x2="32.9892" y2="58.6721" gradientUnits="userSpaceOnUse">
<stop stop-color="#F58033"/>
<stop offset="1" stop-color="#A53826"/>
</linearGradient>
<linearGradient id="paint1_linear_3147_11386" x1="36.5523" y1="3.89433" x2="36.5523" y2="65.0669" gradientUnits="userSpaceOnUse">
<stop stop-color="#FCC400"/>
<stop offset="1" stop-color="#F80300"/>
</linearGradient>
<linearGradient id="paint2_linear_3147_11386" x1="14.6508" y1="-0.126383" x2="14.6508" y2="65.8463" gradientUnits="userSpaceOnUse">
<stop stop-color="#FCFC53"/>
<stop offset="1" stop-color="#F8A700"/>
</linearGradient>
</defs>
</svg>
