<svg width="73" height="73" viewBox="0 0 73 73" fill="none" xmlns="http://www.w3.org/2000/svg">
<path d="M24.1991 52.4219L23.5799 53.2169V53.2246L22.005 55.2352C22.0003 55.2388 21.9965 55.2435 21.9939 55.2487C21.9912 55.254 21.9899 55.2598 21.9897 55.2658L9.12327 71.733H9.11564C9.11128 71.737 9.10855 71.7424 9.10799 71.7483L8.19824 72.9103V65.3495L23.5722 52.9341V52.9264L24.1991 52.4219Z" fill="url(#paint0_linear_3147_11387)"/>
<path d="M43.8003 28.3403L43.0511 30.0452C43.044 30.0542 43.0388 30.0646 43.0358 30.0757L24.7262 71.7177C24.7232 71.7288 24.7181 71.7393 24.7109 71.7483L24.3058 72.6733L24.1987 72.9103V44.173L43.0435 28.9519L43.8003 28.3403Z" fill="url(#paint1_linear_3147_11387)"/>
<path d="M64.8626 0.9104L64.1516 3.34913L64.144 3.35678C64.144 3.35678 64.1516 3.35678 64.144 3.36442C64.143 3.37251 64.1404 3.38033 64.1363 3.38737V3.40265C64.1338 3.42113 64.1287 3.43915 64.121 3.45616H64.1134C64.1037 3.48362 64.0961 3.51173 64.0904 3.54026L44.7105 69.7989V69.8218L44.6876 69.9059L43.9766 72.3217L43.8008 72.9104V17.9204L62.6838 2.66874C62.6914 2.66874 62.6991 2.66109 62.7067 2.65345L64.8626 0.9104Z" fill="url(#paint2_linear_3147_11387)"/>
<path d="M64.8626 0.9104V72.9104H43.8008L43.9766 72.3217L44.6876 69.9059L44.7105 69.8218V69.7989L64.0904 3.54026C64.0961 3.51173 64.1037 3.48362 64.1134 3.45616H64.121C64.1287 3.43915 64.1338 3.42113 64.1363 3.40265V3.38737C64.1404 3.38033 64.143 3.37251 64.144 3.36442C64.1516 3.35678 64.144 3.35678 64.144 3.35678L64.1516 3.34913L64.8626 0.9104Z" fill="url(#paint3_linear_3147_11387)"/>
<path d="M43.8003 28.3403V72.9103H24.1987L24.3058 72.6733L24.7109 71.7483C24.7181 71.7393 24.7232 71.7288 24.7262 71.7177L43.0358 30.0757C43.0388 30.0646 43.044 30.0542 43.0511 30.0452L43.8003 28.3403Z" fill="url(#paint4_linear_3147_11387)"/>
<path d="M24.1991 52.4219V72.9103H8.19824L9.10799 71.7483C9.10855 71.7424 9.11128 71.737 9.11564 71.733H9.12327L22.0279 55.2046L23.5799 53.2169L24.1991 52.4219Z" fill="url(#paint5_linear_3147_11387)"/>
<g style="mix-blend-mode:multiply" opacity="0.25">
<path d="M62.6838 2.66882C61.2007 4.03727 59.687 5.3522 58.1733 6.67477C56.6596 8.02792 55.1152 9.34281 53.5786 10.6654L48.9305 14.595L44.5194 18.2568L44.5499 23.0884C44.5576 24.8162 44.5653 26.5363 44.5576 28.264C44.5424 31.7042 44.5271 35.1521 44.4659 38.6C44.4506 40.3201 44.4124 42.0478 44.3742 43.768C44.3359 45.4881 44.2901 47.2159 44.2366 48.936C44.183 50.6561 44.1142 52.3838 44.0454 54.1039C43.9766 55.824 43.9078 57.5518 43.8008 59.2796C43.6938 57.5518 43.625 55.8317 43.5485 54.1039C43.4721 52.3762 43.4033 50.6638 43.3574 48.936C43.3115 47.2083 43.258 45.4957 43.2274 43.768C43.1968 42.0402 43.1433 40.3201 43.128 38.6C43.0822 35.7484 43.0592 32.8892 43.0516 30.0453C43.0516 29.7089 43.0439 29.3802 43.0439 29.0515V28.9521L43.8008 28.3406V17.9204L62.6838 2.66882Z" fill="black"/>
</g>
<g style="mix-blend-mode:multiply" opacity="0.25">
<path d="M43.8006 28.3403C43.5458 28.585 43.2936 28.822 43.0439 29.0513C41.7595 30.2669 40.4522 31.4365 39.1449 32.6062C37.57 33.9976 35.9875 35.3813 34.3897 36.7421C32.7919 38.1029 31.1789 39.4484 29.5658 40.7863C28.0291 42.0324 26.5078 43.3091 24.9559 44.5399C24.9406 46.2677 24.9482 48.0031 24.9024 49.7309C24.8718 51.5886 24.8412 53.4387 24.7724 55.2964C24.7265 57.1464 24.6424 58.9965 24.5583 60.8542C24.459 62.7043 24.3596 64.562 24.199 66.4121C24.0461 64.562 23.9467 62.7043 23.8474 60.8542C23.7633 58.9965 23.6792 57.1464 23.6333 55.2964C23.6104 54.6083 23.5874 53.9126 23.5798 53.2246V53.2169C23.5696 53.1692 23.5671 53.1202 23.5721 53.0717C23.5645 53.0261 23.5645 52.9796 23.5721 52.9341V52.9264L24.199 52.4219V44.173L43.0439 28.9519L43.8006 28.3403Z" fill="black"/>
</g>
<g style="mix-blend-mode:multiply" opacity="0.25">
<path d="M24.1991 52.4219C23.9927 52.6436 23.7863 52.8576 23.5722 53.0717C22.5784 54.0961 21.5539 55.0747 20.5066 56.0379C19.2452 57.2 17.9532 58.3314 16.6459 59.4399C16.0037 60.0057 15.331 60.5332 14.6735 61.0836C14.016 61.634 13.3433 62.1692 12.6705 62.6967C11.9978 63.2242 11.3327 63.7746 10.6446 64.2868C10.0254 64.7455 9.41379 65.2195 8.79455 65.6705C8.74103 66.8249 8.67988 67.9793 8.58814 69.1261C8.48111 70.3875 8.37408 71.6489 8.19824 72.9103V65.3495L23.5722 52.9341V52.9264L24.1991 52.4219Z" fill="black"/>
</g>
<g style="mix-blend-mode:multiply" opacity="0.25">
<path d="M64.8623 10.2219V72.9104H15.7207C18.5417 72.8034 21.3703 72.7422 24.1989 72.6734H24.306L28.0061 72.5817L34.145 72.4593L40.2915 72.36L43.8006 72.3217H43.9764L52.5769 72.23L64.1132 72.1688C64.0979 67.192 64.1004 62.2151 64.1208 57.2383C64.1208 52.0168 64.182 46.7876 64.2202 41.5662L64.3195 33.7301L64.4572 25.894L64.6407 18.058C64.6942 15.4434 64.7706 12.8365 64.8623 10.2219Z" fill="black"/>
</g>
<g style="mix-blend-mode:multiply" opacity="0.25">
<path d="M22.9075 53.7446C22.854 53.8364 22.5329 54.3868 22.0054 55.2354C22.0007 55.2391 21.997 55.2437 21.9943 55.249C21.9916 55.2543 21.9902 55.2601 21.9901 55.266L9.12368 71.7332L9.1084 71.7485C9.10896 71.7426 9.11169 71.7371 9.11605 71.7332C9.20015 71.5879 9.89583 70.3953 11.0044 68.7363C11.593 67.8419 12.2963 66.8175 13.0761 65.7395C13.8559 64.6616 14.7045 63.5225 15.5531 62.391C16.4322 61.2749 17.2961 60.1511 18.1447 59.1267C18.9933 58.1022 19.7884 57.1466 20.4993 56.3439C21.8219 54.8302 22.8005 53.844 22.9075 53.7446Z" fill="black"/>
</g>
<g style="mix-blend-mode:multiply" opacity="0.25">
<path d="M43.0358 30.0758L24.7262 71.7178C24.7232 71.7289 24.718 71.7393 24.7109 71.7483C24.7109 71.7483 24.9556 71.0756 25.399 69.9136C25.8577 68.7515 26.4769 67.0773 27.2796 65.0973C28.0671 63.1172 29.015 60.8084 30.0547 58.3468C31.0945 55.8851 32.2259 53.2782 33.3574 50.6636C34.5117 48.0643 35.6661 45.4574 36.7899 43.034C37.8985 40.6105 38.9535 38.3553 39.8861 36.4287C40.8035 34.5022 41.6139 32.9121 42.1643 31.7959C42.6482 30.8174 42.967 30.2134 43.0358 30.0758Z" fill="black"/>
</g>
<g style="mix-blend-mode:multiply" opacity="0.25">
<path d="M63.2035 6.17766C63.6546 4.82451 63.9603 3.90712 64.0903 3.54016L44.7104 69.7988C44.7945 69.4853 45.0315 68.5068 45.4137 67.0084C45.903 65.1812 46.5528 62.5437 47.4167 59.4093C48.2806 56.2749 49.2515 52.613 50.3601 48.6988C51.4533 44.7846 52.6611 40.6257 53.869 36.4592C55.0922 32.308 56.3155 28.1492 57.5081 24.2656C58.6777 20.3743 59.8397 16.7582 60.7953 13.6544C61.7509 10.5505 62.6302 7.98187 63.2035 6.17766Z" fill="black"/>
</g>
<g style="mix-blend-mode:multiply" opacity="0.25">
<path d="M64.1357 3.40112C64.1332 3.41959 64.1281 3.43761 64.1205 3.45464H64.1128C64.1191 3.43623 64.1267 3.41833 64.1357 3.40112Z" fill="black"/>
</g>
<g style="mix-blend-mode:screen" opacity="0.6">
<path d="M9.11605 71.733H9.12368L9.1084 71.7483C9.10896 71.7424 9.11169 71.737 9.11605 71.733Z" fill="white"/>
</g>
<g style="mix-blend-mode:screen" opacity="0.4">
<path d="M22.0277 55.2047C21.7449 55.6405 21.4085 56.168 21.0186 56.749C20.4299 57.6358 19.7266 58.6602 18.9468 59.7382C18.167 60.8161 17.3184 61.9552 16.4622 63.0866C15.5907 64.2104 14.7268 65.3266 13.8782 66.351C13.0296 67.3755 12.2269 68.3311 11.5236 69.1338C10.2086 70.6398 9.23772 71.6184 9.12305 71.7331L22.0277 55.2047Z" fill="white"/>
</g>
<g style="mix-blend-mode:screen" opacity="0.4">
<path d="M43.0515 30.0453C43.0515 30.0453 42.8145 30.718 42.3634 31.8801C41.9124 33.0421 41.2855 34.7163 40.4904 36.6964C39.6953 38.6764 38.7474 40.9852 37.7077 43.4469C36.6832 45.9085 35.5442 48.5155 34.4051 51.13C33.2507 53.7293 32.0963 56.3286 30.9801 58.752C29.864 61.1755 28.809 63.4384 27.8763 65.3649C26.9589 67.2914 26.1485 68.8816 25.6057 69.9977C25.1165 70.9763 24.7954 71.5802 24.7266 71.7178L43.0362 30.0759C43.0392 30.0647 43.0444 30.0543 43.0515 30.0453Z" fill="white"/>
</g>
<g style="mix-blend-mode:screen" opacity="0.6">
<path d="M64.1363 3.40112C64.1338 3.41959 64.1287 3.43761 64.1211 3.45464C64.0446 3.76808 63.7999 4.73899 63.4177 6.23739C62.936 8.06453 62.2786 10.7021 61.4147 13.8365C60.5508 16.9709 59.58 20.6328 58.4791 24.547C57.3782 28.4613 56.1703 32.6201 54.9701 36.7866C53.7392 40.9378 52.516 45.0966 51.3234 48.9803C50.1537 52.8715 48.9917 56.4876 48.036 59.5914C47.0804 62.6952 46.2013 65.2639 45.628 67.0681C45.1005 68.643 44.7794 69.6369 44.7029 69.8586C44.7017 69.8454 44.7044 69.832 44.7106 69.8204V69.7974L64.0904 3.53873C64.0961 3.51019 64.1038 3.48209 64.1134 3.45464C64.1196 3.43623 64.1273 3.41833 64.1363 3.40112Z" fill="white"/>
</g>
<defs>
<linearGradient id="paint0_linear_3147_11387" x1="16.1987" y1="54.4502" x2="16.1987" y2="69.9805" gradientUnits="userSpaceOnUse">
<stop stop-color="#3E6896"/>
<stop offset="0.247" stop-color="#355881"/>
<stop offset="0.75" stop-color="#1F324E"/>
<stop offset="1" stop-color="#131D32"/>
</linearGradient>
<linearGradient id="paint1_linear_3147_11387" x1="33.9995" y1="33.867" x2="33.9995" y2="63.5952" gradientUnits="userSpaceOnUse">
<stop stop-color="#49A09D"/>
<stop offset="0.149" stop-color="#4A989B"/>
<stop offset="0.375" stop-color="#4E8396"/>
<stop offset="0.65" stop-color="#54618E"/>
<stop offset="0.96" stop-color="#5D3283"/>
<stop offset="1" stop-color="#5F2C82"/>
</linearGradient>
<linearGradient id="paint2_linear_3147_11387" x1="54.3317" y1="3.4304" x2="54.3317" y2="60.2384" gradientUnits="userSpaceOnUse">
<stop stop-color="#00F3FF"/>
<stop offset="0.238" stop-color="#00EFFC"/>
<stop offset="0.44" stop-color="#00E5F4"/>
<stop offset="0.629" stop-color="#00D3E7"/>
<stop offset="0.81" stop-color="#00BAD4"/>
<stop offset="0.983" stop-color="#009BBC"/>
<stop offset="1" stop-color="#0098BA"/>
</linearGradient>
<linearGradient id="paint3_linear_3147_11387" x1="54.3317" y1="42.5984" x2="54.3317" y2="80.5423" gradientUnits="userSpaceOnUse">
<stop stop-color="#00F3FF"/>
<stop offset="0.238" stop-color="#00EFFC"/>
<stop offset="0.44" stop-color="#00E5F4"/>
<stop offset="0.629" stop-color="#00D3E7"/>
<stop offset="0.81" stop-color="#00BAD4"/>
<stop offset="0.983" stop-color="#009BBC"/>
<stop offset="1" stop-color="#0098BA"/>
</linearGradient>
<linearGradient id="paint4_linear_3147_11387" x1="33.9995" y1="45.6781" x2="33.9995" y2="77.7687" gradientUnits="userSpaceOnUse">
<stop stop-color="#49A09D"/>
<stop offset="0.149" stop-color="#4A989B"/>
<stop offset="0.375" stop-color="#4E8396"/>
<stop offset="0.65" stop-color="#54618E"/>
<stop offset="0.96" stop-color="#5D3283"/>
<stop offset="1" stop-color="#5F2C82"/>
</linearGradient>
<linearGradient id="paint5_linear_3147_11387" x1="16.1987" y1="62.2153" x2="16.1987" y2="76.4343" gradientUnits="userSpaceOnUse">
<stop stop-color="#3E6896"/>
<stop offset="0.247" stop-color="#355881"/>
<stop offset="0.75" stop-color="#1F324E"/>
<stop offset="1" stop-color="#131D32"/>
</linearGradient>
</defs>
</svg>
