<svg width="73" height="72" viewBox="0 0 73 72" fill="none" xmlns="http://www.w3.org/2000/svg">
<mask id="mask0_3079_35014" style="mask-type:luminance" maskUnits="userSpaceOnUse" x="0" y="0" width="73" height="73">
<path d="M72.1895 0.000244141H0.749023V72.0002H72.1895V0.000244141Z" fill="white"/>
</mask>
<g mask="url(#mask0_3079_35014)">
<path d="M36.0401 -0.000132597H0.748535L8.17356 7.39569H36.0401C43.5861 7.39569 50.8228 10.3898 56.1586 15.7194C61.4944 21.049 64.4922 28.2775 64.4922 35.8147C64.4922 43.3519 61.4944 50.5805 56.1586 55.91C50.8228 61.2394 43.5861 64.2339 36.0401 64.2339H18.6443L25.4378 57.4579H36.045C41.7902 57.4579 47.3 55.1784 51.3623 51.1205C55.4251 47.0628 57.7075 41.5593 57.7075 35.8208C57.7075 30.0822 55.4251 24.5788 51.3623 20.521C47.3 16.4633 41.7902 14.1837 36.045 14.1837H14.9543L22.5399 21.7556L31.896 31.0936H36.0401C37.293 31.0936 38.4946 31.5908 39.3806 32.4757C40.2665 33.3606 40.7642 34.5608 40.7642 35.8123C40.7642 37.0638 40.2665 38.264 39.3806 39.1489C38.4946 40.0338 37.293 40.5309 36.0401 40.5309H31.9088L24.3231 48.1108H36.0401C37.6559 48.1108 39.2559 47.7929 40.7488 47.1753C42.2416 46.5576 43.598 45.6524 44.7406 44.5111C45.8831 43.3699 46.7895 42.0151 47.4078 40.524C48.0262 39.0329 48.3444 37.4347 48.3444 35.8208C48.3444 34.2068 48.0262 32.6087 47.4078 31.1176C46.7895 29.6265 45.8831 28.2716 44.7406 27.1304C43.598 25.9892 42.2416 25.0839 40.7488 24.4663C39.2559 23.8486 37.6559 23.5308 36.0401 23.5308H34.7957L33.0204 21.7544H33.0665L36.0401 21.7466C39.7769 21.7466 43.3607 23.2293 46.003 25.8685C48.6453 28.5078 50.1297 32.0874 50.1297 35.8199C50.1297 39.5523 48.6453 43.1319 46.003 45.7712C43.3607 48.4104 39.7769 49.8933 36.0401 49.8933H22.5296L8.176 64.2324L0.756415 71.643H36.0401C45.5518 71.643 54.674 67.8687 61.3998 61.1507C68.1256 54.4328 71.9037 45.3214 71.9037 35.8208C71.9037 26.3201 68.1256 17.2087 61.3998 10.4907C54.674 3.77276 45.5518 -0.00134277 36.0401 -0.00134277V-0.000132597Z" fill="#0D988C"/>
<path d="M26.4886 35.8176L0.74707 10.1066V61.5338L8.17148 54.1174L26.4886 35.8176Z" fill="#0A4B65"/>
</g>
</svg>
