<svg width="21" height="24" viewBox="0 0 21 24" fill="none" xmlns="http://www.w3.org/2000/svg">
<path d="M16.8473 23.0371C15.5408 24.3036 14.1143 24.1036 12.7412 23.5037C11.288 22.8904 9.95485 22.8638 8.42171 23.5037C6.50195 24.3303 5.48874 24.0903 4.34222 23.0371C-2.16362 16.3313 -1.20374 6.11923 6.18199 5.74594C7.98176 5.83926 9.23494 6.73248 10.2881 6.81247C11.8613 6.49251 13.3677 5.57263 15.0475 5.69262C17.0606 5.85259 18.5804 6.65249 19.5803 8.09231C15.4208 10.5853 16.4074 16.0646 20.2202 17.5978C19.4603 19.5975 18.4738 21.5839 16.834 23.0504L16.8473 23.0371ZM10.1548 5.66595C9.95485 2.69299 12.3679 0.23997 15.1409 0C15.5275 3.43957 12.0213 5.99924 10.1548 5.66595Z" fill="black"/>
</svg>
