<svg id="avatar" viewBox="0 0 24 24" xmlns="http://www.w3.org/2000/svg">
    <path
        d="m12 22.75c-2.99 0-5.86-1.26-7.88-3.45-.27-.29-.51-.58-.75-.89-5.29-6.9-.07-17.28 8.63-17.16 8.69-.12 13.92 10.26 8.63 17.15-.24.31-.48.61-.75.9-2.02 2.19-4.89 3.45-7.88 3.45zm0-20c-7.48-.1-11.98 8.82-7.43 14.75.2.27.42.53.65.78 3.45 3.92 10.11 3.92 13.56 0 .23-.25.45-.51.66-.79 4.54-5.93.04-14.85-7.43-14.75z"
        fill="#9497A3"
    />
    <path
        d="m20.02 18.49c-2.95-6.93-13.09-6.93-16.04 0-.12.27-.07.59.14.81 4.01 4.56 11.75 4.56 15.76 0 .2-.22.25-.54.14-.81z"
        fill="#9497A3"
    />
    <path
        d="m12 4.25c-3.4-.1-5.51 4.12-3.41 6.78 1.59 2.27 5.24 2.27 6.82 0 2.1-2.66 0-6.88-3.41-6.78z"
        fill="#9497A3"
    />
</svg>
