<svg width="46" height="38" viewBox="0 0 46 38" fill="none" xmlns="http://www.w3.org/2000/svg">
<path d="M39.7763 33.8312H6.72375C5.88555 33.8295 5.08212 33.4384 4.48956 32.7437C3.89699 32.0489 3.56362 31.1072 3.5625 30.125V7.87588C3.56324 6.89332 3.89645 5.9512 4.48906 5.25612C5.08167 4.56103 5.8853 4.16971 6.72375 4.16797H39.7763C40.6145 4.16971 41.4179 4.56081 42.0104 5.25553C42.603 5.95026 42.9364 6.89195 42.9375 7.87423V30.1233C42.9384 30.6103 42.8573 31.0927 42.6988 31.5428C42.5403 31.9929 42.3075 32.402 42.0138 32.7465C41.7201 33.091 41.3713 33.3641 40.9873 33.5503C40.6033 33.7364 40.1918 33.8319 39.7763 33.8312Z" fill="#00A6ED"/>
<path d="M33.6366 23.9434H8.64469C8.41555 23.9421 8.19615 23.8346 8.03438 23.6444C7.87262 23.4542 7.78162 23.1968 7.78125 22.9283V18.3667C7.78125 17.8179 8.16375 17.3516 8.64469 17.3516H33.6366C34.1034 17.3516 34.5 17.8015 34.5 18.3667V22.9447C34.4994 23.0768 34.4767 23.2075 34.4329 23.3292C34.3892 23.4509 34.3254 23.5613 34.2452 23.6541C34.165 23.7469 34.0699 23.8202 33.9655 23.8699C33.861 23.9195 33.7493 23.9445 33.6366 23.9434Z" fill="#F4F4F4"/>
<path d="M36.4027 30.5355H38.9255C39.0833 30.5366 39.2397 30.5009 39.3856 30.4307C39.5316 30.3604 39.6642 30.2569 39.7758 30.1262C39.8873 29.9954 39.9757 29.84 40.0356 29.669C40.0956 29.4979 40.126 29.3147 40.125 29.1297V26.1733C40.126 25.9884 40.0956 25.8051 40.0356 25.6341C39.9757 25.463 39.8873 25.3076 39.7758 25.1769C39.6642 25.0461 39.5316 24.9426 39.3856 24.8724C39.2397 24.8021 39.0833 24.7665 38.9255 24.7676H36.4027C36.2449 24.7665 36.0885 24.8021 35.9425 24.8724C35.7966 24.9426 35.664 25.0461 35.5524 25.1769C35.4408 25.3076 35.3525 25.463 35.2926 25.6341C35.2326 25.8051 35.2022 25.9884 35.2031 26.1733V29.1297C35.2057 29.5016 35.3329 29.8574 35.5573 30.1204C35.7817 30.3834 36.0853 30.5324 36.4027 30.5355Z" fill="#FFF478"/>
<path d="M42.9375 9.1123H3.5625V14.0562H42.9375V9.1123Z" fill="#321B41"/>
<path d="M9.1875 20.6472C9.1875 20.4287 9.26158 20.2191 9.39344 20.0646C9.5253 19.9101 9.70414 19.8232 9.89062 19.8232H25.3594C25.5459 19.8232 25.7247 19.9101 25.8566 20.0646C25.9884 20.2191 26.0625 20.4287 26.0625 20.6472C26.0625 20.8658 25.9884 21.0753 25.8566 21.2299C25.7247 21.3844 25.5459 21.4712 25.3594 21.4712H9.89062C9.70414 21.4712 9.5253 21.3844 9.39344 21.2299C9.26158 21.0753 9.1875 20.8658 9.1875 20.6472Z" fill="#9B9B9B"/>
</svg>
