<svg width="25" height="38" viewBox="0 0 25 38" fill="none" xmlns="http://www.w3.org/2000/svg">
<path d="M23.6721 16.1277C22.8579 16.1277 22.0563 15.9893 21.2885 15.7158L21.2697 15.7089C21.2609 15.7056 21.2522 15.7023 21.2434 15.6993C21.2381 15.697 21.2325 15.695 21.2268 15.6927C21.1557 15.6674 21.0847 15.6401 21.0132 15.6112V9.2911C21.0132 6.72581 20.0228 4.40293 18.4221 2.72143C16.8206 1.03994 14.6084 0 12.1649 0C7.27807 0 3.31648 4.16026 3.31648 9.29085V15.6109C3.24759 15.6389 3.17588 15.6662 3.10072 15.6938C3.09665 15.6951 3.0929 15.6964 3.08882 15.6984C3.07974 15.7017 3.07035 15.705 3.06064 15.7086L3.0406 15.7155C2.27342 15.9891 1.47149 16.1275 0.657587 16.1275C0.294664 16.1275 0 16.4369 0 16.8179V23.3747C0 27.0583 1.69874 30.5431 4.5443 32.6976L10.8619 37.4805C11.2517 37.7755 11.708 37.9228 12.1649 37.9228C12.6217 37.9228 13.078 37.7755 13.4678 37.4805L19.7854 32.6976C22.6309 30.543 24.3297 27.0577 24.3297 23.3747L24.33 16.8179C24.33 16.4366 24.0354 16.1275 23.6725 16.1275L23.6721 16.1277ZM6.07094 9.30648C6.07094 5.77262 8.79962 2.90776 12.165 2.90776C13.8481 2.90776 15.3715 3.62388 16.4744 4.78226C17.5769 5.93996 18.259 7.53989 18.259 9.30682V13.6725C17.9192 13.2938 17.6158 12.8798 17.355 12.4376C17.3537 12.4353 17.3518 12.433 17.3506 12.4307C17.3421 12.4165 17.334 12.4027 17.3262 12.3889L17.3161 12.3715C17.3039 12.3498 17.2917 12.3287 17.2789 12.3067L16.7788 11.4229C16.6601 11.2135 16.4453 11.0849 16.2133 11.0849L8.11677 11.0843C7.88474 11.0843 7.67055 11.2122 7.55155 11.4216L7.0474 12.311C6.76933 12.8015 6.4421 13.2582 6.07069 13.6715L6.07094 9.30648Z" fill="#0046FA"/>
<path d="M12.2301 17.6975C10.5674 17.6975 8.97274 18.3796 7.79715 19.5939C6.62139 20.8081 5.96094 22.455 5.96094 24.1722C5.96094 25.8895 6.62139 27.5364 7.79715 28.7506C8.97281 29.9649 10.5674 30.647 12.2301 30.647C13.3305 30.647 14.4117 30.3478 15.3647 29.7795C16.3178 29.2112 17.1091 28.3939 17.6594 27.4096C18.2097 26.4253 18.4993 25.3087 18.4993 24.1722C18.4993 22.455 17.8388 20.8081 16.6631 19.5939C15.4874 18.3796 13.8929 17.6975 12.2301 17.6975ZM15.3119 24.7406L12.9362 27.1942C12.7476 27.389 12.4727 27.4651 12.215 27.3938C11.9574 27.3225 11.7561 27.1146 11.6871 26.8485C11.6181 26.5824 11.6917 26.2985 11.8803 26.1037L13.022 24.9355H9.67484C9.40887 24.9355 9.16315 24.789 9.03013 24.5511C8.89719 24.3133 8.89719 24.0202 9.03013 23.7823C9.16316 23.5445 9.40887 23.3979 9.67484 23.3979H13.006L11.8828 22.2366C11.6942 22.0418 11.6205 21.7579 11.6896 21.4918C11.7586 21.2257 11.9599 21.0178 12.2175 20.9465C12.4752 20.8752 12.7501 20.9513 12.9386 21.1461L15.3143 23.5997C15.4605 23.7509 15.5385 23.9586 15.5295 24.1722V24.1967C15.5299 24.4008 15.4515 24.5964 15.3117 24.7406L15.3119 24.7406Z" fill="white"/>
</svg>
