<svg width="111" height="38" viewBox="0 0 111 38" fill="none" xmlns="http://www.w3.org/2000/svg">
<path d="M42.8629 13.707C43.8901 13.707 44.8214 13.9467 45.6568 14.4261C46.506 14.8917 47.1702 15.5559 47.6496 16.4188C48.1289 17.2679 48.3686 18.2608 48.3686 19.3976C48.3686 20.5343 48.1289 21.5341 47.6496 22.3969C47.1702 23.2461 46.506 23.9103 45.6568 24.3897C44.8214 24.8553 43.8901 25.0881 42.8629 25.0881C41.4523 25.0881 40.3429 24.643 39.5349 23.7528V28.9092H36.3301V13.8714H39.3911V15.1451C40.1854 14.1864 41.3427 13.707 42.8629 13.707ZM42.3082 22.4586C43.13 22.4586 43.8011 22.1847 44.3215 21.6368C44.8556 21.0753 45.1227 20.3289 45.1227 19.3976C45.1227 18.4663 44.8556 17.7267 44.3215 17.1789C43.8011 16.6174 43.13 16.3366 42.3082 16.3366C41.4865 16.3366 40.8086 16.6174 40.2744 17.1789C39.754 17.7267 39.4938 18.4663 39.4938 19.3976C39.4938 20.3289 39.754 21.0753 40.2744 21.6368C40.8086 22.1847 41.4865 22.4586 42.3082 22.4586Z" fill="#1E1F24"/>
<path d="M53.5587 13.707C55.2707 13.707 56.5855 14.1179 57.5031 14.9396C58.4207 15.7477 58.8795 16.9735 58.8795 18.6169V24.9238H55.8801V23.5474C55.2775 24.5746 54.1545 25.0881 52.511 25.0881C51.6619 25.0881 50.9223 24.9443 50.2923 24.6567C49.676 24.3691 49.2035 23.9719 48.8748 23.4652C48.5461 22.9585 48.3817 22.3832 48.3817 21.7395C48.3817 20.7124 48.7652 19.9043 49.5322 19.3154C50.3128 18.7265 51.5112 18.432 53.1273 18.432H55.6747C55.6747 17.7336 55.4624 17.1994 55.0378 16.8296C54.6133 16.4462 53.9764 16.2544 53.1273 16.2544C52.5384 16.2544 51.9563 16.3503 51.3811 16.542C50.8196 16.7201 50.3402 16.9666 49.943 17.2816L48.7926 15.0424C49.3952 14.6178 50.1142 14.2891 50.9497 14.0563C51.7988 13.8234 52.6685 13.707 53.5587 13.707ZM53.3122 22.9311C53.86 22.9311 54.3462 22.8078 54.7708 22.5613C55.1953 22.3011 55.4966 21.9244 55.6747 21.4314V20.3015H53.4765C52.1617 20.3015 51.5044 20.7329 51.5044 21.5957C51.5044 22.0066 51.6619 22.3353 51.9769 22.5818C52.3056 22.8147 52.7507 22.9311 53.3122 22.9311Z" fill="#1E1F24"/>
<path d="M64.2657 25.0881C63.3481 25.0881 62.4511 24.9786 61.5745 24.7594C60.698 24.5266 59.9995 24.239 59.4791 23.8966L60.5474 21.5957C61.0404 21.9107 61.6362 22.171 62.3346 22.3764C63.0331 22.5681 63.7179 22.664 64.389 22.664C65.7449 22.664 66.4228 22.3285 66.4228 21.6574C66.4228 21.3424 66.2379 21.1164 65.8681 20.9794C65.4983 20.8425 64.93 20.7261 64.163 20.6302C63.2591 20.4932 62.5127 20.3357 61.9238 20.1577C61.3349 19.9797 60.8213 19.6647 60.383 19.2127C59.9584 18.7607 59.7462 18.117 59.7462 17.2816C59.7462 16.5831 59.9447 15.9668 60.3419 15.4327C60.7528 14.8849 61.3417 14.4603 62.1087 14.159C62.8893 13.8577 63.8069 13.707 64.8615 13.707C65.6421 13.707 66.416 13.7961 67.1829 13.9741C67.9636 14.1384 68.6073 14.3713 69.114 14.6726L68.0457 16.9529C67.0733 16.4051 66.0119 16.1312 64.8615 16.1312C64.1767 16.1312 63.6631 16.227 63.3207 16.4188C62.9783 16.6105 62.8071 16.857 62.8071 17.1583C62.8071 17.5007 62.992 17.7404 63.3618 17.8774C63.7316 18.0143 64.3205 18.1444 65.1286 18.2677C66.0325 18.4183 66.772 18.5827 67.3473 18.7607C67.9225 18.9251 68.4224 19.2332 68.8469 19.6852C69.2715 20.1372 69.4838 20.7672 69.4838 21.5752C69.4838 22.26 69.2784 22.8694 68.8675 23.4036C68.4566 23.9377 67.854 24.3554 67.0597 24.6567C66.279 24.9443 65.3477 25.0881 64.2657 25.0881Z" fill="#1E1F24"/>
<path d="M73.9469 25.0881C73.0293 25.0881 72.1322 24.9786 71.2557 24.7594C70.3791 24.5266 69.6807 24.239 69.1602 23.8966L70.2285 21.5957C70.7215 21.9107 71.3173 22.171 72.0158 22.3764C72.7143 22.5681 73.399 22.664 74.0701 22.664C75.426 22.664 76.1039 22.3285 76.1039 21.6574C76.1039 21.3424 75.919 21.1164 75.5493 20.9794C75.1795 20.8425 74.6111 20.7261 73.8441 20.6302C72.9402 20.4932 72.1938 20.3357 71.6049 20.1577C71.016 19.9797 70.5024 19.6647 70.0641 19.2127C69.6396 18.7607 69.4273 18.117 69.4273 17.2816C69.4273 16.5831 69.6259 15.9668 70.0231 15.4327C70.4339 14.8849 71.0228 14.4603 71.7898 14.159C72.5704 13.8577 73.4881 13.707 74.5426 13.707C75.3233 13.707 76.0971 13.7961 76.864 13.9741C77.6447 14.1384 78.2884 14.3713 78.7951 14.6726L77.7269 16.9529C76.7545 16.4051 75.6931 16.1312 74.5426 16.1312C73.8578 16.1312 73.3443 16.227 73.0019 16.4188C72.6595 16.6105 72.4883 16.857 72.4883 17.1583C72.4883 17.5007 72.6732 17.7404 73.0429 17.8774C73.4127 18.0143 74.0016 18.1444 74.8097 18.2677C75.7136 18.4183 76.4532 18.5827 77.0284 18.7607C77.6036 18.9251 78.1035 19.2332 78.5281 19.6852C78.9526 20.1372 79.1649 20.7672 79.1649 21.5752C79.1649 22.26 78.9595 22.8694 78.5486 23.4036C78.1377 23.9377 77.5351 24.3554 76.7408 24.6567C75.9601 24.9443 75.0288 25.0881 73.9469 25.0881Z" fill="#1E1F24"/>
<path d="M79.4988 17.8568H85.3126V20.4248H79.4988V17.8568Z" fill="#1E1F24"/>
<path d="M92.0613 25.0881C90.8971 25.0881 89.8494 24.8485 88.9181 24.3691C88.0005 23.8761 87.2815 23.1981 86.761 22.3353C86.2406 21.4725 85.9804 20.4932 85.9804 19.3976C85.9804 18.3019 86.2406 17.3227 86.761 16.4599C87.2815 15.597 88.0005 14.9259 88.9181 14.4466C89.8494 13.9536 90.8971 13.707 92.0613 13.707C93.2254 13.707 94.2663 13.9536 95.1839 14.4466C96.1015 14.9259 96.8205 15.597 97.341 16.4599C97.8614 17.3227 98.1216 18.3019 98.1216 19.3976C98.1216 20.4932 97.8614 21.4725 97.341 22.3353C96.8205 23.1981 96.1015 23.8761 95.1839 24.3691C94.2663 24.8485 93.2254 25.0881 92.0613 25.0881ZM92.0613 22.4586C92.883 22.4586 93.5541 22.1847 94.0745 21.6368C94.6087 21.0753 94.8757 20.3289 94.8757 19.3976C94.8757 18.4663 94.6087 17.7267 94.0745 17.1789C93.5541 16.6174 92.883 16.3366 92.0613 16.3366C91.2395 16.3366 90.5616 16.6174 90.0275 17.1789C89.4933 17.7267 89.2263 18.4663 89.2263 19.3976C89.2263 20.3289 89.4933 21.0753 90.0275 21.6368C90.5616 22.1847 91.2395 22.4586 92.0613 22.4586Z" fill="#1E1F24"/>
<path d="M105.749 13.707C107.118 13.707 108.221 14.1179 109.056 14.9396C109.906 15.7614 110.33 16.9803 110.33 18.5964V24.9238H107.125V19.0894C107.125 18.2129 106.934 17.5624 106.55 17.1378C106.167 16.6995 105.612 16.4804 104.886 16.4804C104.078 16.4804 103.434 16.7338 102.955 17.2405C102.476 17.7336 102.236 18.4731 102.236 19.4592V24.9238H99.0311V13.8714H102.092V15.1656C102.517 14.7 103.044 14.3439 103.674 14.0974C104.304 13.8371 104.996 13.707 105.749 13.707Z" fill="#1E1F24"/>
<path d="M23.6721 16.1277C22.8579 16.1277 22.0563 15.9893 21.2885 15.7158L21.2697 15.7089C21.2609 15.7056 21.2522 15.7023 21.2434 15.6993C21.2381 15.697 21.2325 15.695 21.2268 15.6927C21.1557 15.6674 21.0847 15.6401 21.0132 15.6112V9.2911C21.0132 6.72581 20.0228 4.40293 18.4221 2.72143C16.8206 1.03994 14.6084 0 12.1649 0C7.27807 0 3.31648 4.16026 3.31648 9.29085V15.6109C3.24759 15.6389 3.17588 15.6662 3.10072 15.6938C3.09665 15.6951 3.0929 15.6964 3.08882 15.6984C3.07974 15.7017 3.07035 15.705 3.06064 15.7086L3.0406 15.7155C2.27342 15.9891 1.47149 16.1275 0.657587 16.1275C0.294664 16.1275 0 16.4369 0 16.8179V23.3747C0 27.0583 1.69874 30.5431 4.5443 32.6976L10.8619 37.4805C11.2517 37.7755 11.708 37.9228 12.1649 37.9228C12.6217 37.9228 13.078 37.7755 13.4678 37.4805L19.7854 32.6976C22.6309 30.543 24.3297 27.0577 24.3297 23.3747L24.33 16.8179C24.33 16.4366 24.0354 16.1275 23.6725 16.1275L23.6721 16.1277ZM6.07094 9.30648C6.07094 5.77262 8.79962 2.90776 12.165 2.90776C13.8481 2.90776 15.3715 3.62388 16.4744 4.78226C17.5769 5.93996 18.259 7.53989 18.259 9.30682V13.6725C17.9192 13.2938 17.6158 12.8798 17.355 12.4376C17.3537 12.4353 17.3518 12.433 17.3506 12.4307C17.3421 12.4165 17.334 12.4027 17.3262 12.3889L17.3161 12.3715C17.3039 12.3498 17.2917 12.3287 17.2789 12.3067L16.7788 11.4229C16.6601 11.2135 16.4453 11.0849 16.2133 11.0849L8.11677 11.0843C7.88474 11.0843 7.67055 11.2122 7.55155 11.4216L7.0474 12.311C6.76933 12.8015 6.4421 13.2582 6.07069 13.6715L6.07094 9.30648Z" fill="#0046FA"/>
<path d="M12.2299 17.6973C10.5673 17.6973 8.97255 18.3794 7.79697 19.5937C6.62121 20.8079 5.96075 22.4547 5.96075 24.172C5.96075 25.8893 6.62121 27.5362 7.79697 28.7503C8.97263 29.9646 10.5672 30.6467 12.2299 30.6467C13.3304 30.6467 14.4115 30.3476 15.3645 29.7793C16.3176 29.211 17.109 28.3936 17.6592 27.4094C18.2095 26.4251 18.4991 25.3085 18.4991 24.172C18.4991 22.4548 17.8387 20.8078 16.6629 19.5937C15.4872 18.3794 13.8927 17.6973 12.2299 17.6973ZM15.3117 24.7404L12.936 27.1939C12.7474 27.3888 12.4725 27.4648 12.2148 27.3935C11.9572 27.3222 11.756 27.1144 11.6869 26.8482C11.6179 26.5822 11.6915 26.2983 11.8802 26.1034L13.0218 24.9353H9.67466C9.40869 24.9353 9.16297 24.7887 9.02995 24.5508C8.89701 24.313 8.89701 24.02 9.02995 23.7821C9.16298 23.5442 9.40869 23.3977 9.67466 23.3977H13.0058L11.8826 22.2363C11.694 22.0415 11.6203 21.7576 11.6894 21.4916C11.7584 21.2254 11.9597 21.0176 12.2173 20.9463C12.475 20.875 12.7499 20.951 12.9384 21.1458L15.3141 23.5994C15.4603 23.7507 15.5383 23.9584 15.5293 24.1719V24.1965C15.5297 24.4005 15.4513 24.5962 15.3115 24.7403L15.3117 24.7404Z" fill="white"/>
</svg>
