<svg width="180" height="180" viewBox="0 0 180 180" fill="none" xmlns="http://www.w3.org/2000/svg">
<path d="M90 180C139.706 180 180 139.706 180 90C180 40.2944 139.706 0 90 0C40.2944 0 0 40.2944 0 90C0 139.706 40.2944 180 90 180Z" fill="#E6EDFF"/>
<mask id="mask0_6737_18790" style="mask-type:alpha" maskUnits="userSpaceOnUse" x="0" y="0" width="180" height="180">
<path d="M90 180C139.706 180 180 139.706 180 90C180 40.2944 139.706 0 90 0C40.2944 0 0 40.2944 0 90C0 139.706 40.2944 180 90 180Z" fill="#E6EDFF"/>
</mask>
<g mask="url(#mask0_6737_18790)">
<path d="M144 180H36V63.6004C41.0904 63.5947 45.9707 61.57 49.5701 57.9706C53.1696 54.3711 55.1943 49.4908 55.2 44.4004H124.8C124.795 46.9221 125.289 49.4197 126.256 51.7489C127.222 54.0781 128.64 56.1926 130.429 57.97C132.206 59.7593 134.321 61.1783 136.651 62.1448C138.98 63.1112 141.478 63.606 144 63.6004V180Z" fill="white"/>
</g>
<path d="M90 118C103.255 118 114 107.031 114 93.5C114 79.969 103.255 69 90 69C76.7452 69 66 79.969 66 93.5C66 107.031 76.7452 118 90 118Z" fill="#0046FA"/>
<path d="M97.8859 104.114L90 96.2282L82.1141 104.114L79.4855 101.485L87.3714 93.5996L79.4855 85.7137L82.1141 83.0851L90 90.971L97.8859 83.0851L100.515 85.7137L92.6286 93.5996L100.515 101.485L97.8859 104.114Z" fill="white"/>
<path d="M105.6 129.601H74.4C72.4118 129.601 70.8 131.212 70.8 133.201C70.8 135.189 72.4118 136.801 74.4 136.801H105.6C107.588 136.801 109.2 135.189 109.2 133.201C109.2 131.212 107.588 129.601 105.6 129.601Z" fill="#E6EDFF"/>
<path d="M116.4 144H63.6C61.6117 144 60 145.612 60 147.6C60 149.588 61.6117 151.2 63.6 151.2H116.4C118.388 151.2 120 149.588 120 147.6C120 145.612 118.388 144 116.4 144Z" fill="#E6EDFF"/>
</svg>
