<svg width="46" height="38" viewBox="0 0 46 38" fill="none" xmlns="http://www.w3.org/2000/svg">
<path d="M36.0757 11.4523C35.8021 11.1543 35.4981 10.8841 35.1684 10.646C35.304 9.61332 35.2106 8.5643 34.8946 7.56969C34.5786 6.57508 34.0473 5.65798 33.3365 4.8802C31.6202 2.99628 28.6941 2.04199 24.6392 2.04199H14.802C14.0909 2.04348 13.4036 2.29119 12.8629 2.74084C12.3222 3.19048 11.9634 3.81273 11.8507 4.49633L7.74982 29.7889C7.69178 30.128 7.71041 30.4753 7.80439 30.8066C7.89838 31.1379 8.06546 31.4453 8.29399 31.7073C8.52252 31.9693 8.80699 32.1796 9.12757 32.3236C9.44815 32.4675 9.79712 32.5417 10.1502 32.5408H14.3682L14.2383 33.3425C14.1857 33.6653 14.2055 33.9954 14.2965 34.31C14.3875 34.6247 14.5475 34.9164 14.7654 35.165C14.9833 35.4137 15.254 35.6134 15.5588 35.7504C15.8636 35.8874 16.1953 35.9585 16.531 35.9587H21.6531C22.3163 35.9635 22.9595 35.738 23.4673 35.3227C23.9752 34.9073 24.3143 34.3293 24.4239 33.6924L25.4388 27.478L25.4562 27.3932H25.9296C32.3137 27.3932 36.3005 24.3206 37.4642 18.5101C37.8192 17.3102 37.8784 16.0458 37.6371 14.8194C37.3959 13.5931 36.8609 12.4395 36.0757 11.4523ZM16.1336 21.6273L15.0031 28.6188L14.8669 29.4575H11.0099L14.954 5.12533H24.6392C27.7046 5.12533 29.8927 5.74816 30.9615 6.91983C31.4654 7.49087 31.8168 8.1742 31.9845 8.9092C32.1522 9.6442 32.1309 10.4081 31.9226 11.1332L31.8941 11.3074C31.8751 11.4246 31.8577 11.5387 31.8244 11.6867C31.5189 13.8893 30.3883 15.9043 28.6498 17.3446C26.6981 18.6662 24.3458 19.3087 21.9729 19.1684H19.0865C18.3734 19.1659 17.6831 19.4127 17.1411 19.864C16.5992 20.3153 16.2417 20.941 16.1336 21.6273ZM34.3577 17.9196C33.4837 22.2795 30.8063 24.3098 25.9296 24.3098H25.1633C24.4994 24.3052 23.8556 24.5313 23.3477 24.9476C22.8398 25.3639 22.501 25.943 22.3925 26.5807L21.3633 32.8615L17.519 32.8753L18.2758 28.1979L19.2448 22.2579H21.9666C22.2151 22.2579 22.4337 22.2224 22.6759 22.2132C23.2443 22.1947 23.8111 22.1731 24.3432 22.1083C24.6677 22.0698 24.9654 21.9973 25.2773 21.9418C25.7096 21.8647 26.1402 21.7877 26.5456 21.6782C26.8464 21.5965 27.1282 21.4901 27.4164 21.3915C27.7932 21.2604 28.1669 21.1232 28.52 20.9613C28.7817 20.8391 29.0384 20.7069 29.2895 20.5651C29.6239 20.3808 29.9479 20.179 30.2601 19.9608C30.4849 19.8035 30.7066 19.6401 30.9172 19.4675C31.216 19.2162 31.4999 18.9485 31.7674 18.6658C31.9463 18.4808 32.1284 18.3004 32.2946 18.1C32.5695 17.7589 32.8233 17.4021 33.0546 17.0316C33.175 16.8435 33.3096 16.6693 33.422 16.472C33.7424 15.9001 34.0176 15.3054 34.2453 14.6929C34.2596 14.6559 34.2786 14.6251 34.2928 14.5881C34.2992 14.5727 34.3087 14.5572 34.315 14.5387C34.6287 15.6433 34.6444 16.8081 34.3577 17.9196Z" fill="#C6CBD9"/>
</svg>
