<svg width="180" height="180" viewBox="0 0 180 180" fill="none" xmlns="http://www.w3.org/2000/svg">
<path d="M90 180C139.706 180 180 139.706 180 90C180 40.2944 139.706 0 90 0C40.2944 0 0 40.2944 0 90C0 139.706 40.2944 180 90 180Z" fill="#E6EDFF"/>
<mask id="mask0_6737_41360" style="mask-type:alpha" maskUnits="userSpaceOnUse" x="0" y="0" width="180" height="180">
<path d="M90 180C139.706 180 180 139.706 180 90C180 40.2944 139.706 0 90 0C40.2944 0 0 40.2944 0 90C0 139.706 40.2944 180 90 180Z" fill="url(#paint0_linear_6737_41360)"/>
</mask>
<g mask="url(#mask0_6737_41360)">
<path d="M66.2212 31.7071L227.389 48.108C228.972 48.2691 230.426 49.0525 231.432 50.2859C232.437 51.5192 232.912 53.1015 232.751 54.6846L229.713 84.5305C229.552 86.1136 228.769 87.5679 227.536 88.5734C226.302 89.5789 224.72 90.0533 223.137 89.8922L61.9691 73.4913C60.386 73.3301 58.9317 72.5467 57.9262 71.3134C56.9207 70.08 56.4463 68.4978 56.6074 66.9146L59.6446 37.0688C59.8057 35.4857 60.5891 34.0314 61.8225 33.0259C63.0558 32.0203 64.6381 31.5459 66.2212 31.7071V31.7071Z" fill="white"/>
<path d="M141.655 49.0329L110.615 45.8742C108.637 45.6729 106.87 47.1133 106.669 49.0913C106.468 51.0693 107.908 52.8359 109.886 53.0372L140.926 56.1959C142.904 56.3972 144.67 54.9569 144.872 52.9789C145.073 51.0009 143.633 49.2342 141.655 49.0329Z" fill="#E6EDFF"/>
<path d="M161.564 66.7412L109.035 61.3957C107.057 61.1944 105.291 62.6347 105.09 64.6128C104.888 66.5908 106.329 68.3574 108.307 68.5587L160.835 73.9042C162.813 74.1055 164.58 72.6652 164.781 70.6872C164.983 68.7092 163.542 66.9425 161.564 66.7412Z" fill="#E6EDFF"/>
<path d="M96.3286 55.8797C97.3015 46.3193 90.34 37.7804 80.7796 36.8075C71.2192 35.8346 62.6803 42.7961 61.7074 52.3565C60.7345 61.9169 67.696 70.4558 77.2564 71.4287C86.8168 72.4016 95.3557 65.44 96.3286 55.8797Z" fill="#0046FA"/>
<rect x="78.26" y="43.7881" width="3.4" height="13.6" rx="1.7" transform="rotate(5.8106 78.26 43.7881)" fill="white"/>
<circle cx="78.0581" cy="62.5645" r="1.7" transform="rotate(5.8106 78.0581 62.5645)" fill="white"/>
<path d="M193.2 94.7998H31.2001C27.8864 94.7998 25.2001 97.4861 25.2001 100.8V130.8C25.2001 134.114 27.8864 136.8 31.2001 136.8H193.2C196.514 136.8 199.2 134.114 199.2 130.8V100.8C199.2 97.4861 196.514 94.7998 193.2 94.7998Z" fill="white"/>
<path d="M108 104.399H76.8C74.8117 104.399 73.2 106.011 73.2 107.999C73.2 109.988 74.8117 111.599 76.8 111.599H108C109.988 111.599 111.6 109.988 111.6 107.999C111.6 106.011 109.988 104.399 108 104.399Z" fill="#E6EDFF"/>
<path d="M129.6 120.001H76.8C74.8117 120.001 73.2 121.613 73.2 123.601C73.2 125.589 74.8117 127.201 76.8 127.201H129.6C131.588 127.201 133.2 125.589 133.2 123.601C133.2 121.613 131.588 120.001 129.6 120.001Z" fill="#E6EDFF"/>
<path d="M63.5999 115.8C63.5999 106.191 55.8097 98.4004 46.1999 98.4004C36.5902 98.4004 28.7999 106.191 28.7999 115.8C28.7999 125.41 36.5902 133.2 46.1999 133.2C55.8097 133.2 63.5999 125.41 63.5999 115.8Z" fill="#0046FA"/>
<rect x="44.4" y="105.601" width="3.4" height="13.6" rx="1.7" fill="white"/>
<circle cx="46.1" cy="124.301" r="1.7" fill="white"/>
</g>
<defs>
<linearGradient id="paint0_linear_6737_41360" x1="90" y1="0" x2="90" y2="180" gradientUnits="userSpaceOnUse">
<stop stop-color="#E3ECFA"/>
<stop offset="1" stop-color="#DAE7FF"/>
</linearGradient>
</defs>
</svg>
