<svg width="112" height="113" viewBox="0 0 112 113" fill="none" xmlns="http://www.w3.org/2000/svg">
<path d="M56 112.5C86.9279 112.5 112 87.4279 112 56.5C112 25.5721 86.9279 0.5 56 0.5C25.0721 0.5 0 25.5721 0 56.5C0 87.4279 25.0721 112.5 56 112.5Z" fill="#FCEFF4"/>
<mask id="mask0_2643_20859" style="mask-type:alpha" maskUnits="userSpaceOnUse" x="0" y="0" width="112" height="113">
<path d="M56 112.5C86.9279 112.5 112 87.4279 112 56.5C112 25.5721 86.9279 0.5 56 0.5C25.0721 0.5 0 25.5721 0 56.5C0 87.4279 25.0721 112.5 56 112.5Z" fill="url(#paint0_linear_2643_20859)"/>
</mask>
<g mask="url(#mask0_2643_20859)">
<path d="M22.4 112.5H89.6V28.1265H22.4V112.5Z" fill="white"/>
</g>
<path d="M56 72.5C64.2843 72.5 71 65.7843 71 57.5C71 49.2157 64.2843 42.5 56 42.5C47.7157 42.5 41 49.2157 41 57.5C41 65.7843 47.7157 72.5 56 72.5Z" fill="#FA1D6D"/>
<path d="M65.7067 81.1401H46.2933C45.0562 81.1401 44.0533 82.143 44.0533 83.3801C44.0533 84.6173 45.0562 85.6201 46.2933 85.6201H65.7067C66.9438 85.6201 67.9467 84.6173 67.9467 83.3801C67.9467 82.143 66.9438 81.1401 65.7067 81.1401Z" fill="#FCEFF4"/>
<path d="M72.4266 90.1001H39.5733C38.3361 90.1001 37.3333 91.103 37.3333 92.3401C37.3333 93.5772 38.3361 94.5801 39.5733 94.5801H72.4266C73.6637 94.5801 74.6666 93.5772 74.6666 92.3401C74.6666 91.103 73.6637 90.1001 72.4266 90.1001Z" fill="#FCEFF4"/>
<rect x="54.5066" y="49.2617" width="2.98667" height="11.9467" rx="1.49333" fill="white"/>
<circle cx="55.9999" cy="65.6882" r="1.49333" fill="white"/>
<defs>
<linearGradient id="paint0_linear_2643_20859" x1="56" y1="0.5" x2="56" y2="112.5" gradientUnits="userSpaceOnUse">
<stop stop-color="#E3ECFA"/>
<stop offset="1" stop-color="#DAE7FF"/>
</linearGradient>
</defs>
</svg>
