<svg width="16" height="16" viewBox="0 0 16 16" fill="none" xmlns="http://www.w3.org/2000/svg">
<path fill-rule="evenodd" clip-rule="evenodd" d="M7.43444 1.83429C7.74685 1.52187 8.25339 1.52187 8.56581 1.83429L14.1658 7.43429C14.3946 7.66309 14.463 8.00718 14.3392 8.30612C14.2154 8.60506 13.9237 8.79998 13.6001 8.79998H12.8001V13.6C12.8001 14.0418 12.4419 14.4 12.0001 14.4H10.4001C9.95829 14.4 9.60012 14.0418 9.60012 13.6V11.2C9.60012 10.7581 9.24195 10.4 8.80012 10.4H7.20012C6.75829 10.4 6.40012 10.7581 6.40012 11.2V13.6C6.40012 14.0418 6.04195 14.4 5.60012 14.4H4.00012C3.55829 14.4 3.20012 14.0418 3.20012 13.6V8.79998H2.40012C2.07655 8.79998 1.78484 8.60506 1.66102 8.30612C1.53719 8.00718 1.60564 7.66309 1.83444 7.43429L7.43444 1.83429Z" fill="#9497A3"/>
</svg>
